<?xml version="1.0" encoding="UTF-8"?>
<svg version="1.1" xmlns="http://www.w3.org/2000/svg" width="200" height="200">
<path d="M0 0 C66 0 132 0 200 0 C200 66 200 132 200 200 C134 200 68 200 0 200 C0 134 0 68 0 0 Z " fill="#0F059A" transform="translate(0,0)"/>
<path d="M0 0 C8.45719282 6.28207724 14.9468465 14.62960199 18.30859375 24.71484375 C18.39712353 26.14900839 18.43058155 27.58695606 18.42884827 29.02384949 C18.43091026 30.34264351 18.43091026 30.34264351 18.43301392 31.68807983 C18.427621 33.1306163 18.427621 33.1306163 18.42211914 34.60229492 C18.42226517 35.61710434 18.42241119 36.63191376 18.42256165 37.67747498 C18.42186401 41.0376091 18.41407853 44.39768804 18.40625 47.7578125 C18.40438529 50.0852302 18.40296164 52.41264829 18.40196228 54.74006653 C18.39814126 60.87048422 18.38831449 67.00087828 18.3772583 73.13128662 C18.36703527 79.3850472 18.36246274 85.6388116 18.35742188 91.89257812 C18.34669188 104.16667706 18.32962041 116.44075844 18.30859375 128.71484375 C15.38125759 130.25385602 13.40990697 130.96996766 10.0859375 130.98046875 C9.30025391 130.98304688 8.51457031 130.985625 7.70507812 130.98828125 C6.89361328 130.98054687 6.08214844 130.9728125 5.24609375 130.96484375 C4.43076172 130.97257813 3.61542969 130.9803125 2.77539062 130.98828125 C1.99099609 130.98570312 1.20660156 130.983125 0.3984375 130.98046875 C-0.67096069 130.97708496 -0.67096069 130.97708496 -1.76196289 130.97363281 C-3.69140625 130.71484375 -3.69140625 130.71484375 -6.69140625 128.71484375 C-7.00234024 126.0708155 -7.11845607 123.6561946 -7.10791016 121.00805664 C-7.11649551 120.21279068 -7.12508087 119.41752472 -7.13392639 118.59815979 C-7.15908292 115.96118432 -7.16337418 113.32458471 -7.16796875 110.6875 C-7.18227172 108.8590733 -7.19802746 107.03065744 -7.21517944 105.20225525 C-7.25712098 100.3816239 -7.28205689 95.56105963 -7.30267334 90.74029541 C-7.33842384 83.02692532 -7.39944246 75.31372105 -7.46116257 67.60052299 C-7.4802759 64.90222588 -7.49199136 62.20397294 -7.50259399 59.50563049 C-7.51280557 57.8540945 -7.52316344 56.2025594 -7.53369141 54.55102539 C-7.53473373 53.79819275 -7.53577606 53.04536011 -7.53684998 52.26971436 C-7.56147284 49.14884044 -7.69676726 46.69876072 -8.69140625 43.71484375 C-7.61890625 43.63234375 -6.54640625 43.54984375 -5.44140625 43.46484375 C-1.21759983 42.98063759 -1.21759983 42.98063759 2.30859375 38.71484375 C-4.29140625 38.38484375 -10.89140625 38.05484375 -17.69140625 37.71484375 C-17.69140625 45.96484375 -17.69140625 54.21484375 -17.69140625 62.71484375 C-20.52901151 64.13364638 -22.968236 63.84689095 -26.12890625 63.83984375 C-27.28261719 63.84242187 -28.43632813 63.845 -29.625 63.84765625 C-32.69140625 63.71484375 -32.69140625 63.71484375 -35.69140625 62.71484375 C-35.69140625 54.46484375 -35.69140625 46.21484375 -35.69140625 37.71484375 C-45.59140625 38.20984375 -45.59140625 38.20984375 -55.69140625 38.71484375 C-54.70140625 39.70484375 -53.71140625 40.69484375 -52.69140625 41.71484375 C-52.69140625 42.37484375 -52.69140625 43.03484375 -52.69140625 43.71484375 C-50.05140625 43.71484375 -47.41140625 43.71484375 -44.69140625 43.71484375 C-45.02140625 61.53484375 -45.35140625 79.35484375 -45.69140625 97.71484375 C-49.23483404 99.48655764 -50.23845122 99.96886439 -53.87890625 99.98046875 C-55.05066406 99.98433594 -55.05066406 99.98433594 -56.24609375 99.98828125 C-57.05304688 99.98054688 -57.86 99.9728125 -58.69140625 99.96484375 C-59.90183594 99.97644531 -59.90183594 99.97644531 -61.13671875 99.98828125 C-61.91789062 99.98570312 -62.6990625 99.983125 -63.50390625 99.98046875 C-64.21160156 99.97821289 -64.91929688 99.97595703 -65.6484375 99.97363281 C-67.69140625 99.71484375 -67.69140625 99.71484375 -71.69140625 97.71484375 C-71.69140625 64.71484375 -71.69140625 31.71484375 -71.69140625 -2.28515625 C-66.08140625 -2.28515625 -60.47140625 -2.28515625 -54.69140625 -2.28515625 C-54.36140625 -1.29515625 -54.03140625 -0.30515625 -53.69140625 0.71484375 C-53.0365625 0.38871094 -52.38171875 0.06257813 -51.70703125 -0.2734375 C-34.60479829 -8.46221854 -16.59742417 -10.86135438 0 0 Z " fill="#FBFCFC" transform="translate(125.69140625,35.28515625)"/>
<path d="M0 0 C0.99 0.33 1.98 0.66 3 1 C3.33 28.06 3.66 55.12 4 83 C6.40541929 84.20270964 8.10366591 84.20316663 10.7890625 84.31640625 C11.73007813 84.35830078 12.67109375 84.40019531 13.640625 84.44335938 C14.62546875 84.48267578 15.6103125 84.52199219 16.625 84.5625 C17.61757812 84.60568359 18.61015625 84.64886719 19.6328125 84.69335938 C22.08839838 84.79961069 24.54408703 84.90164964 27 85 C27 85.33 27 85.66 27 86 C16.94287997 88.03688507 10.95411315 88.73279243 1 85 C0.67 56.95 0.34 28.9 0 0 Z " fill="#423B93" transform="translate(116,81)"/>
<path d="M0 0 C6.93 0 13.86 0 21 0 C16 6 16 6 12.75 6.75 C11.8425 6.8325 10.935 6.915 10 7 C9.67 7.66 9.34 8.32 9 9 C8.34 9 7.68 9 7 9 C6.34 9.66 5.68 10.32 5 11 C4.67 9.68 4.34 8.36 4 7 C3.01 7 2.02 7 1 7 C1 12.61 1 18.22 1 24 C0.67 24 0.34 24 0 24 C0 16.08 0 8.16 0 0 Z " fill="#1F188C" transform="translate(108,73)"/>
<path d="M0 0 C0.99 0 1.98 0 3 0 C6.85691788 6.50170591 7.56381991 11.33698506 7.45410156 18.82226562 C7.45468567 19.87681946 7.45526978 20.93137329 7.45587158 22.0178833 C7.45309931 25.48101462 7.42204671 28.94327024 7.390625 32.40625 C7.38315959 34.81619802 7.37746808 37.22615213 7.37347412 39.6361084 C7.35824158 45.96224894 7.3189797 52.28801897 7.2746582 58.61401367 C7.23365447 65.07595814 7.21545218 71.53796279 7.1953125 78 C7.15248362 90.66682424 7.08503554 103.33339236 7 116 C6.34 115.67 5.68 115.34 5 115 C5.01665459 113.08226021 5.01665459 113.08226021 5.03364563 111.1257782 C5.1352273 99.04732852 5.2100642 86.96896609 5.25906086 74.89018536 C5.28509787 68.68108432 5.32038887 62.47232954 5.37719727 56.26342773 C5.43172624 50.2657769 5.46146484 44.26845807 5.47438622 38.27057838 C5.48358857 35.98813467 5.50155843 33.70570808 5.52865028 31.4234066 C6.12599757 14.92985105 6.12599757 14.92985105 0 0 Z " fill="#120D69" transform="translate(138,49)"/>
<path d="M0 0 C6.93 0 13.86 0 21 0 C21 8.25 21 16.5 21 25 C23.97 25.66 26.94 26.32 30 27 C30 27.33 30 27.66 30 28 C27.03 28 24.06 28 21 28 C19.69524382 25.39048764 19.88698428 23.47298715 19.90234375 20.5546875 C19.90556641 19.47832031 19.90878906 18.40195313 19.91210938 17.29296875 C19.92048828 16.16503906 19.92886719 15.03710938 19.9375 13.875 C19.94201172 12.73933594 19.94652344 11.60367188 19.95117188 10.43359375 C19.96298385 7.62234362 19.97945493 4.8111977 20 2 C18.35 2.66 16.7 3.32 15 4 C15 3.34 15 2.68 15 2 C14.01 2.495 14.01 2.495 13 3 C13 3.66 13 4.32 13 5 C11.58603027 5.13595863 10.16823316 5.23243845 8.75 5.3125 C7.96109375 5.37050781 7.1721875 5.42851563 6.359375 5.48828125 C4 5 4 5 0 0 Z " fill="#19136D" transform="translate(69,73)"/>
<path d="M0 0 C-0.33 0.66 -0.66 1.32 -1 2 C-1.66644531 1.855625 -2.33289063 1.71125 -3.01953125 1.5625 C-19.30445912 -1.7172617 -31.9710972 1.25831133 -47 8 C-47 6.68 -47 5.36 -47 4 C-52.61 4 -58.22 4 -64 4 C-64 3.67 -64 3.34 -64 3 C-61.10410348 2.97293555 -58.20846205 2.95312971 -55.3125 2.9375 C-54.08756836 2.92493164 -54.08756836 2.92493164 -52.83789062 2.91210938 C-48.75500916 2.89557949 -44.98348293 2.96964902 -41 4 C-41 3.34 -41 2.68 -41 2 C-27.05202412 -2.4316973 -14.41571417 -3.35667357 0 0 Z " fill="#2C2386" transform="translate(118,29)"/>
<path d="M0 0 C0.7425 0.185625 1.485 0.37125 2.25 0.5625 C4.94990963 0.99203108 6.44631077 0.85122974 9 0 C8.01 0.495 8.01 0.495 7 1 C7.20625 1.70125 7.4125 2.4025 7.625 3.125 C8.07850357 6.60186072 7.27540277 8.77398123 6 12 C4.35 12.33 2.7 12.66 1 13 C1.020625 12.21625 1.04125 11.4325 1.0625 10.625 C1.18684063 8.01885039 1.18684063 8.01885039 0 6 C0.33 5.34 0.66 4.68 1 4 C-1.64 4 -4.28 4 -7 4 C-7 3.67 -7 3.34 -7 3 C-4.03 3 -1.06 3 2 3 C2 2.34 2 1.68 2 1 C1.34 0.67 0.68 0.34 0 0 Z " fill="#1D169A" transform="translate(80,75)"/>
<path d="M0 0 C6.6 0 13.2 0 20 0 C18.68 1.65 17.36 3.3 16 5 C12.25 5.3125 12.25 5.3125 9 5 C8.67 4.01 8.34 3.02 8 2 C5.36 1.67 2.72 1.34 0 1 C0 0.67 0 0.34 0 0 Z " fill="#1B1762" transform="translate(109,73)"/>
<path d="M0 0 C0.33 0.99 0.66 1.98 1 3 C-1.87781585 4.63219407 -3.95576197 5.25528532 -7.2578125 5.265625 C-8.44310547 5.26949219 -8.44310547 5.26949219 -9.65234375 5.2734375 C-10.46832031 5.26570312 -11.28429687 5.25796875 -12.125 5.25 C-13.36056641 5.26160156 -13.36056641 5.26160156 -14.62109375 5.2734375 C-15.40871094 5.27085937 -16.19632812 5.26828125 -17.0078125 5.265625 C-17.72598145 5.26336914 -18.44415039 5.26111328 -19.18408203 5.25878906 C-21 5 -21 5 -23 3 C-22.34 2.34 -21.68 1.68 -21 1 C-19.41245079 1.52918307 -17.82593333 2.06216667 -16.25 2.625 C-13.04590576 3.15901571 -10.18734496 2.52156554 -7 2 C-6.01 2 -5.02 2 -4 2 C-1.84971696 1.05021103 -1.84971696 1.05021103 0 0 Z " fill="#EFF2FA" transform="translate(143,161)"/>
<path d="M0 0 C0.99 0.33 1.98 0.66 3 1 C4.62567079 1.14715199 6.25586857 1.24721867 7.88671875 1.31640625 C8.82451172 1.35830078 9.76230469 1.40019531 10.72851562 1.44335938 C11.70498047 1.48267578 12.68144531 1.52199219 13.6875 1.5625 C15.16959961 1.62727539 15.16959961 1.62727539 16.68164062 1.69335938 C19.12095546 1.79941654 21.56037113 1.90147714 24 2 C24 2.33 24 2.66 24 3 C7.43847962 6.35423197 7.43847962 6.35423197 0 2 C0 1.34 0 0.68 0 0 Z " fill="#29228B" transform="translate(119,164)"/>
<path d="M0 0 C5.61 0 11.22 0 17 0 C15.68 0.99 14.36 1.98 13 3 C12.67 2.34 12.34 1.68 12 1 C11.01 1.495 11.01 1.495 10 2 C10 2.66 10 3.32 10 4 C7.03 4 4.06 4 1 4 C0.67 2.68 0.34 1.36 0 0 Z " fill="#110785" transform="translate(72,74)"/>
<path d="M0 0 C0.99 0 1.98 0 3 0 C7.16119272 6.81518178 7.50652223 12.11687448 7.25 20 C7.23195312 21.06089844 7.21390625 22.12179688 7.1953125 23.21484375 C7.14853748 25.8108572 7.08301142 28.40493528 7 31 C6.67 31 6.34 31 6 31 C5.98582031 29.68386719 5.97164062 28.36773437 5.95703125 27.01171875 C5.72931376 17.07529924 5.40222207 8.69139787 0 0 Z " fill="#1A147C" transform="translate(138,49)"/>
<path d="M0 0 C1.65 0 3.3 0 5 0 C1.58983503 2.86453858 -1.90694544 4.34703566 -6 6 C-6 4.68 -6 3.36 -6 2 C-11.61 2 -17.22 2 -23 2 C-23 1.67 -23 1.34 -23 1 C-20.10410348 0.97293555 -17.20846205 0.95312971 -14.3125 0.9375 C-13.08756836 0.92493164 -13.08756836 0.92493164 -11.83789062 0.91210938 C-7.75500916 0.89557949 -3.98348293 0.96964902 0 2 C0 1.34 0 0.68 0 0 Z " fill="#1C1476" transform="translate(77,31)"/>
<path d="M0 0 C3.25 0.125 3.25 0.125 7 1 C9.3125 4.0625 9.3125 4.0625 11 7 C11.66 7 12.32 7 13 7 C13 8.98 13 10.96 13 13 C12.34 12.319375 11.68 11.63875 11 10.9375 C8.01066497 7.93093537 4.80268054 5.19821266 1.57421875 2.453125 C1.05472656 1.97359375 0.53523438 1.4940625 0 1 C0 0.67 0 0.34 0 0 Z " fill="#27238A" transform="translate(124,34)"/>
<path d="M0 0 C3.96189783 4.23513217 5.43181728 8.547001 7 14 C5 13 5 13 4 10 C1.49552484 8.78130071 1.49552484 8.78130071 -1 8 C-0.67 5.36 -0.34 2.72 0 0 Z " fill="#DEDFF3" transform="translate(137,48)"/>
<path d="M0 0 C3 1 3 1 4 3 C7.02934491 3.65772428 7.02934491 3.65772428 10 4 C10 4.33 10 4.66 10 5 C9.030625 5.12375 8.06125 5.2475 7.0625 5.375 C5.5465625 5.684375 5.5465625 5.684375 4 6 C3.67 6.66 3.34 7.32 3 8 C1.68 7.67 0.36 7.34 -1 7 C-0.67 4.69 -0.34 2.38 0 0 Z " fill="#28219C" transform="translate(114,74)"/>
<path d="M0 0 C0.66 0 1.32 0 2 0 C2.1875 2.375 2.1875 2.375 2 5 C-1.6441774 7.4294516 -3.71241272 7.16179575 -8 7 C-8 6.67 -8 6.34 -8 6 C-6.35 6 -4.7 6 -3 6 C-2.814375 5.071875 -2.814375 5.071875 -2.625 4.125 C-2 2 -2 2 0 0 Z " fill="#E9EAFA" transform="translate(77,128)"/>
<path d="M0 0 C6.625 -0.25 6.625 -0.25 10 2 C10 2.66 10 3.32 10 4 C7.69 4 5.38 4 3 4 C2.67 3.01 2.34 2.02 2 1 C1.34 0.67 0.68 0.34 0 0 Z " fill="#120988" transform="translate(115,74)"/>
<path d="M0 0 C3.24271506 0.5590888 4.93057424 1.4132178 7 4 C7 4.66 7 5.32 7 6 C7.66 6.33 8.32 6.66 9 7 C8.01 7.33 7.02 7.66 6 8 C5.67 7.01 5.34 6.02 5 5 C4.34 4.67 3.68 4.34 3 4 C1 3 1 3 0 0 Z " fill="#EBEAF6" transform="translate(66,73)"/>
<path d="M0 0 C2.31 0.33 4.62 0.66 7 1 C6.67 1.99 6.34 2.98 6 4 C4.35 4.33 2.7 4.66 1 5 C0.67 3.35 0.34 1.7 0 0 Z " fill="#EAECF2" transform="translate(54,129)"/>
<path d="M0 0 C2.1875 0.3125 2.1875 0.3125 4 1 C3.01 2.32 2.02 3.64 1 5 C-0.32 4.34 -1.64 3.68 -3 3 C-1.75 1.4375 -1.75 1.4375 0 0 Z " fill="#ECEFF8" transform="translate(127,75)"/>
<path d="M0 0 C2.475 0.99 2.475 0.99 5 2 C5 3.98 5 5.96 5 8 C2.5 5.6875 2.5 5.6875 0 3 C0 2.01 0 1.02 0 0 Z " fill="#1F1983" transform="translate(132,39)"/>
<path d="M0 0 C1.65 1.32 3.3 2.64 5 4 C1.86650268 5.04449911 1.01031744 4.93423645 -2 4 C-2 3.01 -2 2.02 -2 1 C-1.34 0.67 -0.68 0.34 0 0 Z " fill="#F2F5F3" transform="translate(69,35)"/>
<path d="M0 0 C0.33 0.99 0.66 1.98 1 3 C-0.8125 4.0625 -0.8125 4.0625 -3 5 C-3.99 4.67 -4.98 4.34 -6 4 C-3.94766315 1.7522025 -2.99332739 0.9977758 0 0 Z " fill="#E9E7FA" transform="translate(143,161)"/>
<path d="M0 0 C3.465 1.98 3.465 1.98 7 4 C7 4.99 7 5.98 7 7 C6.67 6.34 6.34 5.68 6 5 C5.175 4.690625 4.35 4.38125 3.5 4.0625 C2.675 3.711875 1.85 3.36125 1 3 C0.67 2.01 0.34 1.02 0 0 Z " fill="#E4E5F8" transform="translate(121,33)"/>
</svg>
