<?xml version="1.0" encoding="UTF-8"?>
<svg version="1.1" xmlns="http://www.w3.org/2000/svg" width="664" height="665">
<path d="M0 0 C219.12 0 438.24 0 664 0 C664 219.45 664 438.9 664 665 C444.88 665 225.76 665 0 665 C0 445.55 0 226.1 0 0 Z " fill="#FDFDFD" transform="translate(0,0)"/>
<path d="M0 0 C1.59278378 1.34501742 3.17822768 2.69918458 4.73828125 4.08203125 C7.01183409 6.06686927 7.01183409 6.06686927 9.66796875 7.88671875 C19.82065816 15.68678496 23.68055029 27.42993723 25.39746094 39.8828125 C25.63881303 42.25457705 25.84604988 44.62111931 26 47 C25.01 47 24.02 47 23 47 C26.3810038 51.13621084 29.66590534 54.81316569 34 58 C33.25945697 62.72974988 31.620755 67.0086946 29.9375 71.46484375 C29.47617172 72.69828018 29.47617172 72.69828018 29.00552368 73.95663452 C28.00801339 76.61857272 27.00436459 79.27814114 26 81.9375 C25.49228058 83.28767715 25.49228058 83.28767715 24.9743042 84.66513062 C20.09963444 97.62636643 15.11056236 110.52510301 9.70166016 123.2746582 C9.07098388 124.82545475 8.52940745 126.41177765 8 128 C25.8711736 93.65657721 25.8711736 93.65657721 38 57 C36.80890625 56.16855469 36.80890625 56.16855469 35.59375 55.3203125 C34.5728125 54.59585938 33.551875 53.87140625 32.5 53.125 C31.4790625 52.40570313 30.458125 51.68640625 29.40625 50.9453125 C28.21515625 49.98238281 28.21515625 49.98238281 27 49 C27 48.34 27 47.68 27 47 C27.66 47 28.32 47 29 47 C27.608547 37.38443671 24.84480623 28.26190729 22 19 C30.13827992 21.05412583 37.95891572 23.67312966 45.8125 26.625 C46.97869873 27.06303955 48.14489746 27.5010791 49.34643555 27.95239258 C51.73629342 28.85494615 54.12473217 29.76126656 56.51171875 30.67138672 C58.76956597 31.53135345 61.02984615 32.38497066 63.29296875 33.23095703 C66.30823747 34.3616828 69.31138193 35.51981551 72.3125 36.6875 C73.65308472 37.18467529 73.65308472 37.18467529 75.02075195 37.69189453 C82.12271566 40.51952188 85.92456482 44.2652193 89.6171875 50.91015625 C98.93948903 74.27381257 104.04191318 99.92317566 109.1640625 124.484375 C109.32600098 125.26006836 109.48793945 126.03576172 109.65478516 126.83496094 C110 129 110 129 110 133 C124.355 132.01 124.355 132.01 139 131 C135.33455289 133.74908533 132.58858557 135.11597335 128.375 136.75 C127.01951982 137.2760122 125.66405156 137.80205515 124.30859375 138.328125 C123.6007373 138.60076172 122.89288086 138.87339844 122.16357422 139.15429688 C120.02648689 139.98964674 117.90532222 140.85706494 115.78515625 141.734375 C102.13154622 147.31959111 87.71050102 152.26935282 73 154 C73.65078346 141.25362051 75.343152 128.64690938 77 116 C76.37276372 118.18477017 75.74635659 120.36976984 75.12133789 122.55517578 C74.5784614 124.44778774 74.03202593 126.33938218 73.48217773 128.22998047 C72.13199013 132.89981991 70.84010107 137.5626498 69.734375 142.296875 C69.43599731 143.52011475 69.43599731 143.52011475 69.1315918 144.76806641 C68.76014835 146.30642547 68.41152406 147.85052541 68.08911133 149.39990234 C67.17235685 153.09689354 66.40701728 154.73467667 63.18359375 156.8359375 C52.30118992 160.39991417 40.31657273 161.36750356 29 163 C27.84032715 163.17096191 26.6806543 163.34192383 25.48583984 163.51806641 C6.67959919 166.15845272 -12.10438728 166.28495633 -31.0625 166.3125 C-32.88825058 166.31801376 -32.88825058 166.31801376 -34.75088501 166.32363892 C-50.28577812 166.3481194 -65.55924323 165.69982729 -81 164 C-82.15669189 163.88503174 -83.31338379 163.77006348 -84.50512695 163.65161133 C-117.96424678 160.29025451 -150.88479626 151.66159806 -182 139 C-183.73515223 113.88849132 -175.05336463 86.68771353 -168 62.875 C-167.69223633 61.8027417 -167.38447266 60.7304834 -167.06738281 59.62573242 C-164.38777427 50.8934019 -161.39752904 44.51618007 -153.12890625 40.0546875 C-144.04675968 35.90870373 -134.57358964 32.64109274 -125.17895508 29.28417969 C-121.91078663 28.11544701 -118.64759254 26.93355293 -115.38476562 25.75 C-113.30757003 25.00183087 -111.23010568 24.25440741 -109.15234375 23.5078125 C-108.17740463 23.15478058 -107.20246552 22.80174866 -106.19798279 22.4380188 C-104.84495811 21.95653885 -104.84495811 21.95653885 -103.46459961 21.46533203 C-102.67250595 21.18142609 -101.88041229 20.89752014 -101.0643158 20.60501099 C-99 20 -99 20 -96 20 C-97.2464961 26.45911616 -99.11593124 32.58087906 -101.32299805 38.76977539 C-102.48185457 42.09396636 -103 44.42264661 -103 48 C-102.34 48.33 -101.68 48.66 -101 49 C-102.27351308 52.82053924 -103.62637525 53.23021375 -107.0625 55.1875 C-107.98160156 55.71730469 -108.90070313 56.24710937 -109.84765625 56.79296875 C-110.55792969 57.19128906 -111.26820313 57.58960938 -112 58 C-111.45346424 64.61400902 -109.17780643 70.26048472 -106.6875 76.375 C-106.24744629 77.46337158 -105.80739258 78.55174316 -105.35400391 79.6730957 C-98.38499667 96.6401072 -90.53970145 113.31560851 -81 129 C-81.25467041 128.41138184 -81.50934082 127.82276367 -81.77172852 127.21630859 C-87.75979322 113.3282238 -93.527891 99.35972617 -99.1100769 85.30401611 C-99.78474886 83.60622929 -100.46143492 81.90924141 -101.14016724 80.21307373 C-102.10230803 77.80593611 -103.05622101 75.39569937 -104.0078125 72.984375 C-104.29588272 72.26655853 -104.58395294 71.54874207 -104.88075256 70.80917358 C-106.46558587 66.76025818 -107.27174745 63.36951532 -108 59 C-104.7 56.36 -101.4 53.72 -98 51 C-98.99 50.01 -99.98 49.02 -101 48 C-100.65280862 37.52870803 -96.3638843 21.61073202 -89.4921875 13.640625 C-87.09186154 11.51189555 -84.69050756 9.73989063 -82 8 C-80.60857027 6.83179429 -79.23153551 5.64604982 -77.875 4.4375 C-76.92625 3.633125 -75.9775 2.82875 -75 2 C-74.505 2.99 -74.505 2.99 -74 4 C-74.93571856 5.71197383 -75.92562936 7.39440486 -76.9375 9.0625 C-92.8084694 40.7301017 -64.1561226 107.20643141 -53.74926758 138.87255859 C-53.04431668 141.01528 -53.04431668 141.01528 -52 143 C-51.96907761 142.37677856 -51.93815521 141.75355713 -51.90629578 141.1114502 C-51.57593823 134.48941111 -51.23283277 127.8681114 -50.88305664 121.24707031 C-50.75493645 118.79215304 -50.62982464 116.33707649 -50.50805664 113.88183594 C-49.82834426 100.22045632 -48.95924955 86.68181187 -46.98112488 73.13830566 C-45.0578621 61.00439964 -45.0578621 61.00439964 -47.75 49.421875 C-48.4925 48.54015625 -49.235 47.6584375 -50 46.75 C-50.7425 45.83734375 -51.485 44.9246875 -52.25 43.984375 C-52.8275 43.32953125 -53.405 42.6746875 -54 42 C-55.98 42.66 -57.96 43.32 -60 44 C-60.66 43.01 -61.32 42.02 -62 41 C-45.3713063 27.11269615 -45.3713063 27.11269615 -37.5625 25.125 C-31.71449347 26.56135248 -27.01009701 29.73805314 -22 33 C-21.01128906 33.63292969 -20.02257812 34.26585937 -19.00390625 34.91796875 C-13.84940685 38.34699033 -13.84940685 38.34699033 -12 40 C-12 40.99 -12 41.98 -12 43 C-13.134375 42.608125 -14.26875 42.21625 -15.4375 41.8125 C-17.6592019 41.40875145 -17.6592019 41.40875145 -20 42 C-24.33557449 45.42628987 -28.37395346 49.75544574 -29.44921875 55.328125 C-29.21293915 57.97816287 -28.63766227 60.41525134 -28 63 C-27.61875116 65.05927693 -27.27420149 67.1226665 -26.93457031 69.18920898 C-26.69986804 70.60743289 -26.4545529 72.02397919 -26.19433594 73.43774414 C-23.15448296 90.49666068 -22.39821023 107.92147664 -21.375 125.1875 C-21.23996699 127.41343477 -21.10455251 129.63934642 -20.96875 131.86523438 C-20.64145073 137.24323208 -20.31880173 142.62149221 -20 148 C-19.85868149 147.40410568 -19.71736298 146.80821136 -19.57176208 146.19425964 C-18.92209003 143.45619834 -18.27159734 140.71833261 -17.62109375 137.98046875 C-17.39885132 137.04328003 -17.17660889 136.10609131 -16.94763184 135.14050293 C-15.69094413 129.85410589 -14.40329641 124.57818693 -13.0625 119.3125 C-7.61375874 97.66188866 -2.97247242 75.83029466 1.54211426 53.96929932 C2.37414019 49.94841146 3.2327948 45.93567919 4.13183594 41.92919922 C4.3173703 41.08840317 4.50290466 40.24760712 4.69406128 39.3813324 C5.04667771 37.7865681 5.40639959 36.19334955 5.77493286 34.60218811 C8.45358289 22.37596201 6.43438132 12.65001045 0 2 C0 1.34 0 0.68 0 0 Z " fill="#044367" transform="translate(374,346)"/>
<path d="M0 0 C14.68228913 11.41955821 24.81213109 28.50460729 28.03515625 46.90234375 C29.54471585 66.93680228 26.47392587 86.89530542 13.57421875 102.96875 C11.90473631 104.77435947 10.21238366 106.55913501 8.49609375 108.3203125 C-0.92398199 118.20391577 -5.28511975 127.50372375 -7.96484375 140.90234375 C-15.22484375 140.90234375 -22.48484375 140.90234375 -29.96484375 140.90234375 C-30.03537606 129.40557649 -30.0746377 117.94970861 -29.52734375 106.46484375 C-29.48810791 105.62091064 -29.44887207 104.77697754 -29.40844727 103.9074707 C-29.14543306 98.8647665 -28.64840257 93.90553475 -27.96484375 88.90234375 C-27.30097656 88.66 -26.63710938 88.41765625 -25.953125 88.16796875 C-19.74376529 85.81113149 -14.92174237 83.87143131 -11.15234375 78.15234375 C-9.60741945 73.92412988 -9.46511315 71.39991918 -9.96484375 66.90234375 C-11.75848286 64.09230915 -12.9836531 62.39293907 -15.96484375 60.90234375 C-20.78159425 60.3055782 -24.66358567 60.0819854 -28.83984375 62.71484375 C-32.85176634 68.73272763 -35.18687342 75.70611822 -35.96484375 82.90234375 C-36.50109375 82.59296875 -37.03734375 82.28359375 -37.58984375 81.96484375 C-40.49306084 80.6660361 -42.7762282 80.03520273 -45.96484375 79.90234375 C-47.33917285 81.19338018 -48.67380732 82.52801465 -49.96484375 83.90234375 C-52.5859375 84.03125 -52.5859375 84.03125 -54.96484375 83.90234375 C-55.14660156 82.80535156 -55.32835937 81.70835937 -55.515625 80.578125 C-55.76899316 79.12360408 -56.02292948 77.66918205 -56.27734375 76.21484375 C-56.39529297 75.49361328 -56.51324219 74.77238281 -56.63476562 74.02929688 C-57.39611893 69.75400523 -58.31120242 66.45597316 -60.96484375 62.90234375 C-64.43252551 60.53801528 -66.37503106 59.89217457 -70.58984375 59.96484375 C-74.25591542 60.98319699 -75.63959083 61.9510612 -77.96484375 64.90234375 C-79.59725135 68.16715895 -79.48554138 71.37523716 -78.96484375 74.90234375 C-76.99390212 80.38276818 -73.98282931 83.22323706 -68.83984375 85.83984375 C-66.23227518 87.00889045 -63.67738111 87.99816463 -60.96484375 88.90234375 C-58.79526769 106.27832344 -58.76149858 123.42595609 -58.96484375 140.90234375 C-66.22484375 140.90234375 -73.48484375 140.90234375 -80.96484375 140.90234375 C-81.66609375 138.44796875 -82.36734375 135.99359375 -83.08984375 133.46484375 C-86.23644196 123.13714763 -91.32896979 116.53463921 -98.59375 108.6328125 C-111.86159202 93.35402903 -119.75361575 75.12567982 -119.21484375 54.65234375 C-117.25788351 33.12578109 -108.5389008 15.97256941 -92.28515625 1.51953125 C-65.29834749 -20.05528876 -27.88560441 -19.72934067 0 0 Z " fill="#F6A11C" transform="translate(381.96484375,150.09765625)"/>
<path d="M0 0 C23.02606264 8.07052096 45.89617251 28.09012142 56.41796875 49.9453125 C61.66074425 62.62639403 61.7447077 75.75208172 56.61132812 88.41259766 C45.17774608 114.61779732 17.27366661 130.3834596 -8.15234375 140.51953125 C-14.06440986 142.78965809 -20.013925 144.93383709 -26 147 C-27.12124268 147.39928711 -28.24248535 147.79857422 -29.39770508 148.20996094 C-39.43072984 151.69608594 -49.57292969 154.20688838 -59.9375 156.5 C-60.80018494 156.69320831 -61.66286987 156.88641663 -62.55169678 157.08547974 C-78.05588591 160.54564747 -93.59674545 163.31354868 -109.33355713 165.48112488 C-111.64813428 165.80868392 -113.9603683 166.15370789 -116.26863098 166.52314758 C-124.39102692 167.79619699 -132.25839123 168.29456279 -140.47265625 168.265625 C-141.71583115 168.26753845 -142.95900604 168.2694519 -144.23985291 168.27142334 C-146.85920414 168.27277516 -149.4785623 168.26914942 -152.09790039 168.26074219 C-156.00097724 168.2501667 -159.90357914 168.26060092 -163.80664062 168.2734375 C-180.2370928 168.28212753 -196.47391281 167.57293438 -212.84750366 166.25369263 C-216.88158463 165.92905574 -220.91736589 165.62910212 -224.95336914 165.32946777 C-263.27545276 162.3263102 -300.62136048 153.88425004 -337.8203125 144.609375 C-338.75959091 144.37623596 -339.69886932 144.14309692 -340.66661072 143.90289307 C-345.18014275 142.76773809 -349.60788065 141.55506973 -354 140 C-354 139.67 -354 139.34 -354 139 C-346.61472914 139.76750429 -339.2837948 140.80111965 -331.9375 141.875 C-300.41336237 146.39991703 -269.28909968 149.3705006 -237.39819336 149.31567383 C-233.56660705 149.3125034 -229.73578954 149.33615791 -225.90429688 149.36132812 C-208.06757299 149.40667278 -190.70441774 148.09862114 -173 146 C-171.32645932 145.80862159 -169.65288093 145.61757238 -167.97924805 145.42700195 C-164.16911189 144.98493869 -160.36564475 144.49891171 -156.5625 144 C-155.34498047 143.84789062 -154.12746094 143.69578125 -152.87304688 143.5390625 C-145.24300408 142.55140709 -137.75583431 141.22325001 -130.2331543 139.63476562 C-127.55588121 139.10913623 -124.96498964 138.72797867 -122.25 138.5 C-118.0084268 138.10580175 -114.1109539 136.98273151 -110.02734375 135.80078125 C-106.84533408 134.95908837 -103.67879701 134.38276224 -100.4375 133.8125 C-60.19784287 125.98584571 -1.82230459 107.66745827 22.83203125 71.87890625 C28.80391353 62.2719652 32.11519066 51.90391268 30.81640625 40.48828125 C26.96046645 24.01290211 15.73307236 11.68961391 2.01953125 2.42578125 C1.35308594 1.95527344 0.68664062 1.48476563 0 1 C0 0.67 0 0.34 0 0 Z " fill="#02578B" transform="translate(581,374)"/>
<path d="M0 0 C4.62 0 9.24 0 14 0 C14.495 1.98 14.495 1.98 15 4 C18.63 4 22.26 4 26 4 C26.495 5.485 26.495 5.485 27 7 C27.71285156 6.93039062 28.42570313 6.86078125 29.16015625 6.7890625 C30.11792969 6.73492187 31.07570313 6.68078125 32.0625 6.625 C33.47208984 6.52058594 33.47208984 6.52058594 34.91015625 6.4140625 C38.63785777 7.12095912 40.67822189 8.0223195 43.49699402 10.55499268 C47.09773041 16.41247225 45.89540713 24.67982921 45.7890625 31.34765625 C45.78361638 33.16555697 45.78083879 34.98346748 45.78060913 36.80137634 C45.77289053 40.60546061 45.74197033 44.40838679 45.69287109 48.2121582 C45.63056393 53.0836211 45.61202915 57.95397567 45.60907936 62.82579899 C45.60437484 66.57741601 45.58357719 70.32879823 45.55720139 74.08032036 C45.54515658 75.87641939 45.536445 77.67254401 45.531147 79.46867561 C45.51991212 81.97963488 45.4887455 84.48955024 45.45166016 87.00024414 C45.45144867 87.73960205 45.45123718 88.47895996 45.45101929 89.24072266 C45.35988039 93.64507115 44.7969656 96.54797662 42 100 C38.76655259 102.31865988 35.76241409 102.26836058 31.85791016 102.30639648 C30.61627106 102.32238388 29.37463196 102.33837128 28.09536743 102.35484314 C26.74326998 102.36122012 25.39116757 102.36661277 24.0390625 102.37109375 C22.64667669 102.38006545 21.25429184 102.38918739 19.86190796 102.39845276 C16.94502422 102.4149261 14.02825504 102.42263982 11.11132812 102.42553711 C7.38311521 102.43091956 3.65598652 102.46859867 -0.07192039 102.51428127 C-2.94766115 102.54410057 -5.82314231 102.55126169 -8.6990242 102.55226326 C-10.07291251 102.55645596 -11.44680227 102.56885229 -12.82053757 102.58978081 C-24.89545871 102.75909981 -24.89545871 102.75909981 -28.82666016 99.59008789 C-32.25438457 95.50508135 -32.1632861 92.57736343 -32.19287109 87.43261719 C-32.20104858 86.65192368 -32.20922607 85.87123016 -32.21765137 85.06687927 C-32.24251317 82.47688568 -32.25902444 79.88694696 -32.2734375 77.296875 C-32.27876118 76.4125605 -32.28408485 75.528246 -32.28956985 74.61713409 C-32.31630645 69.93535732 -32.33567862 65.25360725 -32.35009766 60.57177734 C-32.36673562 55.7383477 -32.41150447 50.90560121 -32.4624691 46.07242966 C-32.49614629 42.35432157 -32.50767565 38.63637543 -32.51332474 34.91812897 C-32.52003726 33.13673947 -32.53525945 31.35536063 -32.55921555 29.57411957 C-32.59087773 27.07716976 -32.5909028 24.58205925 -32.58349609 22.08496094 C-32.59990143 21.35226486 -32.61630676 20.61956879 -32.63320923 19.8646698 C-32.56413862 14.16111795 -30.90239226 11.85514268 -27 8 C-24.11584117 6.55792059 -21.58278472 6.90605113 -18.375 6.9375 C-17.18648438 6.94652344 -15.99796875 6.95554687 -14.7734375 6.96484375 C-13.85820312 6.97644531 -12.94296875 6.98804688 -12 7 C-12 6.01 -12 5.02 -12 4 C-8.37 4 -4.74 4 -1 4 C-0.67 2.68 -0.34 1.36 0 0 Z " fill="#F5F7F8" transform="translate(523,357)"/>
<path d="M0 0 C14.66061186 8.26941986 26.86362829 23.31172434 32 39.375 C35.26756449 54.15477844 32.6084517 66.64481184 25.5 79.76953125 C8.17008314 106.58757759 -24.09108761 120.0217551 -53 130 C-54.68186401 130.59893066 -54.68186401 130.59893066 -56.39770508 131.20996094 C-66.43072984 134.69608594 -76.57292969 137.20688838 -86.9375 139.5 C-88.2315274 139.78981247 -88.2315274 139.78981247 -89.55169678 140.08547974 C-105.05588591 143.54564747 -120.59674545 146.31354868 -136.33355713 148.48112488 C-138.64813428 148.80868392 -140.9603683 149.15370789 -143.26863098 149.52314758 C-151.39102692 150.79619699 -159.25839123 151.29456279 -167.47265625 151.265625 C-168.71583115 151.26753845 -169.95900604 151.2694519 -171.23985291 151.27142334 C-173.85920414 151.27277516 -176.4785623 151.26914942 -179.09790039 151.26074219 C-183.00097724 151.2501667 -186.90357914 151.26060092 -190.80664062 151.2734375 C-208.28207973 151.28281903 -225.58545957 150.40665525 -243 149 C-245.44531383 148.81048773 -247.89070578 148.62198019 -250.33618164 148.43457031 C-251.9649398 148.30952118 -251.9649398 148.30952118 -253.62660217 148.1819458 C-254.40982346 148.12190369 -255.19304474 148.06186157 -256 148 C-256 147.67 -256 147.34 -256 147 C-255.00097656 146.93941406 -254.00195312 146.87882813 -252.97265625 146.81640625 C-251.68230469 146.73261719 -250.39195312 146.64882813 -249.0625 146.5625 C-247.77472656 146.48128906 -246.48695313 146.40007812 -245.16015625 146.31640625 C-242.13976043 146.35080812 -242.13976043 146.35080812 -241 145 C-238.0628298 144.82777046 -235.14331997 144.71645846 -232.203125 144.640625 C-230.29594384 144.57989572 -228.38879981 144.51799188 -226.48168945 144.45507812 C-225.46644196 144.4222876 -224.45119446 144.38949707 -223.40518188 144.35571289 C-205.28564737 143.74862638 -187.32505156 142.57310993 -169.3125 140.5 C-168.37063843 140.39240356 -167.42877686 140.28480713 -166.45837402 140.1739502 C-153.55644951 138.68420028 -140.81501934 137.0620264 -128.23046875 133.7734375 C-124.69170987 132.9261893 -121.14850559 132.30390137 -117.5625 131.6875 C-108.35754792 130.0577011 -99.47335993 127.41640634 -90.52490234 124.74658203 C-88.20506686 124.0606357 -85.88042594 123.39780515 -83.55078125 122.74609375 C-50.44984457 113.42339798 -7.88357347 97.72009973 10 66 C14.53177647 57.65264061 16.18058172 51.75595742 16.1875 42.3125 C16.19974609 41.45205078 16.21199219 40.59160156 16.22460938 39.70507812 C16.25747539 25.16734377 10.91215134 14.96646927 1.5390625 3.99609375 C0 2 0 2 0 0 Z " fill="#03395B" transform="translate(608,391)"/>
<path d="M0 0 C1.81293089 0.14037521 3.6253443 0.28744889 5.4375 0.4375 C6.95150391 0.55931641 6.95150391 0.55931641 8.49609375 0.68359375 C11 1 11 1 12 2 C12.078983 3.41584335 12.13822689 4.83281164 12.1875 6.25 C12.5990006 9.92999104 13.00534845 11.00722763 15.3125 14.125 C19.362232 17.04040903 23.89309678 16.00539981 28.5859375 15.39453125 C29.38257813 15.26433594 30.17921875 15.13414062 31 15 C35.01778386 20.23529412 35.01778386 20.23529412 34.9375 23.6875 C33.94535466 26.13479185 33.09524516 27.40761368 31 29 C30.34 29 29.68 29 29 29 C29.26403513 32.82850938 29.69703625 36.37776077 31 40 C33.45206595 42.07674974 35.93110951 43.10788067 39 44 C38.09922251 53.0077749 38.09922251 53.0077749 36 56 C34.01171875 56.36328125 34.01171875 56.36328125 31.6875 56.3125 C28.90402437 56.50136264 27.45397595 56.63477889 25.26171875 58.3984375 C22.87119704 61.4825472 21.96961964 63.22530071 22.125 67.1875 C22.41375 68.115625 22.7025 69.04375 23 70 C23.185625 70.78375 23.37125 71.5675 23.5625 72.375 C23.7790625 73.179375 23.7790625 73.179375 24 74 C17.54251012 79.72368421 17.54251012 79.72368421 14 80 C13.175 79.01 12.35 78.02 11.5 77 C9.25501039 74.4758407 8.39038229 74.02296366 4.9453125 73.8203125 C1.9313633 74.09688666 -1.02075422 74.46971354 -4 75 C-4.66 77.64 -5.32 80.28 -6 83 C-7.2375 83.04125 -8.475 83.0825 -9.75 83.125 C-10.44609375 83.14820313 -11.1421875 83.17140625 -11.859375 83.1953125 C-14 83 -14 83 -18 81 C-18 77.7 -18 74.4 -18 71 C-19.32 70.34 -20.64 69.68 -22 69 C-22.61875 68.443125 -23.2375 67.88625 -23.875 67.3125 C-26.00326587 65.70649728 -26.00326587 65.70649728 -28.9375 66.25 C-29.948125 66.4975 -30.95875 66.745 -32 67 C-32.94875 67.185625 -33.8975 67.37125 -34.875 67.5625 C-35.926875 67.7790625 -35.926875 67.7790625 -37 68 C-39.11213078 65.16182426 -40.81477191 62.86439776 -41.5625 59.375 C-41 57 -41 57 -38.5 55.4375 C-35.71533507 53.23650877 -35.71533507 53.23650877 -35.66796875 50.08203125 C-35.68579175 47.04142675 -35.78541863 44.03275006 -36 41 C-37.134375 40.690625 -38.26875 40.38125 -39.4375 40.0625 C-43 39 -43 39 -44 38 C-44.16796875 36.0390625 -44.16796875 36.0390625 -44.1875 33.625 C-44.20167969 32.83351563 -44.21585937 32.04203125 -44.23046875 31.2265625 C-44 29 -44 29 -42 26 C-39.79296875 25.76953125 -39.79296875 25.76953125 -37.1875 25.8125 C-34.14946225 25.58762348 -32.5278289 25.43593512 -30.16015625 23.48046875 C-28.00062073 20.44754768 -26.92555262 18.23697193 -27.15234375 14.46875 C-27.63533862 12.24062767 -28.22177979 10.14134479 -29 8 C-25.71195019 5.08772731 -23.40114397 3.50298788 -19 3 C-18.5875 3.845625 -18.175 4.69125 -17.75 5.5625 C-15.24540485 8.30218073 -15.24540485 8.30218073 -12.0625 8.109375 C-9.01888957 7.83659859 -6.01765537 7.47921886 -3 7 C-2.01 4.69 -1.02 2.38 0 0 Z " fill="#05476C" transform="translate(470,280)"/>
<path d="M0 0 C1.20970459 0.00523682 2.41940918 0.01047363 3.66577148 0.01586914 C4.97094727 0.0190918 6.27612305 0.02231445 7.62084961 0.02563477 C9.00952213 0.03399138 10.39819401 0.04245634 11.78686523 0.05102539 C13.17944179 0.05603873 14.57202005 0.06060193 15.96459961 0.06469727 C19.38456394 0.07653105 22.80444367 0.09301659 26.22436523 0.11352539 C26.29426266 13.10176592 26.34737663 26.08996077 26.37980175 39.07835197 C26.395374 45.11114074 26.41645587 51.14379962 26.45068359 57.17651367 C26.48358082 63.01207864 26.50128149 68.84751968 26.50899696 74.68317032 C26.5144865 76.8956001 26.52520392 79.10802407 26.5415554 81.32040024 C26.63558179 94.58501793 25.94133838 107.11110202 23.22436523 120.11352539 C16.65319738 120.36412078 10.32275822 119.97166752 3.81811523 119.10571289 C3.08431641 119.01088623 2.35051758 118.91605957 1.59448242 118.81835938 C-0.19596336 118.58653455 -1.98585937 118.35047028 -3.77563477 118.11352539 C-3.79896438 102.87589475 -3.81661425 87.63826493 -3.82744694 72.40062046 C-3.83260976 65.32599352 -3.8396522 58.25137765 -3.85107422 51.17675781 C-3.86208158 44.35573661 -3.86791095 37.53472695 -3.87051201 30.71369743 C-3.87236681 28.10485591 -3.87598846 25.49601506 -3.88136482 22.88717842 C-3.8885712 19.24719987 -3.88962588 15.60726964 -3.88916016 11.96728516 C-3.89275543 10.87684402 -3.89635071 9.78640289 -3.90005493 8.66291809 C-3.89868027 7.6770874 -3.8973056 6.69125671 -3.89588928 5.67555237 C-3.89681108 4.81367593 -3.89773287 3.95179949 -3.89868259 3.06380558 C-3.70141104 -0.06290384 -3.16715514 0.12953885 0 0 Z " fill="#036CA6" transform="translate(164.775634765625,341.886474609375)"/>
<path d="M0 0 C0.9075 0.00257813 1.815 0.00515625 2.75 0.0078125 C4.11125 0.00394531 4.11125 0.00394531 5.5 0 C7.75 0.1328125 7.75 0.1328125 8.75 1.1328125 C8.79092937 3.46578683 8.79241723 5.79986475 8.75 8.1328125 C16.06381215 9.58764253 16.06381215 9.58764253 22.6875 7.1328125 C23.368125 6.4728125 24.04875 5.8128125 24.75 5.1328125 C28.13159998 5.23528523 30.19412942 7.03334738 32.75 9.1328125 C32.27404471 11.90921833 31.81011061 14.02404092 30.4375 16.5078125 C29.42565007 19.35216937 29.42565007 19.35216937 31.125 22.8828125 C32.52383944 25.10365037 33.24278702 25.97387923 35.76953125 26.765625 C37.75442785 26.9873612 39.75382917 27.06736428 41.75 27.1328125 C42.75 28.1328125 42.75 28.1328125 42.84765625 30.19921875 C42.83605469 31.02292969 42.82445312 31.84664062 42.8125 32.6953125 C42.80347656 33.52160156 42.79445313 34.34789062 42.78515625 35.19921875 C42.77355469 35.83730469 42.76195312 36.47539062 42.75 37.1328125 C39.84399739 38.38946228 37.95395416 39.1328125 34.75 39.1328125 C34.16692367 42.80872846 33.68528315 46.40620054 33.75 50.1328125 C35.60420839 52.57380068 35.60420839 52.57380068 37.75 54.1328125 C37.75 57.00568023 36.73378448 58.15424015 35 60.4453125 C32.75 62.1328125 32.75 62.1328125 30.375 61.9453125 C29.50875 61.6771875 28.6425 61.4090625 27.75 61.1328125 C24.68443402 60.39937822 24.68443402 60.39937822 21.75 60.1328125 C20.76 60.7928125 19.77 61.4528125 18.75 62.1328125 C17.76 62.1328125 16.77 62.1328125 15.75 62.1328125 C15.77320313 62.75929688 15.79640625 63.38578125 15.8203125 64.03125 C15.83835937 64.84851563 15.85640625 65.66578125 15.875 66.5078125 C15.89820313 67.31992187 15.92140625 68.13203125 15.9453125 68.96875 C15.75 71.1328125 15.75 71.1328125 13.75 73.1328125 C11.06160615 73.40273156 8.45858064 73.22018607 5.75 73.1328125 C4.25178941 69.76183867 3.75 67.92839131 3.75 64.1328125 C1.83700862 63.85609048 -0.08077936 63.61238435 -2 63.3828125 C-3.06734375 63.24359375 -4.1346875 63.104375 -5.234375 62.9609375 C-8.37961811 62.84074371 -8.37961811 62.84074371 -10.640625 65.1171875 C-11.17171875 65.78234375 -11.7028125 66.4475 -12.25 67.1328125 C-15.61573933 65.69035279 -18.00010389 64.0493445 -20.25 61.1328125 C-20.10622885 58.25738948 -19.5878412 56.61544279 -17.9375 54.2578125 C-16.91804028 51.8575242 -16.91804028 51.8575242 -18.625 48.4453125 C-20.01831635 46.19972704 -20.72536942 45.29821827 -23.26953125 44.49609375 C-25.25474049 44.27789958 -27.2539085 44.19825812 -29.25 44.1328125 C-30.25 43.1328125 -30.25 43.1328125 -30.34765625 41.06640625 C-30.33605469 40.24269531 -30.32445312 39.41898438 -30.3125 38.5703125 C-30.30347656 37.74402344 -30.29445313 36.91773438 -30.28515625 36.06640625 C-30.27355469 35.42832031 -30.26195312 34.79023438 -30.25 34.1328125 C-27.34399739 32.87616272 -25.45395416 32.1328125 -22.25 32.1328125 C-21.22644873 29.14039192 -20.39942927 26.30284772 -20.25 23.1328125 C-22.583492 20.29870095 -22.583492 20.29870095 -25.25 18.1328125 C-25.25 14.7599917 -23.3367179 12.67316473 -21.25 10.1328125 C-18.1173555 10.56992569 -15.54537692 10.9887262 -12.6875 12.3828125 C-10.14750873 13.47437608 -10.14750873 13.47437608 -7.5625 11.7578125 C-6.799375 11.2215625 -6.03625 10.6853125 -5.25 10.1328125 C-4.59 10.1328125 -3.93 10.1328125 -3.25 10.1328125 C-3.26160156 9.49472656 -3.27320313 8.85664063 -3.28515625 8.19921875 C-3.29417969 7.37292969 -3.30320312 6.54664063 -3.3125 5.6953125 C-3.32410156 4.87160156 -3.33570313 4.04789063 -3.34765625 3.19921875 C-3.20972249 0.28054034 -2.91665713 0.17216379 0 0 Z " fill="#0681C2" transform="translate(482.25,201.8671875)"/>
<path d="M0 0 C3.13512734 1.4578141 5.81276104 3.22902466 8.60546875 5.26171875 C13.65711456 8.83492423 18.86472512 11.8881662 24.3125 14.8125 C25.26543945 15.32603027 26.21837891 15.83956055 27.20019531 16.36865234 C60.34181005 34.06568417 95.16530888 46.29385019 131.70825195 54.76782227 C138.86602937 56.43704269 145.92497692 58.20662637 152.921875 60.46484375 C161.90621321 63.36332105 171.01522492 65.65367795 180.1875 67.875 C181.06962158 68.08932678 181.95174316 68.30365356 182.8605957 68.5244751 C234.43577259 80.99813315 286.17090733 86.58565822 339.1875 87.5625 C341.41341705 87.60583357 343.63932858 87.64945172 345.86523438 87.69335938 C351.24343058 87.79884227 356.62168339 87.90085628 362 88 C362 88.33 362 88.66 362 89 C341.99450227 90.56821026 322.13756843 91.36799929 302.0625 91.3125 C300.74769653 91.31134186 299.43289307 91.31018372 298.07824707 91.30899048 C275.92361807 91.27966377 254.02835822 90.31980303 232 88 C229.82946117 87.79261172 227.65889107 87.58555021 225.48828125 87.37890625 C196.05409769 84.37858946 166.55993948 78.66263349 138 71 C136.96037109 70.72188477 135.92074219 70.44376953 134.84960938 70.15722656 C100.33969719 60.79212373 66.54745746 47.71039944 36 29 C35.36980957 28.61505371 34.73961914 28.23010742 34.09033203 27.83349609 C21.94704211 20.31319652 10.15471873 11.06112686 0 1 C0 0.67 0 0.34 0 0 Z " fill="#F38008" transform="translate(80,454)"/>
<path d="M0 0 C1.13179687 -0.00257813 2.26359375 -0.00515625 3.4296875 -0.0078125 C6.125 0.125 6.125 0.125 7.125 1.125 C7.66893769 9.54966703 6.78389609 17.89930085 5.75 26.25 C5.62367188 27.37148438 5.49734375 28.49296875 5.3671875 29.6484375 C5.23828125 30.71578125 5.109375 31.783125 4.9765625 32.8828125 C4.80374756 34.32358154 4.80374756 34.32358154 4.62744141 35.79345703 C4.125 38.125 4.125 38.125 2.125 40.125 C-0.25 40.5 -0.25 40.5 -2.875 40.125 C-5.73618537 37.91840317 -6.7610302 36.68900438 -7.484375 33.109375 C-7.53078125 32.04203125 -7.5771875 30.9746875 -7.625 29.875 C-7.68171875 28.79734375 -7.7384375 27.7196875 -7.796875 26.609375 C-7.83554687 25.37960937 -7.83554687 25.37960937 -7.875 24.125 C-8.75800781 25.03121094 -9.64101562 25.93742187 -10.55078125 26.87109375 C-17.65731765 34.10914043 -24.8322215 40.91908833 -32.875 47.125 C-34.18628958 48.15352898 -35.49748028 49.18218403 -36.80859375 50.2109375 C-67.5798345 74.20219406 -107.22935694 98.10623148 -146.875 102 C-147.761875 102.10054688 -148.64875 102.20109375 -149.5625 102.3046875 C-151.875 102.125 -151.875 102.125 -153.70703125 100.80078125 C-154.875 99.125 -154.875 99.125 -154.5625 96.4375 C-154.335625 95.674375 -154.10875 94.91125 -153.875 94.125 C-149.96189974 92.74498815 -146.05414383 91.67511521 -142.01538086 90.73168945 C-121.20882502 85.7335417 -101.06560237 77.37420872 -82.875 66.125 C-82.24464844 65.74102051 -81.61429687 65.35704102 -80.96484375 64.96142578 C-72.57695742 59.82844211 -64.63563096 54.16705113 -56.875 48.125 C-56.01132813 47.45597656 -55.14765625 46.78695312 -54.2578125 46.09765625 C-41.82015974 36.31414435 -30.01766557 25.36612492 -18.875 14.125 C-19.68324219 14.01542969 -20.49148437 13.90585937 -21.32421875 13.79296875 C-22.39285156 13.63441406 -23.46148437 13.47585938 -24.5625 13.3125 C-25.61824219 13.16167969 -26.67398438 13.01085937 -27.76171875 12.85546875 C-31.02140118 12.09064991 -33.1892832 11.11009502 -35.875 9.125 C-36.6875 6.4375 -36.6875 6.4375 -36.875 4.125 C-33.78896906 2.06764604 -32.97146725 1.85945932 -29.453125 1.74609375 C-28.16148437 1.69485352 -28.16148437 1.69485352 -26.84375 1.64257812 C-25.9465625 1.61615234 -25.049375 1.58972656 -24.125 1.5625 C-16.04423667 1.28487144 -8.06861323 -0.01863421 0 0 Z " fill="#F68C07" transform="translate(223.875,258.875)"/>
<path d="M0 0 C3.95096978 -0.04939662 7.9018203 -0.08571755 11.85302734 -0.10986328 C13.8591136 -0.12488107 15.86511324 -0.15028981 17.87109375 -0.17578125 C19.12792969 -0.18222656 20.38476562 -0.18867188 21.6796875 -0.1953125 C22.84226074 -0.20578613 24.00483398 -0.21625977 25.20263672 -0.22705078 C28 0 28 0 30 2 C30.18820955 4.8619745 30.25171793 7.6264479 30.22705078 10.48876953 C30.22734283 11.36688293 30.22763489 12.24499634 30.22793579 13.14971924 C30.22653912 16.06084981 30.21096213 18.97172647 30.1953125 21.8828125 C30.19158357 23.89777486 30.18873603 25.91273904 30.18673706 27.92770386 C30.17909118 33.23782332 30.1594345 38.54783382 30.1373291 43.85791016 C30.11689121 49.27374803 30.10773975 54.68960345 30.09765625 60.10546875 C30.07618951 70.73702711 30.04204207 81.3685045 30 92 C28.55910373 91.84394158 27.11833136 91.68673883 25.6776123 91.52905273 C24.87526909 91.44163315 24.07292587 91.35421356 23.24626923 91.2641449 C20.73194458 90.96847864 18.26410545 90.55621489 15.78125 90.0625 C14.91242188 89.88976562 14.04359375 89.71703125 13.1484375 89.5390625 C11.83746094 89.27222656 11.83746094 89.27222656 10.5 89 C9.14261719 88.73316406 9.14261719 88.73316406 7.7578125 88.4609375 C6.89929688 88.28820312 6.04078125 88.11546875 5.15625 87.9375 C4.38087891 87.78152344 3.60550781 87.62554687 2.80664062 87.46484375 C1 87 1 87 0 86 C-0.09512944 83.32212027 -0.12555279 80.67011131 -0.11352539 77.99194336 C-0.11367142 77.15299026 -0.11381744 76.31403717 -0.1139679 75.44966125 C-0.1132685 72.66302956 -0.10547485 69.87646384 -0.09765625 67.08984375 C-0.09579217 65.16313209 -0.09436822 63.23641995 -0.09336853 61.30970764 C-0.08954259 56.22812603 -0.07971166 51.1465728 -0.06866455 46.06500244 C-0.05845206 40.88383366 -0.05387126 35.70266031 -0.04882812 30.52148438 C-0.03808946 20.34764375 -0.02101213 10.17382423 0 0 Z " fill="#F3890A" transform="translate(121,361)"/>
<path d="M0 0 C6.12630691 3.92546976 10.57042604 10.32455938 12.859375 17.19140625 C13.77183802 26.18141077 12.32459631 33.85987961 6.609375 41.00390625 C-1.71099985 47.62238625 -7.44773107 49.89020203 -18.140625 49.19140625 C-25.22068083 47.99121016 -30.43425395 44.5685949 -35.140625 39.19140625 C-39.59333948 32.17773748 -41.07233726 25.45764407 -40.140625 17.19140625 C-37.39226652 8.31703377 -31.7091537 2.96835507 -23.953125 -1.74609375 C-15.82440814 -4.01147386 -7.56327387 -3.96105767 0 0 Z " fill="#0771B1" transform="translate(560.140625,272.80859375)"/>
<path d="M0 0 C1.30066406 -0.00128906 2.60132812 -0.00257813 3.94140625 -0.00390625 C4.96258545 -0.00076416 4.96258545 -0.00076416 6.00439453 0.00244141 C8.08503515 0.0077901 10.16545989 0.0024957 12.24609375 -0.00390625 C14.19708984 -0.00197266 14.19708984 -0.00197266 16.1875 0 C17.39083984 0.00112793 18.59417969 0.00225586 19.83398438 0.00341797 C22.59375 0.1328125 22.59375 0.1328125 23.59375 1.1328125 C23.68811529 3.37211136 23.71117327 5.61443 23.70727539 7.85571289 C23.70742142 8.558116 23.70756744 9.2605191 23.7077179 9.98420715 C23.70701872 12.31632528 23.69922617 14.6483645 23.69140625 16.98046875 C23.68954208 18.59329688 23.68811818 20.20612557 23.68711853 21.81895447 C23.68329323 26.07196607 23.67346285 30.32494374 23.66241455 34.57794189 C23.65220069 38.9145868 23.64762096 43.25123717 23.64257812 47.58789062 C23.63184059 56.10288019 23.61476403 64.61784213 23.59375 73.1328125 C19.24443014 73.17772967 15.57705471 73.08125346 11.40625 71.8203125 C6.27884237 70.31978128 1.12539793 69.02341213 -4.0703125 67.78125 C-6.40625 67.1328125 -6.40625 67.1328125 -7.40625 66.1328125 C-7.50560148 64.11331041 -7.53424508 62.09030335 -7.53564453 60.06835938 C-7.53879669 58.77031372 -7.54194885 57.47226807 -7.54519653 56.1348877 C-7.54340675 54.70711229 -7.5413558 53.27933719 -7.5390625 51.8515625 C-7.53973558 50.39807112 -7.54070564 48.94457986 -7.54196167 47.49108887 C-7.54343846 44.44115123 -7.5412847 41.39124284 -7.53662109 38.34130859 C-7.5309238 34.42350691 -7.53420291 30.50577372 -7.54019356 26.58797455 C-7.54379969 23.58550496 -7.54266035 20.58305173 -7.54006577 17.58058167 C-7.53939664 16.13562512 -7.54022442 14.69066711 -7.54254532 13.24571228 C-7.54507265 11.22956367 -7.54054052 9.21340988 -7.53564453 7.19726562 C-7.53484894 6.04778442 -7.53405334 4.89830322 -7.53323364 3.71398926 C-7.2888142 -1.25428682 -4.32795213 0.00405673 0 0 Z " fill="#F1860D" transform="translate(87.40625,370.8671875)"/>
<path d="M0 0 C4.62 0 9.24 0 14 0 C14.495 1.98 14.495 1.98 15 4 C18.63 4 22.26 4 26 4 C26.495 5.485 26.495 5.485 27 7 C27.71285156 6.93039062 28.42570313 6.86078125 29.16015625 6.7890625 C30.11792969 6.73492187 31.07570313 6.68078125 32.0625 6.625 C33.47208984 6.52058594 33.47208984 6.52058594 34.91015625 6.4140625 C38.63785777 7.12095912 40.67822189 8.0223195 43.49699402 10.55499268 C47.09773041 16.41247225 45.89540713 24.67982921 45.7890625 31.34765625 C45.78361638 33.16555697 45.78083879 34.98346748 45.78060913 36.80137634 C45.77289053 40.60546061 45.74197033 44.40838679 45.69287109 48.2121582 C45.63056393 53.0836211 45.61202915 57.95397567 45.60907936 62.82579899 C45.60437484 66.57741601 45.58357719 70.32879823 45.55720139 74.08032036 C45.54515658 75.87641939 45.536445 77.67254401 45.531147 79.46867561 C45.51991212 81.97963488 45.4887455 84.48955024 45.45166016 87.00024414 C45.45144867 87.73960205 45.45123718 88.47895996 45.45101929 89.24072266 C45.35988039 93.64507115 44.7969656 96.54797662 42 100 C38.76655259 102.31865988 35.76241409 102.26836058 31.85791016 102.30639648 C30.61627106 102.32238388 29.37463196 102.33837128 28.09536743 102.35484314 C26.74326998 102.36122012 25.39116757 102.36661277 24.0390625 102.37109375 C22.64667669 102.38006545 21.25429184 102.38918739 19.86190796 102.39845276 C16.94502422 102.4149261 14.02825504 102.42263982 11.11132812 102.42553711 C7.38311521 102.43091956 3.65598652 102.46859867 -0.07192039 102.51428127 C-2.94766115 102.54410057 -5.82314231 102.55126169 -8.6990242 102.55226326 C-10.07291251 102.55645596 -11.44680227 102.56885229 -12.82053757 102.58978081 C-24.89545871 102.75909981 -24.89545871 102.75909981 -28.82666016 99.59008789 C-32.25438457 95.50508135 -32.1632861 92.57736343 -32.19287109 87.43261719 C-32.20104858 86.65192368 -32.20922607 85.87123016 -32.21765137 85.06687927 C-32.24251317 82.47688568 -32.25902444 79.88694696 -32.2734375 77.296875 C-32.27876118 76.4125605 -32.28408485 75.528246 -32.28956985 74.61713409 C-32.31630645 69.93535732 -32.33567862 65.25360725 -32.35009766 60.57177734 C-32.36673562 55.7383477 -32.41150447 50.90560121 -32.4624691 46.07242966 C-32.49614629 42.35432157 -32.50767565 38.63637543 -32.51332474 34.91812897 C-32.52003726 33.13673947 -32.53525945 31.35536063 -32.55921555 29.57411957 C-32.59087773 27.07716976 -32.5909028 24.58205925 -32.58349609 22.08496094 C-32.59990143 21.35226486 -32.61630676 20.61956879 -32.63320923 19.8646698 C-32.56413862 14.16111795 -30.90239226 11.85514268 -27 8 C-24.11584117 6.55792059 -21.58278472 6.90605113 -18.375 6.9375 C-17.18648438 6.94652344 -15.99796875 6.95554687 -14.7734375 6.96484375 C-13.85820312 6.97644531 -12.94296875 6.98804688 -12 7 C-12 6.01 -12 5.02 -12 4 C-8.37 4 -4.74 4 -1 4 C-0.67 2.68 -0.34 1.36 0 0 Z M-24.63175964 13.04576111 C-26.71530151 16.02165531 -26.40925317 19.05825572 -26.37231445 22.56079102 C-26.37596512 23.32854858 -26.37961578 24.09630615 -26.38337708 24.8873291 C-26.39148668 27.42641278 -26.37787066 29.96485915 -26.36328125 32.50390625 C-26.36276274 34.26602681 -26.36328008 36.02814796 -26.36479187 37.79026794 C-26.36470213 41.48323196 -26.35426852 45.17597774 -26.33618164 48.86889648 C-26.31347775 53.60942766 -26.31295317 58.34964032 -26.31969929 63.09021091 C-26.3230357 66.72839707 -26.31641567 70.36651021 -26.30657005 74.00468254 C-26.30271334 75.75303707 -26.30157178 77.50139971 -26.3031559 79.24975777 C-26.30352551 81.6895314 -26.29093642 84.12889178 -26.2746582 86.56860352 C-26.27713562 87.29540817 -26.27961304 88.02221283 -26.28216553 88.77104187 C-26.35560375 92.83549487 -26.35560375 92.83549487 -24 96 C-21.35113099 96.31413512 -21.35113099 96.31413512 -18.22094727 96.2746582 C-17.00951553 96.28419022 -15.7980838 96.29372223 -14.54994202 96.30354309 C-13.23537521 96.30263168 -11.92080841 96.30172028 -10.56640625 96.30078125 C-9.20881519 96.30466705 -7.85122534 96.30900148 -6.49363708 96.31376648 C-3.64635276 96.32123395 -0.79919241 96.3209338 2.0480957 96.31567383 C5.69792535 96.30988013 9.34724737 96.32680455 12.99699306 96.3500185 C15.80140656 96.36474725 18.60569758 96.36562873 21.4101429 96.36250877 C23.41044979 96.36327241 25.41073768 96.37715432 27.41099548 96.39118958 C29.23287132 96.38184639 29.23287132 96.38184639 31.09155273 96.37231445 C32.16251694 96.37294388 33.23348114 96.3735733 34.3368988 96.3742218 C36.96318635 96.17465345 36.96318635 96.17465345 38.84402466 94.93582153 C40.61329549 91.972962 40.42552087 89.00681212 40.40405273 85.65454102 C40.41091599 84.90950317 40.41777924 84.16446533 40.42485046 83.39685059 C40.44316205 80.93234231 40.43927484 78.46846801 40.43359375 76.00390625 C40.43815364 74.29141533 40.44345863 72.57892624 40.44947815 70.86643982 C40.45841791 67.27603729 40.45597655 63.68585708 40.44604492 60.09545898 C40.43455686 55.49393285 40.45475938 50.89317427 40.48396206 46.291749 C40.50230766 42.7546857 40.50203486 39.21780687 40.49632454 35.68070793 C40.49617111 33.98423117 40.50223352 32.28774208 40.51461601 30.5913105 C40.52949301 28.21866847 40.51887459 25.84745093 40.50170898 23.47485352 C40.51137695 22.77394089 40.52104492 22.07302826 40.53100586 21.35087585 C40.47971782 17.96586542 40.20570963 16.26481275 38.10243225 13.55723572 C34.68560378 11.02644913 32.14438089 11.72370794 28 12 C28 13.98 28 15.96 28 18 C14.47 18 0.94 18 -13 18 C-13 16.02 -13 14.04 -13 12 C-14.60332791 11.91878076 -16.20784026 11.86070866 -17.8125 11.8125 C-18.70582031 11.77769531 -19.59914063 11.74289062 -20.51953125 11.70703125 C-22.97030299 11.81326975 -22.97030299 11.81326975 -24.63175964 13.04576111 Z " fill="#0E314B" transform="translate(523,357)"/>
<path d="M0 0 C1.20970459 0.00523682 2.41940918 0.01047363 3.66577148 0.01586914 C4.84083252 0.0183667 6.01589355 0.02086426 7.2265625 0.0234375 C8.7314624 0.0325415 10.2363623 0.04164551 11.78686523 0.05102539 C16.55124023 0.07165039 21.31561523 0.09227539 26.22436523 0.11352539 C26.22436523 18.92352539 26.22436523 37.73352539 26.22436523 57.11352539 C21.27436523 59.09352539 16.32436523 61.07352539 11.22436523 63.11352539 C3.54043523 67.92878819 0.33260626 72.56586257 -2.77563477 81.11352539 C-3.10563477 81.11352539 -3.43563477 81.11352539 -3.77563477 81.11352539 C-3.79875836 70.70009614 -3.81654993 60.28667295 -3.82744694 49.8732233 C-3.83267573 45.03835712 -3.83977331 40.20350845 -3.85107422 35.36865234 C-3.86190323 30.70675419 -3.86791163 26.04487293 -3.87051201 21.38296318 C-3.87236623 19.60028251 -3.87598679 17.8176028 -3.88136482 16.03492928 C-3.88857545 13.54686579 -3.8896257 11.05887296 -3.88916016 8.57080078 C-3.89275543 7.82633698 -3.89635071 7.08187317 -3.90005493 6.31484985 C-3.88750914 0.15900183 -3.88750914 0.15900183 0 0 Z " fill="#0278B6" transform="translate(205.775634765625,317.886474609375)"/>
<path d="M0 0 C-0.49242187 0.70640625 -0.98484375 1.4128125 -1.4921875 2.140625 C-3.1954923 5.37072633 -3.21083988 7.14472508 -3.125 10.75 C-3.55079902 16.9697071 -5.42946056 19.68838524 -10.04296875 23.7578125 C-28.27694026 37.58383581 -28.27694026 37.58383581 -35.6015625 37.46484375 C-45.28849006 35.58740991 -55.216737 25.783263 -62 19 C-62.41208297 16.74212871 -62.73266071 14.46704488 -63 12.1875 C-63.51988213 7.78242735 -64.15051195 4.04575511 -66 0 C-63.54159395 -0.02691685 -61.08348118 -0.04679802 -58.625 -0.0625 C-57.92632812 -0.07087891 -57.22765625 -0.07925781 -56.5078125 -0.08789062 C-51.2265625 -0.11328125 -51.2265625 -0.11328125 -49 1 C-46.51112145 1.02879694 -44.05597514 0.99684002 -41.5703125 0.9140625 C-40.82474091 0.89282318 -40.07916931 0.87158386 -39.31100464 0.84970093 C-37.72548985 0.80336525 -36.14004923 0.7544312 -34.5546875 0.703125 C-32.1694129 0.62642807 -29.78401826 0.55859129 -27.3984375 0.4921875 C-19.62724366 0.26263626 -11.91969012 -0.07652181 -4.18310547 -0.90087891 C-2 -1 -2 -1 0 0 Z " fill="#023353" transform="translate(371,327)"/>
<path d="M0 0 C3.27081471 -0.02902429 6.5415963 -0.04680684 9.8125 -0.0625 C10.74126953 -0.07087891 11.67003906 -0.07925781 12.62695312 -0.08789062 C13.51962891 -0.09111328 14.41230469 -0.09433594 15.33203125 -0.09765625 C16.56530151 -0.10551147 16.56530151 -0.10551147 17.82348633 -0.11352539 C20 0 20 0 23 1 C22.67 17.83 22.34 34.66 22 52 C15.07 52 8.14 52 1 52 C0.8551746 47.32679482 0.71203113 42.65359122 0.57275391 37.98022461 C0.52516635 36.3988166 0.47669961 34.81743474 0.42724609 33.23608398 C0.08146749 22.15352681 -0.06356614 11.08787688 0 0 Z " fill="#F39118" transform="translate(326,239)"/>
<path d="M0 0 C4.45629217 4.24408778 7.10052742 7.88410482 7.3125 14.1875 C7.24721518 19.19810991 5.86684891 22.90847777 3 27 C-2.3950814 32.12532733 -6.84406738 33.53736781 -14.1796875 33.37109375 C-19.56359669 32.66268465 -22.97003448 30.18840185 -26.6015625 26.2734375 C-29.97119555 21.69901944 -30.82109075 17.38755134 -30.5546875 11.75390625 C-29.37640706 5.9039928 -26.05795665 1.56796697 -21.375 -2 C-13.70806665 -5.22818246 -6.86394475 -4.779751 0 0 Z " fill="#FAFBFB" transform="translate(479,307)"/>
<path d="M0 0 C2.84655762 -0.38095093 2.84655762 -0.38095093 6.52929688 -0.38818359 C7.53441063 -0.39606903 7.53441063 -0.39606903 8.55982971 -0.40411377 C10.77970538 -0.41734176 12.99886676 -0.40856647 15.21875 -0.3984375 C16.75809874 -0.40045745 18.29744654 -0.40336822 19.83679199 -0.40713501 C23.06495259 -0.41156213 26.29286438 -0.40511507 29.52099609 -0.39111328 C33.66416985 -0.3740209 37.80676067 -0.38386005 41.94991302 -0.40183067 C45.12917493 -0.41265821 48.30829806 -0.40922698 51.48756409 -0.4014473 C53.01542733 -0.39944242 54.54330308 -0.40191463 56.07115173 -0.40888596 C58.20467627 -0.41648387 60.33724965 -0.40492121 62.47070312 -0.38818359 C63.68600708 -0.38579681 64.90131104 -0.38341003 66.15344238 -0.38095093 C67.0928064 -0.25523712 68.03217041 -0.12952332 69 0 C71 3 71 3 70.8125 6.0625 C70 9 70 9 67 11 C64.33251687 11.24244784 61.76132195 11.37314535 59.08984375 11.4140625 C58.29790115 11.43356461 57.50595856 11.45306671 56.6900177 11.47315979 C54.1059539 11.53382817 51.52188189 11.58007313 48.9375 11.625 C47.16633295 11.66146952 45.39517404 11.69833632 43.62402344 11.7355957 C38.4162383 11.84045944 33.20824799 11.92218714 28 12 C26.55419861 12.0235632 25.10839779 12.04716109 23.66259766 12.07080078 C20.0250021 12.12466091 16.38788987 12.16160755 12.75 12.1875 C11.68773193 12.20055176 10.62546387 12.21360352 9.53100586 12.22705078 C8.08479858 12.22874268 8.08479858 12.22874268 6.609375 12.23046875 C5.78405273 12.23457764 4.95873047 12.23868652 4.10839844 12.24291992 C2 12 2 12 -1 10 C-1.8125 6.5625 -1.8125 6.5625 -2 3 C-1.34 2.01 -0.68 1.02 0 0 Z " fill="#073C5E" transform="translate(303,297)"/>
<path d="M0 0 C0.75 2.6875 0.75 2.6875 1 6 C-0.50170898 8.65722656 -0.50170898 8.65722656 -3 11 C-5.76614187 11.55677146 -7.94571866 11.77889077 -10.72265625 11.796875 C-11.50343033 11.82046082 -12.28420441 11.84404663 -13.08863831 11.86834717 C-15.72589309 11.93896773 -18.36197868 11.97083577 -21 12 C-22.94255671 12.03652183 -24.88510212 12.0736487 -26.82763672 12.11132812 C-31.97650674 12.19785242 -37.12413608 12.2305978 -42.27368164 12.24023438 C-45.48543285 12.25014795 -48.69659549 12.28139249 -51.90820312 12.3125 C-53.9583296 12.31901351 -56.00846055 12.32427041 -58.05859375 12.328125 C-59.01471054 12.3404718 -59.97082733 12.3528186 -60.95591736 12.36553955 C-61.83856766 12.36253845 -62.72121796 12.35953735 -63.63061523 12.35644531 C-64.40461166 12.36009094 -65.17860809 12.36373657 -65.97605896 12.36749268 C-68.55974487 11.89836555 -69.44542228 11.08829743 -71 9 C-71.25265405 5.90498792 -71.39935013 3.79870027 -70 1 C-66.4375173 0.97086179 -62.87506546 0.95315471 -59.3125 0.9375 C-57.80139648 0.92493164 -57.80139648 0.92493164 -56.25976562 0.91210938 C-55.28330078 0.90888672 -54.30683594 0.90566406 -53.30078125 0.90234375 C-51.95753784 0.89448853 -51.95753784 0.89448853 -50.5871582 0.88647461 C-48 1 -48 1 -45.53320312 1.52734375 C-42.60576604 2.07355792 -40.13265682 1.92326607 -37.16796875 1.66015625 C-36.04624268 1.56653809 -34.9245166 1.47291992 -33.76879883 1.37646484 C-32.58697021 1.27285645 -31.4051416 1.16924805 -30.1875 1.0625 C-20.08547615 0.23671412 -10.13367408 -0.27933558 0 0 Z " fill="#093755" transform="translate(373,311)"/>
<path d="M0 0 C4.09403292 2.21531801 6.86287192 4.78217979 8.625 9.1875 C9.1904722 13.9940137 9.47607882 17.19621076 7.125 21.5625 C3.77218894 25.66038019 0.99673129 27.82455621 -4.32421875 28.65625 C-9.53591562 28.98351511 -12.5603236 28.55062307 -16.625 25.125 C-20.53985421 21.18646724 -21.89659182 18.40624161 -22.5 12.875 C-21.92891875 7.44972813 -19.53949626 4.58899663 -15.5625 1 C-10.39929887 -2.57452386 -5.5902601 -2.58172161 0 0 Z " fill="#F8FBFC" transform="translate(495.125,224.6875)"/>
<path d="M0 0 C0 0.99 0 1.98 0 3 C-1.6953125 4.2890625 -1.6953125 4.2890625 -4.125 5.625 C-22.59607954 16.22488087 -37.66027835 27.51925816 -44 49 C-45.33353141 55.61561681 -46.18614629 62.3039028 -47 69 C-47.99 68.67 -48.98 68.34 -50 68 C-54.2373918 55.73386585 -51.73504462 43.58972307 -46.5 32 C-39.13912192 18.06364771 -25.72691725 6.27197223 -10.765625 1.25 C-7.14424065 0.26977567 -3.74644768 -0.23415298 0 0 Z " fill="#FDFBF4" transform="translate(326,149)"/>
<path d="M0 0 C0.66 0 1.32 0 2 0 C2 0.66 2 1.32 2 2 C2.66 2.33 3.32 2.66 4 3 C3.7827124 3.64026123 3.5654248 4.28052246 3.34155273 4.94018555 C2.36112349 7.85194704 1.39917789 10.76949453 0.4375 13.6875 C0.09525391 14.69490234 -0.24699219 15.70230469 -0.59960938 16.74023438 C-1.07817383 18.20493164 -1.07817383 18.20493164 -1.56640625 19.69921875 C-2.01415405 21.04246216 -2.01415405 21.04246216 -2.47094727 22.4128418 C-3.06789952 25.33204026 -2.88261369 27.16701209 -2 30 C-1.34 30.66 -0.68 31.32 0 32 C-3.3 34.64 -6.6 37.28 -10 40 C-8.53857428 48.0120516 -5.70323293 55.23592606 -2.625 62.75 C-2.09476699 64.05951891 -1.56507251 65.36925598 -1.03588867 66.67919922 C1.74973723 73.55835068 4.58165079 80.41830135 7.42578125 87.2734375 C7.70119751 87.9375061 7.97661377 88.60157471 8.26037598 89.2857666 C9.58574111 92.47904054 10.91547788 95.6703719 12.25341797 98.85839844 C12.73053223 100.00083008 13.20764648 101.14326172 13.69921875 102.3203125 C14.12033936 103.32336426 14.54145996 104.32641602 14.9753418 105.35986328 C15.83494203 107.57471126 16.49824977 109.68280118 17 112 C12.72768397 108.15648627 10.59905726 102.913733 8 97.875 C7.14039673 96.21428467 7.14039673 96.21428467 6.26342773 94.52001953 C0.32433753 82.90109488 -4.93457271 71.02074749 -10 59 C-10.34740234 58.1862793 -10.69480469 57.37255859 -11.05273438 56.53417969 C-16.82449392 42.98283756 -16.82449392 42.98283756 -16 39 C-13.62890625 37.05078125 -13.62890625 37.05078125 -10.5625 35.3125 C-6.60785949 33.30916741 -6.60785949 33.30916741 -4 30 C-4.99 29.67 -5.98 29.34 -7 29 C-6.39553488 23.26905851 -4.86247516 18.2301215 -2.9375 12.8125 C-2.37844472 11.23767838 -1.82484624 9.66090647 -1.27734375 8.08203125 C-1.03234131 7.39343018 -0.78733887 6.7048291 -0.53491211 5.99536133 C0.17262331 3.70037291 0.17262331 3.70037291 0 0 Z " fill="#EBF0F3" transform="translate(277,365)"/>
<path d="M0 0 C1.32 0 2.64 0 4 0 C4.84809201 2.49581362 5.67846921 4.99544125 6.5 7.5 C6.73847656 8.19609375 6.97695313 8.8921875 7.22265625 9.609375 C8.83709006 14.59105646 9.23579709 18.76530467 9 24 C8.34 24 7.68 24 7 24 C9.73319846 26.89884686 12.41715612 29.38658173 15.68359375 31.67578125 C16.61836548 32.33380737 16.61836548 32.33380737 17.57202148 33.00512695 C18.04325439 33.33343506 18.5144873 33.66174316 19 34 C13.72915693 54.9086482 4.50605661 74.32876092 -5.0625 93.5625 C-5.39368835 94.23123138 -5.72487671 94.89996277 -6.06610107 95.58895874 C-7.0065854 97.4811772 -7.95628209 99.36840834 -8.91015625 101.25390625 C-9.45808838 102.34002197 -10.00602051 103.4261377 -10.57055664 104.54516602 C-12 107 -12 107 -14 108 C-12.49424322 103.1230211 -10.5743296 98.45798504 -8.62207031 93.74829102 C-3.65048081 81.75189861 1.14053727 69.68597714 5.78967285 57.56106567 C6.4289344 55.89784396 7.07207409 54.23610753 7.71911621 52.57589722 C8.63094469 50.23300296 9.52822416 47.88503381 10.421875 45.53515625 C10.69837891 44.83210358 10.97488281 44.1290509 11.25976562 43.4046936 C12.26670865 40.71842333 13.04889328 38.54590861 12.7902832 35.65844727 C11.56339453 33.08376244 9.62067903 31.67210825 7.4375 29.875 C5.92407399 28.62364932 4.43561402 27.33990642 3 26 C3 25.34 3 24.68 3 24 C3.99 24 4.98 24 6 24 C5.37713159 21.31199023 4.75176793 18.6246008 4.125 15.9375 C3.95097656 15.18533203 3.77695312 14.43316406 3.59765625 13.65820312 C2.52335236 9.06256983 1.33465943 4.52702051 0 0 Z " fill="#E5EEF3" transform="translate(394,369)"/>
<path d="M0 0 C1.32 0 2.64 0 4 0 C4.33 0.99 4.66 1.98 5 3 C7.50447516 4.21869929 7.50447516 4.21869929 10 5 C9.67 6.65 9.34 8.3 9 10 C6.03 9.67 3.06 9.34 0 9 C0 9.99 0 10.98 0 12 C0.721875 12.103125 1.44375 12.20625 2.1875 12.3125 C6.22741361 13.30003444 9.07173897 15.07173897 12 18 C12.33326944 21.59930998 12.4454521 24.1090958 10.8125 27.375 C8.58982661 29.36774166 6.93167219 29.68306247 4 30 C4 31.32 4 32.64 4 34 C2.68 34 1.36 34 0 34 C-0.495 32.515 -0.495 32.515 -1 31 C-4.50294871 29.28432339 -4.50294871 29.28432339 -8 28 C-7.67 26.35 -7.34 24.7 -7 23 C-3.37 23.33 0.26 23.66 4 24 C4 23.01 4 22.02 4 21 C3.13375 20.938125 2.2675 20.87625 1.375 20.8125 C-2.98877688 19.76196112 -5.01055318 18.34533334 -8 15 C-8.87098197 11.88670276 -8.58235018 10.33527832 -8 7 C-5.6875 4.5 -5.6875 4.5 -3 3 C-2.01 3 -1.02 3 0 3 C0 2.01 0 1.02 0 0 Z " fill="#F6F9FB" transform="translate(545,279)"/>
<path d="M0 0 C4.62940161 1.47734863 5.97117706 4.29449347 8.39453125 8.3359375 C9.2414602 9.68665423 10.08909731 11.03692722 10.9375 12.38671875 C11.32768311 13.02383789 11.71786621 13.66095703 12.11987305 14.31738281 C13.25527983 16.16269141 13.25527983 16.16269141 14.98828125 18.27734375 C16.96356363 21.10731563 16.51517076 23.69553081 16.20703125 27.0234375 C14.20703125 29.0234375 14.20703125 29.0234375 11.33203125 29.45703125 C8.20703125 29.0234375 8.20703125 29.0234375 6.08203125 26.93359375 C5.46328125 25.99386719 4.84453125 25.05414063 4.20703125 24.0859375 C3.53671875 23.08304688 2.86640625 22.08015625 2.17578125 21.046875 C1.52609375 20.04914063 0.87640625 19.05140625 0.20703125 18.0234375 C-0.40140625 17.19070312 -1.00984375 16.35796875 -1.63671875 15.5 C-4.07536384 12.12960844 -5.66449022 9.79430866 -6.35546875 5.6484375 C-5.79296875 3.0234375 -5.79296875 3.0234375 -4.66796875 1.0859375 C-2.79296875 0.0234375 -2.79296875 0.0234375 0 0 Z " fill="#FAA70D" transform="translate(273.79296875,105.9765625)"/>
<path d="M0 0 C3.5 -0.3125 3.5 -0.3125 7 0 C7.66 0.66 8.32 1.32 9 2 C8.81446444 7.55944052 7.3811991 10.43231161 3.75 14.5625 C2.93402344 15.49835938 2.11804688 16.43421875 1.27734375 17.3984375 C0.52582031 18.25695312 -0.22570312 19.11546875 -1 20 C-1.89975546 21.22629856 -2.79655635 22.45478452 -3.6875 23.6875 C-6 26 -6 26 -9.1875 26.5 C-12 26 -12 26 -14 24 C-14.57191706 20.92708054 -14.52314473 18.87709137 -12.89941406 16.15478516 C-11.37287974 14.14281497 -9.77663071 12.22302476 -8.125 10.3125 C-7.02273243 8.99668407 -5.92114337 7.68029938 -4.8203125 6.36328125 C-4.32805176 5.78876221 -3.83579102 5.21424316 -3.32861328 4.62231445 C-1.81311561 2.82587921 -1.81311561 2.82587921 0 0 Z " fill="#F79C0D" transform="translate(399,110)"/>
<path d="M0 0 C3.20217111 1.17260639 6.28228081 2.5664219 9.375 4 C10.60283203 4.55300781 10.60283203 4.55300781 11.85546875 5.1171875 C17.83363412 7.83363412 17.83363412 7.83363412 19 9 C19.25 12.4375 19.25 12.4375 19 16 C16 18 16 18 13.390625 17.87109375 C8.94016388 16.72771491 4.92324312 14.96401803 0.75 13.0625 C-0.0646875 12.70220703 -0.879375 12.34191406 -1.71875 11.97070312 C-7.7324953 9.2675047 -7.7324953 9.2675047 -10 7 C-10.35877543 4.20155166 -10.33812547 2.596692 -8.9375 0.125 C-5.9473267 -1.61122966 -3.21313593 -0.79149456 0 0 Z " fill="#FAAB0E" transform="translate(236,156)"/>
<path d="M0 0 C2 2 2 2 2.25 5.5 C2 9 2 9 0 11 C-1.78417969 11.67016602 -1.78417969 11.67016602 -3.921875 12.25390625 C-4.70046875 12.46853516 -5.4790625 12.68316406 -6.28125 12.90429688 C-7.0959375 13.12150391 -7.910625 13.33871094 -8.75 13.5625 C-9.54921875 13.78357422 -10.3484375 14.00464844 -11.171875 14.23242188 C-20.12420247 16.66928075 -20.12420247 16.66928075 -24 17 C-24.99 16.34 -25.98 15.68 -27 15 C-27.43132515 10.94554358 -27.30019361 9.45029042 -25 6 C-23.01635742 5.10864258 -23.01635742 5.10864258 -20.60546875 4.39453125 C-19.73212891 4.13349609 -18.85878906 3.87246094 -17.95898438 3.60351562 C-17.04439453 3.34248047 -16.12980469 3.08144531 -15.1875 2.8125 C-13.83301758 2.40354492 -13.83301758 2.40354492 -12.45117188 1.98632812 C-4.38617014 -0.37806254 -4.38617014 -0.37806254 0 0 Z " fill="#F9A011" transform="translate(445,162)"/>
<path d="M0 0 C7.38527086 0.76750429 14.7162052 1.80111965 22.0625 2.875 C44.70440858 6.12497813 67.16811326 8.63898107 90 10 C90 10.33 90 10.66 90 11 C81.42 11 72.84 11 64 11 C63.67 11.99 63.34 12.98 63 14 C57.3470371 16.82648145 48.14323005 13.24265631 42.28515625 11.8203125 C41.38937363 11.60688202 40.493591 11.39345154 39.57066345 11.17355347 C37.68849984 10.72391121 35.80695912 10.27165418 33.92602539 9.81689453 C31.07521563 9.12807239 28.22239665 8.44814084 25.36914062 7.76953125 C23.52852016 7.32864932 21.68802122 6.88725969 19.84765625 6.4453125 C19.00880386 6.24519562 18.16995148 6.04507874 17.30567932 5.83889771 C11.47278251 4.42392058 5.73304708 2.77562879 0 1 C0 0.67 0 0.34 0 0 Z " fill="#456262" transform="translate(227,513)"/>
<path d="M0 0 C1 1 1 1 1.1875 4.4375 C1 8 1 8 -1 10 C-2.78417969 10.59423828 -2.78417969 10.59423828 -4.921875 11.0703125 C-5.70046875 11.24433594 -6.4790625 11.41835937 -7.28125 11.59765625 C-8.0959375 11.77167969 -8.910625 11.94570312 -9.75 12.125 C-10.54921875 12.30675781 -11.3484375 12.48851562 -12.171875 12.67578125 C-23.26081143 15.10148609 -23.26081143 15.10148609 -26.875 12.8125 C-28.40659584 10.34492892 -28.42822025 8.85480169 -28 6 C-25.92160573 3.40200716 -24.35057016 2.58406675 -21.09375 2.0859375 C-20.34996094 1.96476563 -19.60617188 1.84359375 -18.83984375 1.71875 C-18.06769531 1.6053125 -17.29554688 1.491875 -16.5 1.375 C-2.8906348 -0.76069337 -2.8906348 -0.76069337 0 0 Z " fill="#F68E10" transform="translate(249,212)"/>
<path d="M0 0 C3 0.25 3 0.25 5 2.25 C5.25878906 4.83203125 5.25878906 4.83203125 5.265625 8.0625 C5.26820313 9.22007813 5.27078125 10.37765625 5.2734375 11.5703125 C5.26570313 12.78460938 5.25796875 13.99890625 5.25 15.25 C5.25773437 16.46429688 5.26546875 17.67859375 5.2734375 18.9296875 C5.27085937 20.08726563 5.26828125 21.24484375 5.265625 22.4375 C5.26336914 23.50355469 5.26111328 24.56960937 5.25878906 25.66796875 C5 28.25 5 28.25 3 30.25 C-0.5625 30 -0.5625 30 -4 29.25 C-6.11689593 25.01620814 -5.18493005 19.40160218 -5.1875 14.75 C-5.19974609 13.58339844 -5.21199219 12.41679688 -5.22460938 11.21484375 C-5.22654297 10.10238281 -5.22847656 8.98992187 -5.23046875 7.84375 C-5.23457764 6.81958984 -5.23868652 5.79542969 -5.24291992 4.74023438 C-4.86900113 0.90709698 -3.75869261 0.31322438 0 0 Z " fill="#F9A106" transform="translate(338,88.75)"/>
<path d="M0 0 C2.50304378 3.75456567 2.45280074 5.54745934 2 10 C0.06565951 14.02342821 -1.38410972 15.66300343 -5.3125 17.8125 C-8.90662862 18.96993125 -12.26592697 19.51372287 -16 20 C-14.61534165 4.91342394 -14.61534165 4.91342394 -9 0 C-5.85135005 -1.57432497 -3.35512575 -0.71895552 0 0 Z " fill="#F79E1A" transform="translate(366,215)"/>
<path d="M0 0 C3.5252832 0.98116274 7.00909352 2.05996334 10.48046875 3.21484375 C11.49463867 3.5406543 11.49463867 3.5406543 12.52929688 3.87304688 C17.55336217 5.53773717 17.55336217 5.53773717 19.79296875 7.77734375 C20.04296875 10.77734375 20.04296875 10.77734375 19.79296875 13.77734375 C19.13296875 14.43734375 18.47296875 15.09734375 17.79296875 15.77734375 C9.96936209 15.6490879 2.78467954 13.24812127 -4.20703125 9.77734375 C-6.20703125 6.77734375 -6.20703125 6.77734375 -6.01953125 4.21484375 C-4.93409699 0.95854096 -3.52522635 -0.3556423 0 0 Z " fill="#F68E0C" transform="translate(427.20703125,216.22265625)"/>
<path d="M0 0 C0.94896149 0.00586624 1.89792297 0.01173248 2.87564087 0.01777649 C3.95461639 0.01485092 5.03359192 0.01192535 6.14526367 0.00891113 C7.31392975 0.02641922 8.48259583 0.04392731 9.68667603 0.06196594 C10.89457794 0.06525406 12.10247986 0.06854218 13.34698486 0.07192993 C17.22359473 0.08771364 21.09935125 0.13173819 24.97573853 0.17524719 C27.54995015 0.18673776 30.12417 0.19652315 32.69839478 0.20454407 C35.19449723 0.21798855 37.69059222 0.23291706 40.18667603 0.24946594 C41.33509979 0.25685287 42.48352356 0.26423981 43.66674805 0.27185059 C51.34581632 0.36060602 58.95161821 0.80939221 66.60073853 1.48774719 C66.60073853 1.81774719 66.60073853 2.14774719 66.60073853 2.48774719 C65.92526978 2.54833313 65.24980103 2.60891907 64.55386353 2.67134094 C63.66183228 2.75513 62.76980103 2.83891907 61.85073853 2.92524719 C60.96901978 3.00645813 60.08730103 3.08766907 59.17886353 3.17134094 C56.69044936 3.41606294 56.69044936 3.41606294 54.68276978 4.00141907 C51.27980197 4.79629616 47.82563484 4.59015325 44.35073853 4.55024719 C43.6056604 4.54573547 42.86058228 4.54122375 42.09292603 4.53657532 C40.26216212 4.52483965 38.4314398 4.50690569 36.60073853 4.48774719 C36.10573853 3.49774719 36.10573853 3.49774719 35.60073853 2.48774719 C28.67073853 2.15774719 21.74073853 1.82774719 14.60073853 1.48774719 C14.60073853 2.80774719 14.60073853 4.12774719 14.60073853 5.48774719 C15.92073853 5.81774719 17.24073853 6.14774719 18.60073853 6.48774719 C13.85078209 9.65438481 9.07456969 8.33923204 3.60073853 7.48774719 C0.51880628 6.66762517 -2.44065214 5.67567367 -5.39926147 4.48774719 C-3.82030669 1.82904327 -3.10211781 0.63063125 0 0 Z " fill="#035590" transform="translate(293.3992614746094,523.5122528076172)"/>
<path d="M0 0 C5.37601874 5.09307039 4.79130849 11.96709616 5 19 C-1.34886348 18.74086272 -4.6688614 16.61254026 -9 12 C-10.59511297 8.80977406 -10.37542561 5.47091604 -10 2 C-7.76471184 -2.33908878 -4.15962981 -1.24059135 0 0 Z " fill="#F9AB1A" transform="translate(317,215)"/>
<path d="M0 0 C0 0.33 0 0.66 0 1 C2.64 1.33 5.28 1.66 8 2 C8 2.33 8 2.66 8 3 C1.46769448 3.452936 -5.06512991 3.89769921 -11.59838867 4.33666992 C-13.82280203 4.48711098 -16.0470877 4.639452 -18.27124023 4.79370117 C-21.4604613 5.01455349 -24.65007285 5.22866244 -27.83984375 5.44140625 C-29.34139259 5.54758018 -29.34139259 5.54758018 -30.87327576 5.65589905 C-32.25459435 5.74610573 -32.25459435 5.74610573 -33.66381836 5.83813477 C-34.47878281 5.89365005 -35.29374725 5.94916534 -36.13340759 6.00636292 C-38 6 -38 6 -39 5 C-40.48638992 4.84344973 -41.97949127 4.74933057 -43.47265625 4.68359375 C-44.82133789 4.62075195 -44.82133789 4.62075195 -46.19726562 4.55664062 C-47.14279297 4.51732422 -48.08832031 4.47800781 -49.0625 4.4375 C-50.01189453 4.39431641 -50.96128906 4.35113281 -51.93945312 4.30664062 C-54.29281353 4.20020724 -56.64628354 4.09818992 -59 4 C-57 1 -57 1 -55.09350586 0.56762695 C-54.30854736 0.54144287 -53.52358887 0.51525879 -52.71484375 0.48828125 C-51.80669922 0.45275146 -50.89855469 0.41722168 -49.96289062 0.38061523 C-48.46532227 0.34689819 -48.46532227 0.34689819 -46.9375 0.3125 C-45.38772461 0.26234741 -45.38772461 0.26234741 -43.80664062 0.21118164 C-29.21107255 -0.19934537 -14.59957808 -0.08747904 0 0 Z " fill="#E1E6EA" transform="translate(364,308)"/>
<path d="M0 0 C7.59202326 0.78931003 15.1339518 1.84331343 22.6875 2.9375 C23.86505859 3.10701172 25.04261719 3.27652344 26.25585938 3.45117188 C28.62556191 3.7922949 30.9951915 4.13392505 33.36474609 4.47607422 C39.24233699 5.32317362 45.12116112 6.16160793 51 7 C51 7.33 51 7.66 51 8 C45.06 7.67 39.12 7.34 33 7 C33 7.66 33 8.32 33 9 C25.29242309 7.7344221 17.82841533 5.99059098 10.3125 3.875 C9.31283203 3.59785156 8.31316406 3.32070313 7.28320312 3.03515625 C4.85422977 2.36108709 2.42656915 1.68266323 0 1 C0 0.67 0 0.34 0 0 Z " fill="#747F5B" transform="translate(227,513)"/>
<path d="M0 0 C4.03441396 -0.02513051 8.06879625 -0.04305855 12.10327148 -0.05493164 C13.46949052 -0.05989273 14.83570444 -0.06666372 16.2019043 -0.07543945 C25.18866001 -0.13162733 34.05153774 0.15299477 43 1 C43 1.33 43 1.66 43 2 C41.98679687 2.09087891 41.98679687 2.09087891 40.953125 2.18359375 C39.61507812 2.30927734 39.61507812 2.30927734 38.25 2.4375 C37.36828125 2.51871094 36.4865625 2.59992187 35.578125 2.68359375 C33.08971084 2.92831575 33.08971084 2.92831575 31.08203125 3.51367188 C27.67906345 4.30854897 24.22489632 4.10240605 20.75 4.0625 C20.00492187 4.05798828 19.25984375 4.05347656 18.4921875 4.04882812 C16.6614236 4.03709246 14.83070127 4.0191585 13 4 C12.67 3.34 12.34 2.68 12 2 C9.1840151 1.53101037 9.1840151 1.53101037 5.9375 1.375 C4.28041016 1.26285156 4.28041016 1.26285156 2.58984375 1.1484375 C1.73519531 1.09945312 0.88054687 1.05046875 0 1 C0 0.67 0 0.34 0 0 Z " fill="#325864" transform="translate(317,524)"/>
<path d="M0 0 C5.12222565 1.75234035 9.54125041 4.61588207 14.125 7.4375 C14.93582031 7.92798828 15.74664063 8.41847656 16.58203125 8.92382812 C17.36191406 9.40142578 18.14179687 9.87902344 18.9453125 10.37109375 C19.65187988 10.80349365 20.35844727 11.23589355 21.08642578 11.68139648 C22.95672785 12.97018207 24.45354092 14.34299302 26 16 C25.34 16 24.68 16 24 16 C24 18.31 24 20.62 24 23 C21.44143793 20.54378042 19.14079314 17.97109437 16.875 15.25 C13.38378497 11.20714277 9.46717113 8.0020425 5.234375 4.76171875 C3.33930174 3.26752637 1.65700263 1.74846057 0 0 Z " fill="#135682" transform="translate(581,374)"/>
<path d="M0 0 C0.66 0 1.32 0 2 0 C2 0.66 2 1.32 2 2 C2.66 2.33 3.32 2.66 4 3 C3.7827124 3.63502441 3.5654248 4.27004883 3.34155273 4.92431641 C2.35951149 7.82000457 1.39838075 10.722225 0.4375 13.625 C0.09525391 14.62402344 -0.24699219 15.62304688 -0.59960938 16.65234375 C-2.96907869 23.71204968 -2.96907869 23.71204968 -2 31 C-2.66 31.33 -3.32 31.66 -4 32 C-4 31.34 -4 30.68 -4 30 C-4.99 29.67 -5.98 29.34 -7 29 C-6.39553488 23.26905851 -4.86247516 18.2301215 -2.9375 12.8125 C-2.37844472 11.23767838 -1.82484624 9.66090647 -1.27734375 8.08203125 C-1.03234131 7.39343018 -0.78733887 6.7048291 -0.53491211 5.99536133 C0.17262331 3.70037291 0.17262331 3.70037291 0 0 Z " fill="#D6E1E8" transform="translate(277,365)"/>
<path d="M0 0 C0.91644287 0.00523682 1.83288574 0.01047363 2.77709961 0.01586914 C4.26113281 0.02070312 4.26113281 0.02070312 5.77514648 0.02563477 C6.81606445 0.03401367 7.85698242 0.04239258 8.92944336 0.05102539 C10.49662109 0.05779297 10.49662109 0.05779297 12.09545898 0.06469727 C14.68600996 0.07652627 17.27644895 0.0930085 19.86694336 0.11352539 C19.86694336 0.44352539 19.86694336 0.77352539 19.86694336 1.11352539 C18.89756836 1.23727539 17.92819336 1.36102539 16.92944336 1.48852539 C15.91881836 1.69477539 14.90819336 1.90102539 13.86694336 2.11352539 C13.53694336 2.77352539 13.20694336 3.43352539 12.86694336 4.11352539 C2.80090101 4.22202166 -7.10418487 4.09025029 -17.13305664 3.11352539 C-17.13305664 2.78352539 -17.13305664 2.45352539 -17.13305664 2.11352539 C-16.1340332 2.05293945 -15.13500977 1.99235352 -14.10571289 1.92993164 C-12.81536133 1.84614258 -11.52500977 1.76235352 -10.19555664 1.67602539 C-8.9077832 1.59481445 -7.62000977 1.51360352 -6.29321289 1.42993164 C-3.2125297 1.12148252 -2.78923828 0.14844864 0 0 Z " fill="#034772" transform="translate(369.133056640625,535.886474609375)"/>
<path d="M0 0 C9.24 0 18.48 0 28 0 C28 0.99 28 1.98 28 3 C18.76 3 9.52 3 0 3 C0 2.01 0 1.02 0 0 Z " fill="#5A6D7F" transform="translate(525,408)"/>
<path d="M0 0 C3.1255831 1.45243497 5.78357887 3.21731305 8.5625 5.25 C13.80515377 8.97689396 19.29675043 12.03994842 25 15 C24.67 16.65 24.34 18.3 24 20 C18.34938751 17.17469376 14.07119418 13.54417993 9.4453125 9.2578125 C7.29921258 7.27626976 5.11320711 5.37574442 2.875 3.5 C1.92625 2.675 0.9775 1.85 0 1 C0 0.67 0 0.34 0 0 Z " fill="#F67A16" transform="translate(80,454)"/>
<path d="M0 0 C0.33 0 0.66 0 1 0 C1 13.53 1 27.06 1 41 C1.66 41 2.32 41 3 41 C3.33 40.34 3.66 39.68 4 39 C3.71872579 40.48117801 3.42466268 41.95993249 3.125 43.4375 C2.96257812 44.26121094 2.80015625 45.08492188 2.6328125 45.93359375 C2.42398438 46.61550781 2.21515625 47.29742187 2 48 C1.01 48.495 1.01 48.495 0 49 C0 32.83 0 16.66 0 0 Z " fill="#015EA1" transform="translate(202,350)"/>
<path d="M0 0 C5.44693314 -0.09688221 10.63904667 -0.12862175 16 1 C16 2.32 16 3.64 16 5 C10.39538469 4.57910004 5.27913453 4.08386889 0 2 C0 1.34 0 0.68 0 0 Z " fill="#054F84" transform="translate(260,520)"/>
<path d="M0 0 C0.66 0 1.32 0 2 0 C1.38801624 3.43950364 0.07941153 5.51564485 -2.0625 8.25 C-2.61035156 8.95640625 -3.15820312 9.6628125 -3.72265625 10.390625 C-4.14417969 10.92171875 -4.56570313 11.4528125 -5 12 C-6.32 11.34 -7.64 10.68 -9 10 C-9 9.34 -9 8.68 -9 8 C-9.66 8 -10.32 8 -11 8 C-10.67 7.01 -10.34 6.02 -10 5 C-9.34 5 -8.68 5 -8 5 C-8 5.66 -8 6.32 -8 7 C-4.00484052 5.66828017 -2.64788873 3.19104539 0 0 Z " fill="#315372" transform="translate(516,385)"/>
<path d="M0 0 C0.66 0 1.32 0 2 0 C0.5140084 4.59306496 -1.85014682 7.43569245 -5 11 C-7.46800047 9.84826645 -9.04783565 8.95216435 -11 7 C-11 6.01 -11 5.02 -11 4 C-10.113125 4.268125 -9.22625 4.53625 -8.3125 4.8125 C-4.80232899 5.40139941 -4.80232899 5.40139941 -2.25 2.5625 C-1.5075 1.716875 -0.765 0.87125 0 0 Z " fill="#32526E" transform="translate(516,424)"/>
<path d="M0 0 C0.66 0 1.32 0 2 0 C0.5140084 4.59306496 -1.85014682 7.43569245 -5 11 C-7.46800047 9.84826645 -9.04783565 8.95216435 -11 7 C-11 6.01 -11 5.02 -11 4 C-10.113125 4.268125 -9.22625 4.53625 -8.3125 4.8125 C-4.80232899 5.40139941 -4.80232899 5.40139941 -2.25 2.5625 C-1.5075 1.716875 -0.765 0.87125 0 0 Z " fill="#2F516E" transform="translate(516,405)"/>
<path d="M0 0 C-1.76505435 0.86604534 -3.53728074 1.71748642 -5.3125 2.5625 C-6.29863281 3.03816406 -7.28476562 3.51382812 -8.30078125 4.00390625 C-11 5 -11 5 -14 4 C-13.34 4 -12.68 4 -12 4 C-12 3.34 -12 2.68 -12 2 C-13.65 2.33 -15.3 2.66 -17 3 C-17.33 2.34 -17.66 1.68 -18 1 C-15.75152519 0.63627613 -13.50113812 0.28435904 -11.25 -0.0625 C-9.99703125 -0.25972656 -8.7440625 -0.45695312 -7.453125 -0.66015625 C-4.49983411 -0.95080818 -2.7397586 -0.98935727 0 0 Z " fill="#053257" transform="translate(513,478)"/>
<path d="M0 0 C2.35830786 3.53746179 3.97584017 7.18296639 5.6875 11.0625 C6.02072266 11.79533203 6.35394531 12.52816406 6.69726562 13.28320312 C7.52730376 15.16243708 8.27064895 17.07944523 9 19 C8.67 19.66 8.34 20.32 8 21 C6.4609776 18.44696285 4.94404807 15.88460065 3.4375 13.3125 C2.99986328 12.59126953 2.56222656 11.87003906 2.11132812 11.12695312 C-1.04983376 5.6758157 -1.04983376 5.6758157 -0.77734375 1.98046875 C-0.52082031 1.32691406 -0.26429688 0.67335938 0 0 Z " fill="#D9E2E7" transform="translate(285,456)"/>
<path d="M0 0 C4.455 0.99 4.455 0.99 9 2 C9 2.99 9 3.98 9 5 C5.61608307 6.06351675 4.4195366 6.21442982 1.1875 4.5625 C0.465625 4.046875 -0.25625 3.53125 -1 3 C-0.67 2.01 -0.34 1.02 0 0 Z " fill="#1C76B1" transform="translate(540,298)"/>
<path d="M0 0 C0.66 0.33 1.32 0.66 2 1 C1.09636719 1.74765625 0.19273437 2.4953125 -0.73828125 3.265625 C-1.92987918 4.26018705 -3.12127482 5.25499151 -4.3125 6.25 C-5.20485352 6.98669922 -5.20485352 6.98669922 -6.11523438 7.73828125 C-9.18405306 10.30991702 -11.61795159 12.7622643 -14 16 C-14.66 16 -15.32 16 -16 16 C-12.92538082 8.97229902 -6.45206991 3.87124194 0 0 Z " fill="#FACD32" transform="translate(309,161)"/>
<path d="M0 0 C3.96 0 7.92 0 12 0 C12 0.33 12 0.66 12 1 C17.61 1.33 23.22 1.66 29 2 C29 2.33 29 2.66 29 3 C21.74 3 14.48 3 7 3 C7 2.67 7 2.34 7 2 C4.69 1.67 2.38 1.34 0 1 C0 0.67 0 0.34 0 0 Z " fill="#FA9121" transform="translate(383,542)"/>
<path d="M0 0 C1.77049689 -0.05410687 3.54146849 -0.09284119 5.3125 -0.125 C6.29863281 -0.14820313 7.28476562 -0.17140625 8.30078125 -0.1953125 C11 0 11 0 14 2 C11.23547967 3.38226016 8.9538637 3.09525387 5.875 3.0625 C4.77929688 3.05347656 3.68359375 3.04445313 2.5546875 3.03515625 C1.29011719 3.01775391 1.29011719 3.01775391 0 3 C0 2.01 0 1.02 0 0 Z " fill="#0271A7" transform="translate(308,525)"/>
<path d="M0 0 C1.22589844 0.15275391 1.22589844 0.15275391 2.4765625 0.30859375 C3.41628906 0.43427734 3.41628906 0.43427734 4.375 0.5625 C3.26171875 2.08203125 3.26171875 2.08203125 1.375 3.5625 C-1.54296875 3.63671875 -1.54296875 3.63671875 -4.8125 3.25 C-5.89917969 3.13011719 -6.98585938 3.01023437 -8.10546875 2.88671875 C-8.93691406 2.77972656 -9.76835937 2.67273438 -10.625 2.5625 C-4.375 -0.5625 -4.375 -0.5625 0 0 Z " fill="#0C517A" transform="translate(307.625,528.4375)"/>
<path d="M0 0 C7.05889737 0.70588974 14.01204964 1.78213386 21 3 C21 3.33 21 3.66 21 4 C15.54145679 5.11699919 11.85883635 4.72706285 6.5625 3.0625 C5.32628906 2.68222656 4.09007812 2.30195312 2.81640625 1.91015625 C1.88699219 1.60980469 0.95757812 1.30945313 0 1 C0 0.67 0 0.34 0 0 Z " fill="#59745A" transform="translate(227,513)"/>
<path d="M0 0 C3.98381075 2.16264012 6.88983545 4.71211176 10 8 C9.01 8.99 8.02 9.98 7 11 C5.82750647 9.54634731 4.66216184 8.08692581 3.5 6.625 C2.52546875 5.40683594 2.52546875 5.40683594 1.53125 4.1640625 C0 2 0 2 0 0 Z " fill="#0D3E62" transform="translate(608,391)"/>
<path d="M0 0 C0.33 0.66 0.66 1.32 1 2 C0.22265625 3.7265625 0.22265625 3.7265625 -0.9375 5.625 C-1.618125 6.73875 -2.29875 7.8525 -3 9 C-4.98 9 -6.96 9 -9 9 C-8.06725891 7.87105124 -7.12859878 6.74699124 -6.1875 5.625 C-5.66542969 4.99851562 -5.14335937 4.37203125 -4.60546875 3.7265625 C-3 2 -3 2 0 0 Z " fill="#1F658E" transform="translate(299,348)"/>
<path d="M0 0 C0.33 0.99 0.66 1.98 1 3 C-1.97 5.97 -4.94 8.94 -8 12 C-8.33 11.01 -8.66 10.02 -9 9 C-6.03 6.03 -3.06 3.06 0 0 Z " fill="#F9AC27" transform="translate(289,152)"/>
<path d="M0 0 C-1.37285156 0.52400391 -1.37285156 0.52400391 -2.7734375 1.05859375 C-4.55621094 1.74115234 -4.55621094 1.74115234 -6.375 2.4375 C-8.15003906 3.11619141 -8.15003906 3.11619141 -9.9609375 3.80859375 C-12.86036193 4.89271912 -12.86036193 4.89271912 -15 6 C-15.99 5.34 -16.98 4.68 -18 4 C-15.75438718 3.13237686 -13.50473745 2.2807897 -11.25 1.4375 C-10.61578125 1.19064453 -9.9815625 0.94378906 -9.328125 0.68945312 C-5.88990821 -0.58197079 -3.47831118 -1.46686355 0 0 Z " fill="#204360" transform="translate(246,379)"/>
<path d="M0 0 C3.2826932 1.49076434 5.93077441 3.38620321 8.75 5.625 C9.94882813 6.57246094 9.94882813 6.57246094 11.171875 7.5390625 C11.77515625 8.02117187 12.3784375 8.50328125 13 9 C12.01 9.33 11.02 9.66 10 10 C8.33037631 8.52417192 6.6643694 7.04425109 5 5.5625 C4.071875 4.73878906 3.14375 3.91507812 2.1875 3.06640625 C1.465625 2.38449219 0.74375 1.70257813 0 1 C0 0.67 0 0.34 0 0 Z " fill="#F38F40" transform="translate(80,454)"/>
<path d="M0 0 C0.33 0 0.66 0 1 0 C1 1.65 1 3.3 1 5 C1.66 5 2.32 5 3 5 C3.33 4.34 3.66 3.68 4 3 C3.71872579 4.48117801 3.42466268 5.95993249 3.125 7.4375 C2.96257812 8.26121094 2.80015625 9.08492188 2.6328125 9.93359375 C2.42398438 10.61550781 2.21515625 11.29742187 2 12 C1.01 12.495 1.01 12.495 0 13 C0 8.71 0 4.42 0 0 Z " fill="#10649D" transform="translate(202,386)"/>
<path d="M0 0 C-0.59687434 3.34249629 -1.73603877 5.46436342 -4 8 C-4.66 8 -5.32 8 -6 8 C-5.62403791 5.21788056 -5.32681541 3.4120716 -3.5625 1.1875 C-2 0 -2 0 0 0 Z " fill="#264A69" transform="translate(518,385)"/>
<path d="M0 0 C1.89492188 0.01353516 1.89492188 0.01353516 3.828125 0.02734375 C4.79234375 0.03894531 5.7565625 0.05054688 6.75 0.0625 C6.75 0.3925 6.75 0.7225 6.75 1.0625 C5.46802734 1.15337891 5.46802734 1.15337891 4.16015625 1.24609375 C2.50306641 1.37177734 2.50306641 1.37177734 0.8125 1.5 C-0.28964844 1.58121094 -1.39179688 1.66242187 -2.52734375 1.74609375 C-5.16109903 1.76668084 -5.16109903 1.76668084 -6.25 3.0625 C-7.91617115 3.10313832 -9.58388095 3.105221 -11.25 3.0625 C-11.25 2.4025 -11.25 1.7425 -11.25 1.0625 C-7.49600202 -0.1414337 -3.91782588 -0.03627617 0 0 Z " fill="#044F7B" transform="translate(310.25,523.9375)"/>
<path d="M0 0 C5.28137429 0.51525603 8.57221156 2.25477117 13 5 C12.01 5.495 12.01 5.495 11 6 C9 5 7 4 5 3 C4.01 3.495 4.01 3.495 3 4 C1.97895449 3.02149805 0.9793879 2.02019573 0 1 C0 0.67 0 0.34 0 0 Z " fill="#EE8523" transform="translate(362,141)"/>
<path d="M0 0 C1.485 0.99 1.485 0.99 3 2 C3.1875 5.625 3.1875 5.625 3 9 C0.9375 7.3125 0.9375 7.3125 -1 5 C-0.75 2.25 -0.75 2.25 0 0 Z " fill="#0F679C" transform="translate(602,388)"/>
<path d="M0 0 C-1.32 1.65 -2.64 3.3 -4 5 C-4.33 3.68 -4.66 2.36 -5 1 C-7.97 1 -10.94 1 -14 1 C-14 0.67 -14 0.34 -14 0 C-12.04235617 -0.19456705 -10.08384679 -0.38044247 -8.125 -0.5625 C-6.48917969 -0.71912109 -6.48917969 -0.71912109 -4.8203125 -0.87890625 C-2 -1 -2 -1 0 0 Z " fill="#2D5A75" transform="translate(371,327)"/>
<path d="M0 0 C1.41196151 2.30234022 2.02997047 3.59471753 1.828125 6.32421875 C1.63734375 7.10410156 1.4465625 7.88398438 1.25 8.6875 C0.97929687 9.86892578 0.97929687 9.86892578 0.703125 11.07421875 C0 13 0 13 -2 14 C-1.85866501 12.22880197 -1.71176792 10.45804713 -1.5625 8.6875 C-1.48128906 7.70136719 -1.40007812 6.71523437 -1.31640625 5.69921875 C-1 3 -1 3 0 0 Z " fill="#F7B331" transform="translate(282,195)"/>
<path d="M0 0 C-3.8362435 2.43273978 -5.32939745 3.14061021 -9.875 2.1875 C-10.90625 1.795625 -11.9375 1.40375 -13 1 C-13 0.67 -13 0.34 -13 0 C-11.58456585 -0.19658808 -10.16755969 -0.38187546 -8.75 -0.5625 C-7.96109375 -0.66691406 -7.1721875 -0.77132813 -6.359375 -0.87890625 C-3.99467126 -1.00027349 -2.2488963 -0.69633257 0 0 Z " fill="#255177" transform="translate(513,478)"/>
<path d="M0 0 C2.30143236 3.45214853 2.13833854 4.23479324 1.625 8.1875 C1.51414062 9.08855469 1.40328125 9.98960937 1.2890625 10.91796875 C1.19367188 11.60503906 1.09828125 12.29210937 1 13 C0.34 13 -0.32 13 -1 13 C-1.02708567 11.39592672 -1.04643483 9.7917215 -1.0625 8.1875 C-1.07410156 7.29417969 -1.08570313 6.40085937 -1.09765625 5.48046875 C-1 3 -1 3 0 0 Z " fill="#185B82" transform="translate(452,454)"/>
<path d="M0 0 C-0.375 2.9375 -0.375 2.9375 -1 6 C-1.99 6.495 -1.99 6.495 -3 7 C-2.67 5.35 -2.34 3.7 -2 2 C-3.65 2.66 -5.3 3.32 -7 4 C-7.66 3.34 -8.32 2.68 -9 2 C-3.375 0 -3.375 0 0 0 Z " fill="#1F4E6F" transform="translate(278,366)"/>
<path d="M0 0 C1.65 0 3.3 0 5 0 C5.66 1.32 6.32 2.64 7 4 C4.69 3.67 2.38 3.34 0 3 C0 2.01 0 1.02 0 0 Z " fill="#246FAB" transform="translate(545,288)"/>
<path d="M0 0 C2 2 2 2 2.08203125 3.875 C1.99308594 4.57625 1.90414063 5.2775 1.8125 6 C1.69841797 7.051875 1.69841797 7.051875 1.58203125 8.125 C1 10 1 10 -2 12 C-1.85831863 10.56208484 -1.71148957 9.1246763 -1.5625 7.6875 C-1.48128906 6.88699219 -1.40007812 6.08648437 -1.31640625 5.26171875 C-1 3 -1 3 0 0 Z " fill="#256487" transform="translate(368,437)"/>
<path d="M0 0 C0.66 0.33 1.32 0.66 2 1 C1.01 2.175625 1.01 2.175625 0 3.375 C-2.20201441 5.71512812 -2.20201441 5.71512812 -2 8 C-3.32 7.34 -4.64 6.68 -6 6 C-4 4 -2 2 0 0 Z " fill="#122B46" transform="translate(318,382)"/>
<path d="M0 0 C1.4540625 0.0309375 1.4540625 0.0309375 2.9375 0.0625 C2.31875 0.248125 1.7 0.43375 1.0625 0.625 C-2.11852866 2.77687233 -2.25701947 5.43783763 -3.0625 9.0625 C-3.3925 9.0625 -3.7225 9.0625 -4.0625 9.0625 C-4.16015625 2.91015625 -4.16015625 2.91015625 -4.0625 1.0625 C-3.0625 0.0625 -3.0625 0.0625 0 0 Z " fill="#39A7DA" transform="translate(483.0625,201.9375)"/>
<path d="M0 0 C4.30764815 1.56641751 8.06171464 3.68336156 12 6 C11.01 6.66 10.02 7.32 9 8 C7.49712782 6.85793642 5.99776716 5.71125043 4.5 4.5625 C3.6646875 3.92441406 2.829375 3.28632813 1.96875 2.62890625 C1.3190625 2.09136719 0.669375 1.55382812 0 1 C0 0.67 0 0.34 0 0 Z " fill="#4B81AC" transform="translate(581,374)"/>
<path d="M0 0 C0.66 0 1.32 0 2 0 C2 4.29 2 8.58 2 13 C1.01 12.34 0.02 11.68 -1 11 C-1 10.34 -1 9.68 -1 9 C-0.34 9 0.32 9 1 9 C0.67 6.03 0.34 3.06 0 0 Z " fill="#2782B0" transform="translate(402,384)"/>
<path d="M0 0 C3.37503669 1.1858237 5.64722731 2.27573689 8 5 C7.21625 4.79375 6.4325 4.5875 5.625 4.375 C4.325625 4.189375 4.325625 4.189375 3 4 C2.34 4.66 1.68 5.32 1 6 C0.67 4.02 0.34 2.04 0 0 Z " fill="#155E8D" transform="translate(599,385)"/>
<path d="M0 0 C0 3 0 3 -1.3125 4.38671875 C-2.875 5.59114583 -4.4375 6.79557292 -6 8 C-5.65120368 4.74456771 -4.97866739 3.98126893 -2.4375 1.75 C-1.633125 1.1725 -0.82875 0.595 0 0 Z " fill="#0C4C71" transform="translate(272,400)"/>
<path d="M0 0 C4.6875 3.515625 4.6875 3.515625 6 5 C6 6.32 6 7.64 6 9 C5.34 9 4.68 9 4 9 C0 2.25 0 2.25 0 0 Z " fill="#2A7DAB" transform="translate(374,346)"/>
<path d="M0 0 C0.99 0.33 1.98 0.66 3 1 C1.35 2.98 -0.3 4.96 -2 7 C-2.66 6.34 -3.32 5.68 -4 5 C-2.68 3.35 -1.36 1.7 0 0 Z " fill="#0C3756" transform="translate(216,389)"/>
<path d="M0 0 C0.66 0 1.32 0 2 0 C1.25 3.375 1.25 3.375 0 7 C-1.98 7.99 -1.98 7.99 -4 9 C-2.68 6.03 -1.36 3.06 0 0 Z " fill="#155175" transform="translate(485,326)"/>
</svg>
