<?xml version="1.0" encoding="UTF-8"?>
<svg version="1.1" xmlns="http://www.w3.org/2000/svg" width="200" height="200">
<path d="M0 0 C66 0 132 0 200 0 C200 66 200 132 200 200 C134 200 68 200 0 200 C0 134 0 68 0 0 Z " fill="#042C58" transform="translate(0,0)"/>
<path d="M0 0 C0.66 0 1.32 0 2 0 C2.33 0.66 2.66 1.32 3 2 C4.65 2 6.3 2 8 2 C8 3.32 8 4.64 8 6 C9.4166747 7.7511573 9.4166747 7.7511573 11 9 C6.25 12 6.25 12 4 12 C3.67 14.31 3.34 16.62 3 19 C2.01 19.33 1.02 19.66 0 20 C-0.33 20.99 -0.66 21.98 -1 23 C-1.66 23.66 -2.32 24.32 -3 25 C-3.6425235 27.06874034 -3.6425235 27.06874034 -4 29 C-3.34 29.33 -2.68 29.66 -2 30 C-2.61875 30.886875 -3.2375 31.77375 -3.875 32.6875 C-5.6582468 35.46726706 -6.85988432 37.9304578 -8 41 C-8.495 41.495 -8.495 41.495 -9 42 C-7.68 42.33 -6.36 42.66 -5 43 C-5.33 45.64 -5.66 48.28 -6 51 C-5.34 51.33 -4.68 51.66 -4 52 C-3.54296875 53.92578125 -3.54296875 53.92578125 -3.1875 56.3125 C-2.27333774 60.91958759 -0.80677994 62.21455126 3 65 C6.13186813 70.84615385 6.13186813 70.84615385 5.75 74.1875 C5.5025 74.785625 5.255 75.38375 5 76 C4.814375 76.7425 4.62875 77.485 4.4375 78.25 C4.293125 78.8275 4.14875 79.405 4 80 C4.99 80 5.98 80 7 80 C6.67 78.68 6.34 77.36 6 76 C8.3125 75.75 8.3125 75.75 11 76 C12.625 77.6875 12.625 77.6875 14 80 C14.556875 80.9075 15.11375 81.815 15.6875 82.75 C16.120625 83.4925 16.55375 84.235 17 85 C17 84.34 17 83.68 17 83 C20.00988272 82.41947755 22.92889402 81.94010254 26 82 C28.0625 83.9375 28.0625 83.9375 29 86 C29.99 85.34 30.98 84.68 32 84 C35.6875 85.375 35.6875 85.375 39 87 C39 86.34 39 85.68 39 85 C39.66 85 40.32 85 41 85 C41 85.99 41 86.98 41 88 C39.02 88 37.04 88 35 88 C35 88.66 35 89.32 35 90 C35.94875 89.814375 36.8975 89.62875 37.875 89.4375 C41 89 41 89 43 90 C43.495 88.515 43.495 88.515 44 87 C45.485 86.505 45.485 86.505 47 86 C47.99 84.02 47.99 84.02 49 82 C52.3 82.33 55.6 82.66 59 83 C59.99 81.02 59.99 81.02 61 79 C62.63254249 77.0706316 63.67246545 76.11910347 66.0625 75.25 C69.14073297 73.26404325 69.23792762 70.42932572 70 67 C69.34 66.67 68.68 66.34 68 66 C68 65.34 68 64.68 68 64 C66.515 63.505 66.515 63.505 65 63 C68.2830098 61.3584951 71.42545033 62.48111376 75 63 C75.15855469 62.37351563 75.31710938 61.74703125 75.48046875 61.1015625 C76.18573422 58.63118511 76.90723306 56.32695078 78 54 C80.625 52.6875 80.625 52.6875 83 52 C83.66179847 50.01954441 83.66179847 50.01954441 84 48 C84.99 47.34 85.98 46.68 87 46 C88.49743119 44.50256881 88.33202693 43.01175761 88.5625 40.9375 C88.7790625 38.9884375 88.7790625 38.9884375 89 37 C89.99 37 90.98 37 92 37 C91.71831703 38.95979427 91.42433283 40.91782378 91.125 42.875 C90.96257812 43.96554688 90.80015625 45.05609375 90.6328125 46.1796875 C90 49 90 49 88 51 C86.515 50.505 86.515 50.505 85 50 C85 50.66 85 51.32 85 52 C86.98 52.495 86.98 52.495 89 53 C89 54.98 89 56.96 89 59 C90.32 59 91.64 59 93 59 C92.34 60.65 91.68 62.3 91 64 C89.68 64 88.36 64 87 64 C87.33 64.66 87.66 65.32 88 66 C87.01 66.495 87.01 66.495 86 67 C86 67.928125 86 68.85625 86 69.8125 C86 71.875 86 73.9375 86 76 C84.68 76.33 83.36 76.66 82 77 C82 77.66 82 78.32 82 79 C80.375 80.125 80.375 80.125 78 81 C74.75 80.125 74.75 80.125 72 79 C72 79.99 72 80.98 72 82 C72.66 82 73.32 82 74 82 C74 86 74 86 72.5625 87.75 C67.93045556 90.00953387 62.81335051 89.60445017 58 88 C58 88.66 58 89.32 58 90 C59.98 90.495 59.98 90.495 62 91 C61.67 91.66 61.34 92.32 61 93 C60.34 93 59.68 93 59 93 C59 92.34 59 91.68 59 91 C58.01 91.495 58.01 91.495 57 92 C57.33 93.32 57.66 94.64 58 96 C56.54207116 96.05399736 55.08357288 96.09279177 53.625 96.125 C52.81289062 96.14820313 52.00078125 96.17140625 51.1640625 96.1953125 C49 96 49 96 47 94 C44.21081851 92.89459074 44.21081851 92.89459074 42 93 C49.03253813 97.25569915 49.03253813 97.25569915 57 99 C56.505 100.485 56.505 100.485 56 102 C54.67696283 102.3721042 53.34262065 102.70630173 52 103 C51.67 103.66 51.34 104.32 51 105 C49.07286182 106.76164986 47.03176334 108.35729773 45 110 C47.25987714 113.38981571 48.33531169 113.62574188 52 115 C52.66 115.66 53.32 116.32 54 117 C53.53846154 123.46153846 53.53846154 123.46153846 51 126 C48.4375 126.1875 48.4375 126.1875 46 126 C45 125 45 125 44.90234375 122.49609375 C44.91394531 121.48675781 44.92554688 120.47742188 44.9375 119.4375 C44.94652344 118.42558594 44.95554688 117.41367188 44.96484375 116.37109375 C44.97644531 115.58863281 44.98804688 114.80617188 45 114 C44.01 114 43.02 114 42 114 C40.87507156 117.04439606 40.87507156 117.04439606 40.5625 120.5625 C40 124 40 124 38 126 C36.35 126 34.7 126 33 126 C33 122.04 33 118.08 33 114 C33.99 113.67 34.98 113.34 36 113 C33.525 113.495 33.525 113.495 31 114 C29.99118706 117.13225836 30.04406727 119.096708 30.9375 122.25 C31.288125 123.4875 31.63875 124.725 32 126 C31.34 126 30.68 126 30 126 C29.67 125.01 29.34 124.02 29 123 C26.98491642 122.26676204 26.98491642 122.26676204 25 122 C25 123.32 25 124.64 25 126 C24.34 126 23.68 126 23 126 C23 124.68 23 123.36 23 122 C22.62875 122.66 22.2575 123.32 21.875 124 C20.946875 124.99 20.946875 124.99 20 126 C18.02 126 16.04 126 14 126 C14 122.04 14 118.08 14 114 C16.97 114.33 19.94 114.66 23 115 C23.185625 113.824375 23.185625 113.824375 23.375 112.625 C24 110 24 110 26 108 C27.32 108 28.64 108 30 108 C30.495 106.515 30.495 106.515 31 105 C31.66 105 32.32 105 33 105 C33 104.34 33 103.68 33 103 C30.525 103.495 30.525 103.495 28 104 C27.67 103.34 27.34 102.68 27 102 C24.98177083 102.09765625 22.96354167 102.1953125 20.9453125 102.29296875 C20.30335937 102.19628906 19.66140625 102.09960938 19 102 C18.34 101.01 17.68 100.02 17 99 C17.59167969 98.90203125 18.18335938 98.8040625 18.79296875 98.703125 C23.87042139 97.74230199 27.17513744 96.7014799 31 93 C30.360625 93.495 29.72125 93.99 29.0625 94.5 C24.95976517 96.50950277 21.48556418 96.26385672 17 96 C17 95.01 17 94.02 17 93 C17.33 93.66 17.66 94.32 18 95 C20.97 94.505 20.97 94.505 24 94 C22.35 94 20.7 94 19 94 C19 93.34 19 92.68 19 92 C17.02 92 15.04 92 13 92 C13 91 13 90 13 89 C11.4221875 89.0928125 11.4221875 89.0928125 9.8125 89.1875 C5.79785599 88.99005849 4.0716772 88.52961652 1 86 C0.1875 83.8125 0.1875 83.8125 0 82 C0.99 82 1.98 82 3 82 C3 81.01 3 80.02 3 79 C2.11248047 79.17789063 2.11248047 79.17789063 1.20703125 79.359375 C-5.31414335 80.42318815 -5.31414335 80.42318815 -8.9375 78.1875 C-9.9584375 77.1046875 -9.9584375 77.1046875 -11 76 C-11.66 75.34 -12.32 74.68 -13 74 C-12.34 73.01 -11.68 72.02 -11 71 C-10.86693843 69.01633305 -10.86693843 69.01633305 -12 67 C-13.97956942 65.30911778 -15.97945196 63.64169528 -18 62 C-18.495 60.515 -18.495 60.515 -19 59 C-17.02 58.505 -17.02 58.505 -15 58 C-15.99 57.01 -16.98 56.02 -18 55 C-16.68 54.34 -15.36 53.68 -14 53 C-14.639375 52.505 -15.27875 52.01 -15.9375 51.5 C-18.81515269 48.01193613 -18.70230736 45.46538959 -19 41 C-18.01 41 -17.02 41 -16 41 C-16 40.34 -16 39.68 -16 39 C-16.66 39 -17.32 39 -18 39 C-17.67 38.01 -17.34 37.02 -17 36 C-16.01 36.33 -15.02 36.66 -14 37 C-13.67 36.01 -13.34 35.02 -13 34 C-13 34.66 -13 35.32 -13 36 C-12.01 35.34 -11.02 34.68 -10 34 C-9.63702064 32.02252878 -9.63702064 32.02252878 -9.8125 29.875 C-9.874375 28.59625 -9.93625 27.3175 -10 26 C-10.99 28.31 -11.98 30.62 -13 33 C-13.99 33 -14.98 33 -16 33 C-15.814375 32.443125 -15.62875 31.88625 -15.4375 31.3125 C-14.92448835 28.600867 -15.3359276 26.65628961 -16 24 C-15.34 23.67 -14.68 23.34 -14 23 C-13.34 22.34 -12.68 21.68 -12 21 C-11.34 21.66 -10.68 22.32 -10 23 C-9.86722656 22.22914062 -9.73445313 21.45828125 -9.59765625 20.6640625 C-9.42105469 19.66117188 -9.24445312 18.65828125 -9.0625 17.625 C-8.80146484 16.12839844 -8.80146484 16.12839844 -8.53515625 14.6015625 C-8 12 -8 12 -7 10 C-6.34 10.66 -5.68 11.32 -5 12 C-5 11.01 -5 10.02 -5 9 C-4.34 9 -3.68 9 -3 9 C-1.76078698 6.02588876 -0.69941596 3.14737182 0 0 Z M7 45 C5.125 48.875 5.125 48.875 4 50 C6.475 50.99 6.475 50.99 9 52 C9 52.66 9 53.32 9 54 C6.03 54.66 3.06 55.32 0 56 C0 55.34 0 54.68 0 54 C-1.32 53.34 -2.64 52.68 -4 52 C-3.67 51.01 -3.34 50.02 -3 49 C-2.34 49.33 -1.68 49.66 -1 50 C-1.33 48.68 -1.66 47.36 -2 46 C4.75 45 4.75 45 7 45 Z " fill="#5F7997" transform="translate(63,37)"/>
<path d="M0 0 C2.31 0 4.62 0 7 0 C8.76462683 3.08809695 9 4.23312136 9 8 C11.07553648 8.5534764 12.84365964 9 15 9 C14.34 7.35 13.68 5.7 13 4 C14.32 3.34 15.64 2.68 17 2 C17.66 3.32 18.32 4.64 19 6 C17.68 5.34 16.36 4.68 15 4 C15.66 4.99 16.32 5.98 17 7 C17.125 9.6875 17.125 9.6875 17 12 C18.32 12 19.64 12 21 12 C21.66 10.02 22.32 8.04 23 6 C23.66 6.66 24.32 7.32 25 8 C24.67 8.66 24.34 9.32 24 10 C24.763125 9.9175 25.52625 9.835 26.3125 9.75 C29 10 29 10 30.8125 12 C31.4003125 12.99 31.4003125 12.99 32 14 C31.21625 14.61875 30.4325 15.2375 29.625 15.875 C27.03162353 17.89858661 27.03162353 17.89858661 25 20 C24.71125 19.030625 24.4225 18.06125 24.125 17.0625 C23.35785318 13.89335797 23.35785318 13.89335797 21 13 C21.31935856 15.87422707 21.92102911 17.86359573 23.375 20.375 C27.68143841 23.04089045 32.15910026 21.76786686 37 21 C36.52433594 21.92039062 36.52433594 21.92039062 36.0390625 22.859375 C35.04371515 24.90994021 34.47588139 26.77922017 34 29 C34.598125 29.144375 35.19625 29.28875 35.8125 29.4375 C37.56150404 29.8872439 39.28677023 30.42892341 41 31 C40.67 32.32 40.34 33.64 40 35 C40 34.01 40 33.02 40 32 C39.34 32 38.68 32 38 32 C37.67 33.32 37.34 34.64 37 36 C35.02 36 33.04 36 31 36 C31.495 39.96 31.495 39.96 32 44 C34.97 44 37.94 44 41 44 C41 44.66 41 45.32 41 46 C40.01 46 39.02 46 38 46 C38 46.99 38 47.98 38 49 C38.99 49 39.98 49 41 49 C40.67 49.99 40.34 50.98 40 52 C36.7 50.02 33.4 48.04 30 46 C29.505 46.99 29.505 46.99 29 48 C29.01160156 47.13117188 29.02320312 46.26234375 29.03515625 45.3671875 C29.04417969 44.21476562 29.05320312 43.06234375 29.0625 41.875 C29.07410156 40.73804688 29.08570312 39.60109375 29.09765625 38.4296875 C29.005327 35.1870844 28.61389906 32.18067388 28 29 C27.67 29.66 27.34 30.32 27 31 C26.236875 30.690625 25.47375 30.38125 24.6875 30.0625 C20.43014314 28.20162109 20.43014314 28.20162109 16 29 C16.05800781 29.65226562 16.11601563 30.30453125 16.17578125 30.9765625 C16.5904942 39.01014479 16.5904942 39.01014479 13.8125 42.5 C11.18999945 44.8311116 9.34286754 46.04489499 6 47 C6.495 49.475 6.495 49.475 7 52 C4.92446352 52.5534764 3.15634036 53 1 53 C0.030625 53.185625 -0.93875 53.37125 -1.9375 53.5625 C-6.27245064 54.23153044 -10.41178203 53.67542668 -14.7421875 53.15625 C-15.48726562 53.1046875 -16.23234375 53.053125 -17 53 C-17.33 53.33 -17.66 53.66 -18 54 C-17.71395102 55.67542976 -17.38218767 57.34385343 -17 59 C-16.34 59 -15.68 59 -15 59 C-15 59.66 -15 60.32 -15 61 C-14.278125 61.28875 -13.55625 61.5775 -12.8125 61.875 C-11.11647926 62.5534083 -9.43326357 63.26740381 -7.78125 64.046875 C-1.70535621 66.12906332 6.58335073 66.18688834 12.6875 64.06640625 C14.49316642 63.10714597 16.25279798 62.06202476 18 61 C18.99 61.495 18.99 61.495 20 62 C19.625 64.4375 19.625 64.4375 19 67 C18.01 67.495 18.01 67.495 17 68 C17.33 68.598125 17.66 69.19625 18 69.8125 C19 72 19 72 19 75 C18.34 75 17.68 75 17 75 C16.71125 74.030625 16.4225 73.06125 16.125 72.0625 C15.35785318 68.89335797 15.35785318 68.89335797 13 68 C12.67 68.66 12.34 69.32 12 70 C11.01 69.505 11.01 69.505 10 69 C10.495 72.96 10.495 72.96 11 77 C10.34 77 9.68 77 9 77 C8.34 74.36 7.68 71.72 7 69 C7.66 68.67 8.32 68.34 9 68 C4.05 68 -0.9 68 -6 68 C-6.33 70.97 -6.66 73.94 -7 77 C-7.66 77 -8.32 77 -9 77 C-9 75.68 -9 74.36 -9 73 C-9.99 73 -10.98 73 -12 73 C-12 73.66 -12 74.32 -12 75 C-13.65 74.67 -15.3 74.34 -17 74 C-17 73.34 -17 72.68 -17 72 C-17.61875 71.9175 -18.2375 71.835 -18.875 71.75 C-21 71 -21 71 -22.5 69.375 C-23.11284018 66.46400914 -22.56698733 65.77603453 -21.125 63.25 C-20.42375 62.1775 -19.7225 61.105 -19 60 C-19.66 60 -20.32 60 -21 60 C-21 59.34 -21 58.68 -21 58 C-23.87420123 60.71604715 -23.87420123 60.71604715 -26 64 C-26.99 63.67 -27.98 63.34 -29 63 C-28.01 62.505 -28.01 62.505 -27 62 C-27.495 60.515 -27.495 60.515 -28 59 C-28.66 58.67 -29.32 58.34 -30 58 C-30.33 58.66 -30.66 59.32 -31 60 C-31.495 58.515 -31.495 58.515 -32 57 C-26.555 56.505 -26.555 56.505 -21 56 C-21.639375 54.7625 -22.27875 53.525 -22.9375 52.25 C-26.46538926 45.42182724 -27.13053794 38.37171748 -25 30.9375 C-24.67 29.968125 -24.34 28.99875 -24 28 C-24.99 28 -25.98 28 -27 28 C-26.814375 28.78375 -26.62875 29.5675 -26.4375 30.375 C-26 33 -26 33 -27 35 C-29.97 35 -32.94 35 -36 35 C-35.67 34.01 -35.34 33.02 -35 32 C-32.69 32.66 -30.38 33.32 -28 34 C-28 32.68 -28 31.36 -28 30 C-30.31 29.67 -32.62 29.34 -35 29 C-34 27 -34 27 -31 26 C-30.67 25.01 -30.34 24.02 -30 23 C-30.99 22.67 -31.98 22.34 -33 22 C-31.02 21.01 -29.04 20.02 -27 19 C-27.99 18.34 -28.98 17.68 -30 17 C-27.29120665 15.64560332 -24.99066732 15.93498549 -22 16 C-23.32 14.68 -24.64 13.36 -26 12 C-25.01 11.34 -24.02 10.68 -23 10 C-22.38125 10.78375 -21.7625 11.5675 -21.125 12.375 C-19.10141339 14.96837647 -19.10141339 14.96837647 -17 17 C-17.33 17.66 -17.66 18.32 -18 19 C-16.68 18.34 -15.36 17.68 -14 17 C-14 16.34 -14 15.68 -14 15 C-14.66 14.67 -15.32 14.34 -16 14 C-15.34 14 -14.68 14 -14 14 C-14 13.01 -14 12.02 -14 11 C-15.65 10.34 -17.3 9.68 -19 9 C-19 8.01 -19 7.02 -19 6 C-17 6 -17 6 -15.375 7.5 C-14.694375 8.2425 -14.694375 8.2425 -14 9 C-14.33 7.35 -14.66 5.7 -15 4 C-14.195625 3.690625 -13.39125 3.38125 -12.5625 3.0625 C-10.10919595 2.23664655 -10.10919595 2.23664655 -9 1 C-6.66702567 0.95907063 -4.33294775 0.95758277 -2 1 C-3.32 1.33 -4.64 1.66 -6 2 C-6 2.99 -6 3.98 -6 5 C-4.68 4.67 -3.36 4.34 -2 4 C-2 4.66 -2 5.32 -2 6 C-1.34 6 -0.68 6 0 6 C-0.2784375 5.071875 -0.2784375 5.071875 -0.5625 4.125 C-1 2 -1 2 0 0 Z " fill="#072E58" transform="translate(98,40)"/>
<path d="M0 0 C0.66 0 1.32 0 2 0 C3.9451 2.91765 4.45276317 4.62537285 5 8 C5.66 8 6.32 8 7 8 C7 9.32 7 10.64 7 12 C7.33 11.34 7.66 10.68 8 10 C8.99 10.33 9.98 10.66 11 11 C11.5745952 14.73486879 12 18.21293268 12 22 C12.99 21.67 13.98 21.34 15 21 C15 22.32 15 23.64 15 25 C15.99 24.34 16.98 23.68 18 23 C17.85816304 24.75032844 17.71136571 26.50025534 17.5625 28.25 C17.44068359 29.71179688 17.44068359 29.71179688 17.31640625 31.203125 C17 34 17 34 16.4375 36.09375 C15.92672096 38.31928725 16.0999347 39.99956465 16.4375 42.25 C16.623125 43.4875 16.80875 44.725 17 46 C16.195625 46.2475 15.39125 46.495 14.5625 46.75 C11.828919 47.72238859 11.828919 47.72238859 11.1875 50.125 C11.0946875 51.053125 11.0946875 51.053125 11 52 C9.35 52.33 7.7 52.66 6 53 C5.814375 54.918125 5.814375 54.918125 5.625 56.875 C5.25 60.75 5.25 60.75 3 63 C0.27087796 62.77257316 -2.31111418 62.45810647 -5 62 C-6.7325 61.7215625 -6.7325 61.7215625 -8.5 61.4375 C-9.325 61.293125 -10.15 61.14875 -11 61 C-11.33 61.99 -11.66 62.98 -12 64 C-11.01 64.33 -10.02 64.66 -9 65 C-7.3125 67.0625 -7.3125 67.0625 -6 69 C-7.65 69 -9.3 69 -11 69 C-11.33 70.65 -11.66 72.3 -12 74 C-14.34178753 70.48731871 -15 67.24893746 -15 63 C-16.051875 63.45375 -17.10375 63.9075 -18.1875 64.375 C-19.45596821 64.92218236 -20.72707971 65.46325605 -22 66 C-22.75539062 66.35449219 -23.51078125 66.70898438 -24.2890625 67.07421875 C-30.78999796 69.29427884 -38.75106729 69.13712645 -45.203125 66.87890625 C-47.56051999 65.69010563 -49.79634211 64.45182167 -52 63 C-52 62.34 -52 61.68 -52 61 C-52.66 61 -53.32 61 -54 61 C-54.66 59.02 -55.32 57.04 -56 55 C-52.12172508 53.90923518 -49.01749341 54.22042711 -45.0625 54.8046875 C-41.22317733 55.16825972 -37.45498749 54.72749375 -34 53 C-34 53.66 -34 54.32 -34 55 C-33.01 54.34 -32.02 53.68 -31 53 C-31.33 51.68 -31.66 50.36 -32 49 C-31.16855469 48.51080078 -31.16855469 48.51080078 -30.3203125 48.01171875 C-29.59585938 47.57472656 -28.87140625 47.13773438 -28.125 46.6875 C-27.40570313 46.25824219 -26.68640625 45.82898438 -25.9453125 45.38671875 C-23.73153667 43.98247625 -23.73153667 43.98247625 -22 41 C-21.75849227 38.48415109 -21.75849227 38.48415109 -21.875 35.8125 C-21.89304688 34.91144531 -21.91109375 34.01039062 -21.9296875 33.08203125 C-21.95289063 32.39496094 -21.97609375 31.70789063 -22 31 C-19.875 29.8125 -19.875 29.8125 -17 29 C-13.8125 30.4375 -13.8125 30.4375 -11 32 C-10.34 31.67 -9.68 31.34 -9 31 C-6.55935413 36.64399358 -6.80710901 41.97751478 -7 48 C-6.23300781 48.29648438 -5.46601563 48.59296875 -4.67578125 48.8984375 C-1.92542825 50.03069961 0.48539389 51.41939045 3 53 C3.495 52.01 3.495 52.01 4 51 C3.01 51 2.02 51 1 51 C1 50.01 1 49.02 1 48 C1.99 48 2.98 48 4 48 C4 47.34 4 46.68 4 46 C3.36191406 46.08378906 2.72382813 46.16757813 2.06640625 46.25390625 C1.24011719 46.35574219 0.41382813 46.45757812 -0.4375 46.5625 C-1.26121094 46.66691406 -2.08492187 46.77132812 -2.93359375 46.87890625 C-3.95646484 46.93884766 -3.95646484 46.93884766 -5 47 C-6 46 -6 46 -6.09765625 44.15234375 C-6.06510417 42.1015625 -6.03255208 40.05078125 -6 38 C-4.02 38 -2.04 38 0 38 C0.185625 37.0409375 0.185625 37.0409375 0.375 36.0625 C0.58125 35.381875 0.7875 34.70125 1 34 C1.66 33.67 2.32 33.34 3 33 C0.69 32.67 -1.62 32.34 -4 32 C-3.46292236 28.13304097 -2.41445371 26.02939501 0 23 C-0.72445312 23.21398437 -1.44890625 23.42796875 -2.1953125 23.6484375 C-9.89593117 25.55819093 -9.89593117 25.55819093 -13.1015625 23.9375 C-14.79442252 22.33289335 -16.01078227 21.1184191 -17 19 C-16.640625 16.7890625 -16.640625 16.7890625 -16 15 C-13.525 15.495 -13.525 15.495 -11 16 C-11.33 16.66 -11.66 17.32 -12 18 C-11.505 18.99 -11.505 18.99 -11 20 C-10.2575 19.34 -9.515 18.68 -8.75 18 C-6 16 -6 16 -2 16 C-2 15.01 -2 14.02 -2 13 C-0.68 13.33 0.64 13.66 2 14 C2 13.34 2 12.68 2 12 C1.113125 11.87625 0.22625 11.7525 -0.6875 11.625 C-3.70387502 11.05587264 -6.20326054 10.23385564 -9 9 C-9 8.34 -9 7.68 -9 7 C-8.01 6.34 -7.02 5.68 -6 5 C-5.27617533 2.94074861 -5.27617533 2.94074861 -5 1 C-3.68 1 -2.36 1 -1 1 C-0.67 0.67 -0.34 0.34 0 0 Z " fill="#12345B" transform="translate(135,38)"/>
<path d="M0 0 C0.33 0.66 0.66 1.32 1 2 C1.99 2.33 2.98 2.66 4 3 C3.01 4.485 3.01 4.485 2 6 C3.32 6.99 4.64 7.98 6 9 C3.69 9.66 1.38 10.32 -1 11 C-0.34 11.33 0.32 11.66 1 12 C1 13.65 1 15.3 1 17 C-0.65 17.33 -2.3 17.66 -4 18 C-1.69 18.33 0.62 18.66 3 19 C3 20.32 3 21.64 3 23 C0.69 22.67 -1.62 22.34 -4 22 C-4.33 22.66 -4.66 23.32 -5 24 C-2.03 24 0.94 24 4 24 C4 21.69 4 19.38 4 17 C4.99 17 5.98 17 7 17 C6.835 17.969375 6.67 18.93875 6.5 19.9375 C5.1550595 29.76743276 6.5606799 37.12135979 11 46 C7.04 46 3.08 46 -1 46 C-0.67 46.66 -0.34 47.32 0 48 C1.32 48 2.64 48 4 48 C3.67 49.32 3.34 50.64 3 52 C3.66 52.33 4.32 52.66 5 53 C5.268125 52.195625 5.53625 51.39125 5.8125 50.5625 C6.204375 49.716875 6.59625 48.87125 7 48 C8.485 47.505 8.485 47.505 10 47 C10 47.66 10 48.32 10 49 C10.66 49 11.32 49 12 49 C11.30058404 52.14737182 10.23921302 55.02588876 9 58 C9.804375 58.45375 10.60875 58.9075 11.4375 59.375 C14 61 14 61 15 63 C17.02463255 63.65213292 17.02463255 63.65213292 19 64 C19 63.34 19 62.68 19 62 C19.99 62 20.98 62 22 62 C22 63.32 22 64.64 22 66 C22.66 66 23.32 66 24 66 C23.98839844 65.36191406 23.97679687 64.72382812 23.96484375 64.06640625 C23.95582031 63.24011719 23.94679687 62.41382813 23.9375 61.5625 C23.92589844 60.73878906 23.91429687 59.91507813 23.90234375 59.06640625 C24 57 24 57 25 56 C27.86267567 55.92674832 30.700719 55.90761795 33.5625 55.9375 C34.36880859 55.94201172 35.17511719 55.94652344 36.00585938 55.95117188 C38.00393756 55.96299482 40.00197783 55.98093086 42 56 C41.49855469 56.41894531 40.99710938 56.83789062 40.48046875 57.26953125 C39.99191406 57.84058594 39.50335938 58.41164062 39 59 C39.23477199 62.64541845 39.23477199 62.64541845 40 66 C41.41577477 64.81575674 41.41577477 64.81575674 41.0625 61.4375 C41.041875 60.303125 41.02125 59.16875 41 58 C43.475 57.505 43.475 57.505 46 57 C47.4606285 59.64738916 48 60.89448334 48 64 C48.66 64 49.32 64 50 64 C49.01 61.36 48.02 58.72 47 56 C47.99 56 48.98 56 50 56 C49.505 54.02 49.505 54.02 49 52 C50.98 50.68 52.96 49.36 55 48 C54.79375 48.9075 54.5875 49.815 54.375 50.75 C53.9872755 54.11027897 54.19588033 55.24075815 56 58 C56.495 57.01 56.495 57.01 57 56 C57.99 55.67 58.98 55.34 60 55 C59.319375 54.4225 58.63875 53.845 57.9375 53.25 C57.298125 52.5075 56.65875 51.765 56 51 C56.25 48.75 56.25 48.75 57 47 C59.31 47.99 61.62 48.98 64 50 C64 50.66 64 51.32 64 52 C65.485 52.495 65.485 52.495 67 53 C66.6272393 56.12347756 66.14919652 59.06195984 65 62 C62.125 63.25 62.125 63.25 59 64 C58.4225 64.86625 57.845 65.7325 57.25 66.625 C55 69 55 69 52.63671875 69.1484375 C50.85007531 69.05018504 49.06360804 68.94867008 47.27734375 68.84375 C46.52582031 68.8953125 45.77429688 68.946875 45 69 C42.91783124 71.3549963 42.91783124 71.3549963 42 74 C41.34 74 40.68 74 40 74 C39.67 74.66 39.34 75.32 39 76 C36.36 76 33.72 76 31 76 C30.67 75.01 30.34 74.02 30 73 C32.31 73.33 34.62 73.66 37 74 C37 73.01 37 72.02 37 71 C36.34 71 35.68 71 35 71 C35 71.66 35 72.32 35 73 C33.824375 72.690625 33.824375 72.690625 32.625 72.375 C31.75875 72.25125 30.8925 72.1275 30 72 C29.34 72.66 28.68 73.32 28 74 C25.5625 73.1875 25.5625 73.1875 23 72 C22.67 71.01 22.34 70.02 22 69 C19.03 69 16.06 69 13 69 C13.33 70.32 13.66 71.64 14 73 C10.99543848 71.49771924 10.33893704 68.96032161 9.25 65.875 C7.40347545 63.10521317 5.12489677 62.81519046 2 62 C2.33 63.32 2.66 64.64 3 66 C2.01 66 1.02 66 0 66 C0.3403125 64.2365625 0.3403125 64.2365625 0.6875 62.4375 C1.24316886 57.88745788 0.31602831 55.01444907 -2 51 C-2.86625 50.38125 -3.7325 49.7625 -4.625 49.125 C-7.8373582 46.25078477 -7.70854887 43.99188385 -7.95703125 39.828125 C-7.97121094 39.22484375 -7.98539063 38.6215625 -8 38 C-8.99 37.67 -9.98 37.34 -11 37 C-10.67 34.36 -10.34 31.72 -10 29 C-11.32 29 -12.64 29 -14 29 C-14 27 -14 27 -12.5 25.375 C-11.7575 24.694375 -11.7575 24.694375 -11 24 C-11.66 23.67 -12.32 23.34 -13 23 C-12.38125 22.5875 -11.7625 22.175 -11.125 21.75 C-8.89543281 19.91388584 -7.93290475 18.71390472 -7 16 C-7.33 15.01 -7.66 14.02 -8 13 C-7.67 12.34 -7.34 11.68 -7 11 C-7.66 10.67 -8.32 10.34 -9 10 C-8.4225 9.773125 -7.845 9.54625 -7.25 9.3125 C-4.4336339 7.66961977 -2.91922886 5.60466773 -1 3 C-2.32 2.67 -3.64 2.34 -5 2 C-3.35 2 -1.7 2 0 2 C0 1.34 0 0.68 0 0 Z M-6 32 C-5.67 33.32 -5.34 34.64 -5 36 C-5.99 35.67 -6.98 35.34 -8 35 C-8 35.99 -8 36.98 -8 38 C-6.02 38.99 -6.02 38.99 -4 40 C-4 40.66 -4 41.32 -4 42 C-1.03 41.34 1.94 40.68 5 40 C5 39.34 5 38.68 5 38 C2.525 37.01 2.525 37.01 0 36 C0.495 35.54625 0.99 35.0925 1.5 34.625 C3.22609337 33.12364481 3.22609337 33.12364481 3 31 C-0.04200046 31 -2.99532806 31.55486342 -6 32 Z " fill="#0D2F56" transform="translate(67,51)"/>
<path d="M0 0 C1.11375 0.515625 2.2275 1.03125 3.375 1.5625 C4.035 1.2325 4.695 0.9025 5.375 0.5625 C8.74821171 8.99552928 7.54940518 15.39974382 4.375 23.5625 C1.375 22.5625 1.375 22.5625 -0.625 21.5625 C-0.625 20.9025 -0.625 20.2425 -0.625 19.5625 C-2.935 19.8925 -5.245 20.2225 -7.625 20.5625 C-7.625 21.2225 -7.625 21.8825 -7.625 22.5625 C-8.12 23.0575 -8.12 23.0575 -8.625 23.5625 C-5.985 24.2225 -3.345 24.8825 -0.625 25.5625 C-0.295 24.9025 0.035 24.2425 0.375 23.5625 C1.365 24.2225 2.355 24.8825 3.375 25.5625 C-1.06688146 31.52397249 -5.39494731 35.40583514 -12.625 37.5625 C-22.11679595 38.81921787 -29.58920627 37.85666999 -37.625 32.5625 C-37.625 31.9025 -37.625 31.2425 -37.625 30.5625 C-38.285 30.5625 -38.945 30.5625 -39.625 30.5625 C-40.285 28.5825 -40.945 26.6025 -41.625 24.5625 C-37.74672508 23.47173518 -34.64249341 23.78292711 -30.6875 24.3671875 C-26.84817733 24.73075972 -23.07998749 24.28999375 -19.625 22.5625 C-19.625 23.2225 -19.625 23.8825 -19.625 24.5625 C-18.635 23.9025 -17.645 23.2425 -16.625 22.5625 C-16.955 21.2425 -17.285 19.9225 -17.625 18.5625 C-16.79355469 18.07330078 -16.79355469 18.07330078 -15.9453125 17.57421875 C-15.22085938 17.13722656 -14.49640625 16.70023438 -13.75 16.25 C-13.03070313 15.82074219 -12.31140625 15.39148438 -11.5703125 14.94921875 C-9.35653667 13.54497625 -9.35653667 13.54497625 -7.625 10.5625 C-7.38349227 8.04665109 -7.38349227 8.04665109 -7.5 5.375 C-7.51804688 4.47394531 -7.53609375 3.57289062 -7.5546875 2.64453125 C-7.57789063 1.95746094 -7.60109375 1.27039063 -7.625 0.5625 C-4.21657709 -1.53210351 -4.02447272 -1.5959116 0 0 Z " fill="#072D57" transform="translate(120.625,68.4375)"/>
<path d="M0 0 C0.33 0.66 0.66 1.32 1 2 C2.65 1.34 4.3 0.68 6 0 C6.20625 0.78375 6.4125 1.5675 6.625 2.375 C7.80676612 5.30916286 7.80676612 5.30916286 11.125 6.3125 C12.07375 6.539375 13.0225 6.76625 14 7 C14 6.01 14 5.02 14 4 C16 5 18 6 20 7 C18.42655961 10.14688078 15.72148049 11.79965407 13 14 C15.25987714 17.38981571 16.33531169 17.62574188 20 19 C20.66 19.66 21.32 20.32 22 21 C21.53846154 27.46153846 21.53846154 27.46153846 19 30 C16.4375 30.1875 16.4375 30.1875 14 30 C13 29 13 29 12.90234375 26.49609375 C12.91974609 24.98208984 12.91974609 24.98208984 12.9375 23.4375 C12.94652344 22.42558594 12.95554687 21.41367188 12.96484375 20.37109375 C12.97644531 19.58863281 12.98804687 18.80617187 13 18 C12.01 18 11.02 18 10 18 C8.87507156 21.04439606 8.87507156 21.04439606 8.5625 24.5625 C8 28 8 28 6 30 C4.35 30 2.7 30 1 30 C1 26.04 1 22.08 1 18 C1.99 17.67 2.98 17.34 4 17 C2.35 17.33 0.7 17.66 -1 18 C-2.00881294 21.13225836 -1.95593273 23.096708 -1.0625 26.25 C-0.711875 27.4875 -0.36125 28.725 0 30 C-0.66 30 -1.32 30 -2 30 C-2.33 29.01 -2.66 28.02 -3 27 C-5.01508358 26.26676204 -5.01508358 26.26676204 -7 26 C-7 27.32 -7 28.64 -7 30 C-7.66 30 -8.32 30 -9 30 C-9 28.68 -9 27.36 -9 26 C-9.37125 26.66 -9.7425 27.32 -10.125 28 C-11.053125 28.99 -11.053125 28.99 -12 30 C-13.98 30 -15.96 30 -18 30 C-18 26.04 -18 22.08 -18 18 C-15.03 18.33 -12.06 18.66 -9 19 C-8.87625 18.21625 -8.7525 17.4325 -8.625 16.625 C-8 14 -8 14 -6 12 C-4.68 12 -3.36 12 -2 12 C-1.67 11.01 -1.34 10.02 -1 9 C-0.34 9 0.32 9 1 9 C0.67 8.360625 0.34 7.72125 0 7.0625 C-1 5 -1 5 -1 4 C-1.99 3.67 -2.98 3.34 -4 3 C-2.68 2.01 -1.36 1.02 0 0 Z " fill="#0C315A" transform="translate(95,133)"/>
<path d="M0 0 C2.31 0 4.62 0 7 0 C8.76462683 3.08809695 9 4.23312136 9 8 C11.07553648 8.5534764 12.84365964 9 15 9 C14.34 7.35 13.68 5.7 13 4 C14.32 3.34 15.64 2.68 17 2 C17.66 3.32 18.32 4.64 19 6 C17.68 5.34 16.36 4.68 15 4 C15.66 4.99 16.32 5.98 17 7 C17.125 9.6875 17.125 9.6875 17 12 C18.32 12 19.64 12 21 12 C21.66 10.02 22.32 8.04 23 6 C23.66 6.66 24.32 7.32 25 8 C24.67 8.66 24.34 9.32 24 10 C24.763125 9.9175 25.52625 9.835 26.3125 9.75 C29 10 29 10 30.8125 12 C31.4003125 12.99 31.4003125 12.99 32 14 C31.21625 14.61875 30.4325 15.2375 29.625 15.875 C27.03162353 17.89858661 27.03162353 17.89858661 25 20 C24.71125 19.030625 24.4225 18.06125 24.125 17.0625 C23.35785318 13.89335797 23.35785318 13.89335797 21 13 C21.31935856 15.87422707 21.92102911 17.86359573 23.375 20.375 C27.68143841 23.04089045 32.15910026 21.76786686 37 21 C36.52433594 21.92039062 36.52433594 21.92039062 36.0390625 22.859375 C35.04371515 24.90994021 34.47588139 26.77922017 34 29 C34.598125 29.144375 35.19625 29.28875 35.8125 29.4375 C37.56150404 29.8872439 39.28677023 30.42892341 41 31 C40.67 32.32 40.34 33.64 40 35 C40 34.01 40 33.02 40 32 C39.34 32 38.68 32 38 32 C37.67 33.32 37.34 34.64 37 36 C35.02 36 33.04 36 31 36 C31.495 39.96 31.495 39.96 32 44 C34.97 44 37.94 44 41 44 C41 44.66 41 45.32 41 46 C40.01 46 39.02 46 38 46 C38 46.99 38 47.98 38 49 C38.99 49 39.98 49 41 49 C40.67 49.99 40.34 50.98 40 52 C36.7 50.02 33.4 48.04 30 46 C29.505 46.99 29.505 46.99 29 48 C29.04640625 47.18917969 29.0928125 46.37835938 29.140625 45.54296875 C29.45289683 35.96291521 28.5015429 27.44099103 21.875 20.0625 C15.75735125 14.63618469 8.57656401 12.33124501 0.4609375 12.6640625 C-3.57433582 13.21490933 -7.22717481 14.51092994 -11 16 C-11.99 16.33 -12.98 16.66 -14 17 C-14 16.34 -14 15.68 -14 15 C-14.66 14.67 -15.32 14.34 -16 14 C-15.34 14 -14.68 14 -14 14 C-14 13.01 -14 12.02 -14 11 C-16.475 10.01 -16.475 10.01 -19 9 C-19 8.01 -19 7.02 -19 6 C-17 6 -17 6 -15.375 7.5 C-14.92125 7.995 -14.4675 8.49 -14 9 C-14.33 7.35 -14.66 5.7 -15 4 C-14.195625 3.690625 -13.39125 3.38125 -12.5625 3.0625 C-10.10919595 2.23664655 -10.10919595 2.23664655 -9 1 C-6.66702567 0.95907063 -4.33294775 0.95758277 -2 1 C-3.32 1.33 -4.64 1.66 -6 2 C-6 2.99 -6 3.98 -6 5 C-4.68 4.67 -3.36 4.34 -2 4 C-2 4.66 -2 5.32 -2 6 C-1.34 6 -0.68 6 0 6 C-0.185625 5.38125 -0.37125 4.7625 -0.5625 4.125 C-1 2 -1 2 0 0 Z " fill="#809EBA" transform="translate(98,40)"/>
<path d="M0 0 C3.3125 -0.25 3.3125 -0.25 7 0 C8.9375 2 8.9375 2 10 4 C9.01 4.33 8.02 4.66 7 5 C7.05800781 5.65226562 7.11601563 6.30453125 7.17578125 6.9765625 C7.59140506 15.02778954 7.59140506 15.02778954 5.1875 18.625 C0.58404897 22.05502234 -3.44753575 21.5251017 -9 21 C-9 21.66 -9 22.32 -9 23 C-10.010625 22.9175 -11.02125 22.835 -12.0625 22.75 C-16.92043937 23.05844059 -18.90748028 24.48152633 -23 27 C-23.99 27 -24.98 27 -26 27 C-26.33 26.01 -26.66 25.02 -27 24 C-25 22 -25 22 -22.375 21.875 C-21.59125 21.91625 -20.8075 21.9575 -20 22 C-20 21.01 -20 20.02 -20 19 C-20.99 18.67 -21.98 18.34 -23 18 C-9.07036247 7.21934968 -9.07036247 7.21934968 -1 5 C-0.67 3.35 -0.34 1.7 0 0 Z " fill="#F0F5F8" transform="translate(107,64)"/>
<path d="M0 0 C0.66 0 1.32 0 2 0 C2.33 0.66 2.66 1.32 3 2 C4.65 2 6.3 2 8 2 C8 3.32 8 4.64 8 6 C9.4166747 7.7511573 9.4166747 7.7511573 11 9 C6.25 12 6.25 12 4 12 C3.67 14.31 3.34 16.62 3 19 C2.01 19.33 1.02 19.66 0 20 C-0.33 20.99 -0.66 21.98 -1 23 C-1.66 23.66 -2.32 24.32 -3 25 C-3.6425235 27.06874034 -3.6425235 27.06874034 -4 29 C-3.34 29.33 -2.68 29.66 -2 30 C-2.928125 31.3303125 -2.928125 31.3303125 -3.875 32.6875 C-5.65397741 35.46061184 -6.91083602 37.9140354 -8 41 C-8.66 41 -9.32 41 -10 41 C-9.67 41.99 -9.34 42.98 -9 44 C-9.99 44 -10.98 44 -12 44 C-12 42.68 -12 41.36 -12 40 C-12.66 40 -13.32 40 -14 40 C-14 38.02 -14 36.04 -14 34 C-13.67 34.66 -13.34 35.32 -13 36 C-12.01 35.34 -11.02 34.68 -10 34 C-9.63702064 32.02252878 -9.63702064 32.02252878 -9.8125 29.875 C-9.874375 28.59625 -9.93625 27.3175 -10 26 C-10.99 28.31 -11.98 30.62 -13 33 C-13.99 33 -14.98 33 -16 33 C-15.814375 32.443125 -15.62875 31.88625 -15.4375 31.3125 C-14.92448835 28.600867 -15.3359276 26.65628961 -16 24 C-15.34 23.67 -14.68 23.34 -14 23 C-13.34 22.34 -12.68 21.68 -12 21 C-11.34 21.66 -10.68 22.32 -10 23 C-9.86722656 22.22914062 -9.73445313 21.45828125 -9.59765625 20.6640625 C-9.42105469 19.66117188 -9.24445312 18.65828125 -9.0625 17.625 C-8.88847656 16.62726562 -8.71445312 15.62953125 -8.53515625 14.6015625 C-8 12 -8 12 -7 10 C-6.34 10.66 -5.68 11.32 -5 12 C-5 11.01 -5 10.02 -5 9 C-4.34 9 -3.68 9 -3 9 C-1.76078698 6.02588876 -0.69941596 3.14737182 0 0 Z " fill="#8197B4" transform="translate(63,37)"/>
<path d="M0 0 C2 3 2 3 2.9375 5.5625 C3.87138318 8.30504053 3.87138318 8.30504053 7 10 C7.6875 12.625 7.6875 12.625 8 15 C8.66 15 9.32 15 10 15 C10 15.66 10 16.32 10 17 C10.721875 17.28875 11.44375 17.5775 12.1875 17.875 C13.88352074 18.5534083 15.56673643 19.26740381 17.21875 20.046875 C23.29464379 22.12906332 31.58335073 22.18688834 37.6875 20.06640625 C39.49316642 19.10714597 41.25279798 18.06202476 43 17 C43.66 17.33 44.32 17.66 45 18 C44.625 20.4375 44.625 20.4375 44 23 C43.01 23.495 43.01 23.495 42 24 C42.495 24.8971875 42.495 24.8971875 43 25.8125 C44 28 44 28 44 31 C43.34 31 42.68 31 42 31 C41.71125 30.030625 41.4225 29.06125 41.125 28.0625 C40.35785318 24.89335797 40.35785318 24.89335797 38 24 C37.67 24.66 37.34 25.32 37 26 C36.34 25.67 35.68 25.34 35 25 C35.495 28.96 35.495 28.96 36 33 C35.34 33 34.68 33 34 33 C33.34 30.36 32.68 27.72 32 25 C32.66 24.67 33.32 24.34 34 24 C29.05 24 24.1 24 19 24 C18.67 26.97 18.34 29.94 18 33 C17.34 33 16.68 33 16 33 C16 31.68 16 30.36 16 29 C15.01 29 14.02 29 13 29 C13 29.66 13 30.32 13 31 C11.35 30.67 9.7 30.34 8 30 C8 29.34 8 28.68 8 28 C7.38125 27.9175 6.7625 27.835 6.125 27.75 C4 27 4 27 2.5 25.375 C1.88715982 22.46400914 2.43301267 21.77603453 3.875 19.25 C4.57625 18.1775 5.2775 17.105 6 16 C5.34 16 4.68 16 4 16 C4 15.34 4 14.68 4 14 C1.12579877 16.71604715 1.12579877 16.71604715 -1 20 C-1.99 19.67 -2.98 19.34 -4 19 C-3.34 18.67 -2.68 18.34 -2 18 C-2.33 17.01 -2.66 16.02 -3 15 C-3.66 14.67 -4.32 14.34 -5 14 C-5.33 14.66 -5.66 15.32 -6 16 C-6.33 15.01 -6.66 14.02 -7 13 C-1.555 12.505 -1.555 12.505 4 12 C3.34 10.7625 2.68 9.525 2 8.25 C0.27370354 5.01319413 0 3.86790003 0 0 Z " fill="#325379" transform="translate(73,84)"/>
<path d="M0 0 C0.66 0 1.32 0 2 0 C5.44419134 11.52164009 5.44419134 11.52164009 5 17 C4.21625 16.979375 3.4325 16.95875 2.625 16.9375 C0.01885039 16.81315937 0.01885039 16.81315937 -2 18 C-3.32 18 -4.64 18 -6 18 C-6.66 18.66 -7.32 19.32 -8 20 C-9.23921302 17.02588876 -10.30058404 14.14737182 -11 11 C-11.33 12.32 -11.66 13.64 -12 15 C-13.32 15 -14.64 15 -16 15 C-16.33 14.34 -16.66 13.68 -17 13 C-17.33 13.66 -17.66 14.32 -18 15 C-20.64 15 -23.28 15 -26 15 C-26 11.04 -26 7.08 -26 3 C-23.69 3 -21.38 3 -19 3 C-19 3.66 -19 4.32 -19 5 C-20.65 5 -22.3 5 -24 5 C-24 5.99 -24 6.98 -24 8 C-23.195625 7.979375 -22.39125 7.95875 -21.5625 7.9375 C-19 8 -19 8 -18 9 C-17.34 7.68 -16.68 6.36 -16 5 C-15.34 5 -14.68 5 -14 5 C-14 4.34 -14 3.68 -14 3 C-13.01 3 -12.02 3 -11 3 C-10.34 5.31 -9.68 7.62 -9 10 C-8.01 7.69 -7.02 5.38 -6 3 C-3.83125748 3.50603992 -2.00032373 3.99983813 0 5 C0 3.35 0 1.7 0 0 Z " fill="#1B3C5F" transform="translate(144,148)"/>
<path d="M0 0 C2.31 0 4.62 0 7 0 C7 0.66 7 1.32 7 2 C5.02 2 3.04 2 1 2 C1 2.99 1 3.98 1 5 C2.98 5 4.96 5 7 5 C7.33 3.35 7.66 1.7 8 0 C10.31 0 12.62 0 15 0 C15.33 1.65 15.66 3.3 16 5 C16.66 5 17.32 5 18 5 C18.33 3.35 18.66 1.7 19 0 C21.97 0 24.94 0 28 0 C28 3.96 28 7.92 28 12 C27.67 12 27.34 12 27 12 C27 9.69 27 7.38 27 5 C26.34 5 25.68 5 25 5 C25.04125 5.78375 25.0825 6.5675 25.125 7.375 C25 10 25 10 23 12 C22.01 11.979375 21.02 11.95875 20 11.9375 C19.01 11.958125 18.02 11.97875 17 12 C16.01 13.485 16.01 13.485 15 15 C12.36 14.67 9.72 14.34 7 14 C7 14.66 7 15.32 7 16 C6.01 15.67 5.02 15.34 4 15 C4 14.34 4 13.68 4 13 C2.68 12.67 1.36 12.34 0 12 C0 8.04 0 4.08 0 0 Z " fill="#0A2E53" transform="translate(47,151)"/>
<path d="M0 0 C2.31 0 4.62 0 7 0 C8.76462683 3.08809695 9 4.23312136 9 8 C9.66 8 10.32 8 11 8 C11 8.99 11 9.98 11 11 C13.475 11.495 13.475 11.495 16 12 C16 12.33 16 12.66 16 13 C14.80503906 12.96519531 13.61007813 12.93039063 12.37890625 12.89453125 C0.40400548 12.64706253 0.40400548 12.64706253 -11 16 C-11.99 16.33 -12.98 16.66 -14 17 C-14 16.34 -14 15.68 -14 15 C-14.66 14.67 -15.32 14.34 -16 14 C-15.34 14 -14.68 14 -14 14 C-14 13.01 -14 12.02 -14 11 C-16.475 10.01 -16.475 10.01 -19 9 C-19 8.01 -19 7.02 -19 6 C-17 6 -17 6 -15.375 7.5 C-14.92125 7.995 -14.4675 8.49 -14 9 C-14.33 7.35 -14.66 5.7 -15 4 C-14.195625 3.690625 -13.39125 3.38125 -12.5625 3.0625 C-10.10919595 2.23664655 -10.10919595 2.23664655 -9 1 C-6.66702567 0.95907063 -4.33294775 0.95758277 -2 1 C-3.32 1.33 -4.64 1.66 -6 2 C-6 2.99 -6 3.98 -6 5 C-4.68 4.67 -3.36 4.34 -2 4 C-2 4.66 -2 5.32 -2 6 C-1.34 6 -0.68 6 0 6 C-0.185625 5.38125 -0.37125 4.7625 -0.5625 4.125 C-1 2 -1 2 0 0 Z " fill="#2E4F75" transform="translate(98,40)"/>
<path d="M0 0 C5.75 1.875 5.75 1.875 8 3 C8 3.66 8 4.32 8 5 C8.99 5.33 9.98 5.66 11 6 C10.6272393 9.12347756 10.14919652 12.06195984 9 15 C6.125 16.25 6.125 16.25 3 17 C2.401875 17.886875 1.80375 18.77375 1.1875 19.6875 C-1 22 -1 22 -3.0703125 22.20703125 C-7.51166313 21.81859629 -11.71122223 21.18268817 -15 18 C-15.3125 14.3125 -15.3125 14.3125 -15 11 C-13.35 10.67 -11.7 10.34 -10 10 C-8.5393715 12.64738916 -8 13.89448334 -8 17 C-7.34 17 -6.68 17 -6 17 C-6.99 14.36 -7.98 11.72 -9 9 C-8.01 9 -7.02 9 -6 9 C-6.33 7.68 -6.66 6.36 -7 5 C-5.02 3.68 -3.04 2.36 -1 1 C-1.20625 1.9075 -1.4125 2.815 -1.625 3.75 C-2.0127245 7.11027897 -1.80411967 8.24075815 0 11 C0.33 10.34 0.66 9.68 1 9 C1.99 8.67 2.98 8.34 4 8 C3.34 7.4225 2.68 6.845 2 6.25 C0 4 0 4 0 0 Z " fill="#0C2F56" transform="translate(123,98)"/>
<path d="M0 0 C1.58206057 0.00667536 3.16410534 0.0186375 4.74609375 0.03515625 C5.55240234 0.03966797 6.35871094 0.04417969 7.18945312 0.04882812 C9.18753131 0.06065107 11.18557158 0.07858711 13.18359375 0.09765625 C12.68214844 0.51660156 12.18070313 0.93554688 11.6640625 1.3671875 C11.17550781 1.93824219 10.68695313 2.50929688 10.18359375 3.09765625 C10.41836574 6.7430747 10.41836574 6.7430747 11.18359375 10.09765625 C12.17359375 9.76765625 13.16359375 9.43765625 14.18359375 9.09765625 C15.17359375 10.08765625 16.16359375 11.07765625 17.18359375 12.09765625 C15.90963485 14.13599049 14.57297452 16.13617751 13.18359375 18.09765625 C12.52359375 18.09765625 11.86359375 18.09765625 11.18359375 18.09765625 C10.85359375 18.75765625 10.52359375 19.41765625 10.18359375 20.09765625 C7.54359375 20.09765625 4.90359375 20.09765625 2.18359375 20.09765625 C1.85359375 19.10765625 1.52359375 18.11765625 1.18359375 17.09765625 C3.49359375 17.42765625 5.80359375 17.75765625 8.18359375 18.09765625 C8.18359375 17.10765625 8.18359375 16.11765625 8.18359375 15.09765625 C7.52359375 15.09765625 6.86359375 15.09765625 6.18359375 15.09765625 C6.18359375 15.75765625 6.18359375 16.41765625 6.18359375 17.09765625 C5.00796875 16.78828125 5.00796875 16.78828125 3.80859375 16.47265625 C2.50921875 16.28703125 2.50921875 16.28703125 1.18359375 16.09765625 C0.52359375 16.75765625 -0.13640625 17.41765625 -0.81640625 18.09765625 C-1.14640625 15.45765625 -1.47640625 12.81765625 -1.81640625 10.09765625 C-2.47640625 10.09765625 -3.13640625 10.09765625 -3.81640625 10.09765625 C-5.30747082 7.11552712 -4.93582092 4.38155967 -4.81640625 1.09765625 C-3.81640625 0.09765625 -3.81640625 0.09765625 0 0 Z " fill="#0E2E53" transform="translate(95.81640625,106.90234375)"/>
<path d="M0 0 C0.66 0 1.32 0 2 0 C3.9451 2.91765 4.45276317 4.62537285 5 8 C5.66 8 6.32 8 7 8 C7 9.32 7 10.64 7 12 C7.33 11.34 7.66 10.68 8 10 C8.99 10.33 9.98 10.66 11 11 C11.5745952 14.73486879 12 18.21293268 12 22 C12.99 21.67 13.98 21.34 15 21 C14.67 22.65 14.34 24.3 14 26 C13.34 25.67 12.68 25.34 12 25 C11.34 25.99 10.68 26.98 10 28 C8.35 27.34 6.7 26.68 5 26 C5 25.34 5 24.68 5 24 C6.32 24.33 7.64 24.66 9 25 C7.18777466 22.9375006 7.18777466 22.9375006 5 21 C4.01 21 3.02 21 2 21 C2 20.34 2 19.68 2 19 C-0.31 19 -2.62 19 -5 19 C-4.67 18.01 -4.34 17.02 -4 16 C-3.34 16 -2.68 16 -2 16 C-2 15.01 -2 14.02 -2 13 C-0.68 13.33 0.64 13.66 2 14 C2 13.34 2 12.68 2 12 C1.113125 11.87625 0.22625 11.7525 -0.6875 11.625 C-3.70387502 11.05587264 -6.20326054 10.23385564 -9 9 C-9 8.34 -9 7.68 -9 7 C-8.01 6.34 -7.02 5.68 -6 5 C-5.27617533 2.94074861 -5.27617533 2.94074861 -5 1 C-3.68 1 -2.36 1 -1 1 C-0.67 0.67 -0.34 0.34 0 0 Z " fill="#7B92AE" transform="translate(135,38)"/>
<path d="M0 0 C0.33 0.99 0.66 1.98 1 3 C1.928125 3 2.85625 3 3.8125 3 C5.875 3 7.9375 3 10 3 C11.33981486 2.6937566 12.67511887 2.36548445 14 2 C15.2077558 5.62326739 14.54311128 6.64146369 13 10 C14.32 9.67 15.64 9.34 17 9 C17.33 10.65 17.66 12.3 18 14 C17.34 13.34 16.68 12.68 16 12 C13.93125966 11.3574765 13.93125966 11.3574765 12 11 C11.67 12.32 11.34 13.64 11 15 C10.34 14.67 9.68 14.34 9 14 C6.6505947 14.60760482 4.31470912 15.27129528 2 16 C2.33 16.66 2.66 17.32 3 18 C2.01 18.33 1.02 18.66 0 19 C-3 13.25 -3 13.25 -3 11 C-4.32 11 -5.64 11 -7 11 C-7.66 12.32 -8.32 13.64 -9 15 C-8.69106068 13.3743193 -8.3777305 11.74947252 -8.0625 10.125 C-7.80146484 8.76761719 -7.80146484 8.76761719 -7.53515625 7.3828125 C-7 5 -7 5 -6 3 C-4.02 3 -2.04 3 0 3 C0 2.01 0 1.02 0 0 Z " fill="#819BB2" transform="translate(166,148)"/>
<path d="M0 0 C4.1424367 1.38081223 5.32203099 3.59825558 8 7 C7.34 7 6.68 7 6 7 C6 7.99 6 8.98 6 10 C6.99 10.33 7.98 10.66 9 11 C9 11.99 9 12.98 9 14 C8.67 14.33 8.34 14.66 8 15 C8.66 15 9.32 15 10 15 C10.33 13.35 10.66 11.7 11 10 C10.34 10 9.68 10 9 10 C9 9.34 9 8.68 9 8 C10.32 8.33 11.64 8.66 13 9 C13.33 11.31 13.66 13.62 14 16 C13.195625 16.2475 12.39125 16.495 11.5625 16.75 C8.828919 17.72238859 8.828919 17.72238859 8.1875 20.125 C8.0946875 21.053125 8.0946875 21.053125 8 22 C6.68 21.67 5.36 21.34 4 21 C3.67 19.68 3.34 18.36 3 17 C2.67 17.66 2.34 18.32 2 19 C1.34 18.67 0.68 18.34 0 18 C0.33 17.34 0.66 16.68 1 16 C0.04287109 16.12568359 0.04287109 16.12568359 -0.93359375 16.25390625 C-1.75988281 16.35574219 -2.58617187 16.45757812 -3.4375 16.5625 C-4.26121094 16.66691406 -5.08492187 16.77132812 -5.93359375 16.87890625 C-6.61550781 16.91886719 -7.29742187 16.95882812 -8 17 C-9 16 -9 16 -9.09765625 14.15234375 C-9.06510417 12.1015625 -9.03255208 10.05078125 -9 8 C-7.02 8 -5.04 8 -3 8 C-2.814375 7.0409375 -2.814375 7.0409375 -2.625 6.0625 C-2.41875 5.381875 -2.2125 4.70125 -2 4 C-1.34 3.67 -0.68 3.34 0 3 C0 2.01 0 1.02 0 0 Z " fill="#103156" transform="translate(138,68)"/>
<path d="M0 0 C0.66 0.33 1.32 0.66 2 1 C2.34375 2.85546875 2.34375 2.85546875 2.5 5.1875 C2.84415806 9.05927815 3.63829521 12.34041837 5 16 C5.34976758 17.32911682 5.69096017 18.66082739 6 20 C5.34 20 4.68 20 4 20 C6.1953742 25.99004174 6.1953742 25.99004174 11 30 C11.33 29.34 11.66 28.68 12 28 C12.33 29.98 12.66 31.96 13 34 C11.35 33.67 9.7 33.34 8 33 C8.33 34.32 8.66 35.64 9 37 C12.96 37.33 16.92 37.66 21 38 C21.33 37.01 21.66 36.02 22 35 C22.33 36.32 22.66 37.64 23 39 C16.72307692 41.21538462 16.72307692 41.21538462 13.0625 40.125 C12.381875 39.75375 11.70125 39.3825 11 39 C11.7763932 42.0745356 11.7763932 42.0745356 14 44 C10.00544473 43.38545304 7.25533664 41.29353263 4 39 C4.350625 38.4225 4.70125 37.845 5.0625 37.25 C6.12419872 35.10817308 6.12419872 35.10817308 6 33.0625 C4.45776447 29.88163922 1.71091912 28.20262178 -1 26 C-1.33 25.01 -1.66 24.02 -2 23 C-0.68 22.67 0.64 22.34 2 22 C1.01 21.01 0.02 20.02 -1 19 C0.32 18.34 1.64 17.68 3 17 C2.360625 16.505 1.72125 16.01 1.0625 15.5 C-1.81515269 12.01193613 -1.70230736 9.46538959 -2 5 C-1.01 5 -0.02 5 1 5 C1 4.34 1 3.68 1 3 C0.34 3 -0.32 3 -1 3 C-0.67 2.01 -0.34 1.02 0 0 Z " fill="#8AA2C1" transform="translate(46,73)"/>
<path d="M0 0 C2.31 1.98 4.62 3.96 7 6 C6.67 6.99 6.34 7.98 6 9 C7.32 8.34 8.64 7.68 10 7 C9.60167969 7.49628906 9.20335938 7.99257813 8.79296875 8.50390625 C3.03459187 15.88751846 0.56663652 22.83978413 -1 32 C-1.33 32 -1.66 32 -2 32 C-2.21192221 26.80790596 -1.5912689 22.873261 0 18 C-0.99 18 -1.98 18 -3 18 C-2.814375 18.78375 -2.62875 19.5675 -2.4375 20.375 C-2 23 -2 23 -3 25 C-5.97 25 -8.94 25 -12 25 C-11.505 23.515 -11.505 23.515 -11 22 C-8.69 22.66 -6.38 23.32 -4 24 C-4 22.68 -4 21.36 -4 20 C-6.31 19.67 -8.62 19.34 -11 19 C-10 17 -10 17 -7 16 C-6.67 15.01 -6.34 14.02 -6 13 C-6.99 12.67 -7.98 12.34 -9 12 C-7.02 11.01 -5.04 10.02 -3 9 C-3.99 8.34 -4.98 7.68 -6 7 C-3.29120665 5.64560332 -0.99066732 5.93498549 2 6 C0.68 4.68 -0.64 3.36 -2 2 C-1.34 1.34 -0.68 0.68 0 0 Z " fill="#6787A8" transform="translate(74,50)"/>
<path d="M0 0 C0 0.66 0 1.32 0 2 C2.97 2.495 2.97 2.495 6 3 C6.66 5.31 7.32 7.62 8 10 C8.99 8.02 9.98 6.04 11 4 C12.13643966 7.40931897 11.86747764 8.00335456 10.5625 11.1875 C10.13130859 12.26064453 10.13130859 12.26064453 9.69140625 13.35546875 C9.34916016 14.16951172 9.34916016 14.16951172 9 15 C7.35 14.67 5.7 14.34 4 14 C4 14.66 4 15.32 4 16 C1.25 15.875 1.25 15.875 -2 15 C-4.375 11.9375 -4.375 11.9375 -6 9 C-6.33 10.98 -6.66 12.96 -7 15 C-7.33 15 -7.66 15 -8 15 C-8 11.04 -8 7.08 -8 3 C-2 0 -2 0 0 0 Z " fill="#627E98" transform="translate(33,148)"/>
<path d="M0 0 C3.3 0.33 6.6 0.66 10 1 C10 2.32 10 3.64 10 5 C10.99 5 11.98 5 13 5 C12.67 3.68 12.34 2.36 12 1 C14.375 0.8125 14.375 0.8125 17 1 C17.66 1.99 18.32 2.98 19 4 C18.01 4.33 17.02 4.66 16 5 C16 5.66 16 6.32 16 7 C16.61875 7.226875 17.2375 7.45375 17.875 7.6875 C20.61410209 9.37929835 21.05024472 10.99244161 22 14 C13.13826035 14.46459606 13.13826035 14.46459606 8.9375 12.75 C6.81563062 10.83347282 6.29073322 9.81042113 6 7 C6.99 7 7.98 7 9 7 C9 6.01 9 5.02 9 4 C6.36 4 3.72 4 1 4 C0.67 2.68 0.34 1.36 0 0 Z " fill="#3E5877" transform="translate(57,112)"/>
<path d="M0 0 C0 0.66 0 1.32 0 2 C0.99 2.33 1.98 2.66 3 3 C3.66 3.33 4.32 3.66 5 4 C5.66 2.68 6.32 1.36 7 0 C7 0.99 7 1.98 7 3 C8.32 3.66 9.64 4.32 11 5 C9.0625 5.5625 9.0625 5.5625 7 6 C6.67 5.67 6.34 5.34 6 5 C5.67 5.66 5.34 6.32 5 7 C7.97 7 10.94 7 14 7 C14.33 7.66 14.66 8.32 15 9 C11.12315913 10.19287411 8.08378077 11 4 11 C3.67 11.99 3.34 12.98 3 14 C3.99 14.33 4.98 14.66 6 15 C7.6875 17.0625 7.6875 17.0625 9 19 C7.35 19 5.7 19 4 19 C3.67 20.65 3.34 22.3 3 24 C0.65821247 20.48731871 0 17.24893746 0 13 C-0.66 12.67 -1.32 12.34 -2 12 C-0.35 10.02 1.3 8.04 3 6 C2.01 6 1.02 6 0 6 C-1.56406528 5.84872598 -3.12659252 5.68097478 -4.6875 5.5 C-5.49574219 5.4071875 -6.30398437 5.314375 -7.13671875 5.21875 C-7.75160156 5.1465625 -8.36648437 5.074375 -9 5 C-9 4.34 -9 3.68 -9 3 C-10.32 2.34 -11.64 1.68 -13 1 C-8.60563789 0.14256349 -4.47427924 -0.08948558 0 0 Z " fill="#4E6D8F" transform="translate(120,88)"/>
<path d="M0 0 C0.99 0.33 1.98 0.66 3 1 C3 2.32 3 3.64 3 5 C5.0141977 6.00709885 6.81903726 6.47128176 9 7 C9.99 7.33 10.98 7.66 12 8 C11.67 9.32 11.34 10.64 11 12 C11 11.01 11 10.02 11 9 C10.34 9 9.68 9 9 9 C8.67 10.32 8.34 11.64 8 13 C6.02 13 4.04 13 2 13 C2.33 15.64 2.66 18.28 3 21 C5.97 21 8.94 21 12 21 C12 21.66 12 22.32 12 23 C11.01 23 10.02 23 9 23 C9 23.99 9 24.98 9 26 C9.99 26 10.98 26 12 26 C11.67 26.99 11.34 27.98 11 29 C7.7 27.02 4.4 25.04 1 23 C0.67 23.66 0.34 24.32 0 25 C0.02320312 24.14277344 0.04640625 23.28554687 0.0703125 22.40234375 C0.16929872 16.13085977 0.01833527 10.92885985 -2 5 C-2 3.68 -2 2.36 -2 1 C-1.34 0.67 -0.68 0.34 0 0 Z " fill="#577598" transform="translate(127,63)"/>
<path d="M0 0 C0.66 0 1.32 0 2 0 C5.44419134 11.52164009 5.44419134 11.52164009 5 17 C4.21625 16.979375 3.4325 16.95875 2.625 16.9375 C0.01885039 16.81315937 0.01885039 16.81315937 -2 18 C-3.32 18 -4.64 18 -6 18 C-6.66 18.66 -7.32 19.32 -8 20 C-8.66 18.35 -9.32 16.7 -10 15 C-9.34 15 -8.68 15 -8 15 C-7.67 13.02 -7.34 11.04 -7 9 C-6.67 9 -6.34 9 -6 9 C-6 10.98 -6 12.96 -6 15 C-5.34 15 -4.68 15 -4 15 C-4 11.04 -4 7.08 -4 3 C-2.68 3.66 -1.36 4.32 0 5 C0 3.35 0 1.7 0 0 Z " fill="#0C2C51" transform="translate(144,148)"/>
<path d="M0 0 C2.64 0 5.28 0 8 0 C7.4740625 0.8971875 7.4740625 0.8971875 6.9375 1.8125 C5.66695302 4.10813214 5.66695302 4.10813214 7 7 C4.92446352 7.5534764 3.15634036 8 1 8 C-0.093125 8.185625 -1.18625 8.37125 -2.3125 8.5625 C-5.69320397 8.96360047 -7.80502872 9.06499043 -11 8 C-12.8125 6.4375 -12.8125 6.4375 -14 5 C-7.96923077 0.93846154 -7.96923077 0.93846154 -3.0625 1.25 C-1.5465625 1.62125 -1.5465625 1.62125 0 2 C0 1.34 0 0.68 0 0 Z " fill="#2A476B" transform="translate(98,85)"/>
<path d="M0 0 C2.31 0 4.62 0 7 0 C7 0.66 7 1.32 7 2 C5.02 2 3.04 2 1 2 C1 2.99 1 3.98 1 5 C2.98 5 4.96 5 7 5 C7.33 3.35 7.66 1.7 8 0 C10.31 0 12.62 0 15 0 C16.125 4.75 16.125 4.75 15 7 C15.39938767 9.09821215 15.39938767 9.09821215 16 11 C15.566875 10.525625 15.13375 10.05125 14.6875 9.5625 C12.97690387 7.76313043 12.97690387 7.76313043 10 7 C10 8.65 10 10.3 10 12 C9.34 12 8.68 12 8 12 C7.67 11.01 7.34 10.02 7 9 C6.01 8.67 5.02 8.34 4 8 C3.01 7.67 2.02 7.34 1 7 C1 7.99 1 8.98 1 10 C2.98 10 4.96 10 7 10 C7 10.66 7 11.32 7 12 C4.69 12 2.38 12 0 12 C0 8.04 0 4.08 0 0 Z " fill="#91AAC3" transform="translate(47,151)"/>
<path d="M0 0 C3.8894953 1.32113498 7.15778434 2.4994702 9.234375 6.19921875 C10.01425093 8.48366665 10.67211597 10.60783198 11 13 C10.67 13.66 10.34 14.32 10 15 C8.39482903 14.91266424 6.79078338 14.80447776 5.1875 14.6875 C3.84751953 14.60048828 3.84751953 14.60048828 2.48046875 14.51171875 C-0.32671925 13.93259808 -1.30697846 13.2779858 -3 11 C-3 10.34 -3 9.68 -3 9 C-2.01 8.67 -1.02 8.34 0 8 C0 8.66 0 9.32 0 10 C0.66 10 1.32 10 2 10 C1.67 7.69 1.34 5.38 1 3 C0.34 3 -0.32 3 -1 3 C-0.67 2.01 -0.34 1.02 0 0 Z " fill="#7087A3" transform="translate(57,97)"/>
<path d="M0 0 C0.66 0.33 1.32 0.66 2 1 C1.625 3.4375 1.625 3.4375 1 6 C0.01 6.495 0.01 6.495 -1 7 C-0.67 7.598125 -0.34 8.19625 0 8.8125 C1 11 1 11 1 14 C0.34 14 -0.32 14 -1 14 C-1.28875 13.030625 -1.5775 12.06125 -1.875 11.0625 C-2.64214682 7.89335797 -2.64214682 7.89335797 -5 7 C-5.33 7.66 -5.66 8.32 -6 9 C-6.66 8.67 -7.32 8.34 -8 8 C-7.67 10.64 -7.34 13.28 -7 16 C-7.66 16 -8.32 16 -9 16 C-9.66 13.36 -10.32 10.72 -11 8 C-10.34 7.67 -9.68 7.34 -9 7 C-13.95 7 -18.9 7 -24 7 C-24.33 9.97 -24.66 12.94 -25 16 C-25.66 16 -26.32 16 -27 16 C-28.33928571 7.96428571 -28.33928571 7.96428571 -26 4 C-24.7934375 4.04640625 -23.586875 4.0928125 -22.34375 4.140625 C-20.72919164 4.17817287 -19.11460622 4.21456977 -17.5 4.25 C-16.31277344 4.30027344 -16.31277344 4.30027344 -15.1015625 4.3515625 C-9.73805585 4.43948884 -6.22432384 3.53963706 -1.61132812 0.76855469 C-1.07958984 0.51493164 -0.54785156 0.26130859 0 0 Z " fill="#7F9BB9" transform="translate(116,101)"/>
<path d="M0 0 C0.66 0 1.32 0 2 0 C2.66 1.32 3.32 2.64 4 4 C4.33 3.34 4.66 2.68 5 2 C6.32 2.33 7.64 2.66 9 3 C8.67515625 3.78310547 8.67515625 3.78310547 8.34375 4.58203125 C5.97526811 10.843157 5.66428336 16.347837 6 23 C6.66 23.33 7.32 23.66 8 24 C8 24.66 8 25.32 8 26 C4.17398693 24.54875366 2.77670876 22.64225296 1 19 C1 18.01 1 17.02 1 16 C1.66 16 2.32 16 3 16 C2.525625 15.319375 2.05125 14.63875 1.5625 13.9375 C-0.58834262 9.89391587 -1.37786372 6.10524074 -0.5625 1.5625 C-0.376875 1.046875 -0.19125 0.53125 0 0 Z " fill="#607898" transform="translate(49,77)"/>
<path d="M0 0 C1.2065625 0.0309375 1.2065625 0.0309375 2.4375 0.0625 C3 2 3 2 3.4375 4.0625 C3.1075 4.3925 2.7775 4.7225 2.4375 5.0625 C3.0975 5.7225 3.7575 6.3825 4.4375 7.0625 C2.7875 8.3825 1.1375 9.7025 -0.5625 11.0625 C0.0975 11.3925 0.7575 11.7225 1.4375 12.0625 C1.4375 11.4025 1.4375 10.7425 1.4375 10.0625 C3.0875 10.3925 4.7375 10.7225 6.4375 11.0625 C6.4375 12.0525 6.4375 13.0425 6.4375 14.0625 C4.97957116 14.11649736 3.52107288 14.15529177 2.0625 14.1875 C1.25039062 14.21070313 0.43828125 14.23390625 -0.3984375 14.2578125 C-2.5625 14.0625 -2.5625 14.0625 -4.5625 12.0625 C-4.5625 11.0725 -4.5625 10.0825 -4.5625 9.0625 C-5.5525 9.0625 -6.5425 9.0625 -7.5625 9.0625 C-7.5625 8.4025 -7.5625 7.7425 -7.5625 7.0625 C-6.9025 7.0625 -6.2425 7.0625 -5.5625 7.0625 C-5.253125 6.093125 -4.94375 5.12375 -4.625 4.125 C-3.22113454 0.07856426 -3.22113454 0.07856426 0 0 Z " fill="#455F81" transform="translate(114.5625,118.9375)"/>
<path d="M0 0 C0.33 0.99 0.66 1.98 1 3 C2.32 3 3.64 3 5 3 C4.67 3.99 4.34 4.98 4 6 C3.34 6 2.68 6 2 6 C1.67 6.99 1.34 7.98 1 9 C0.34 9.66 -0.32 10.32 -1 11 C-1.6425235 13.06874034 -1.6425235 13.06874034 -2 15 C-1.34 15.33 -0.68 15.66 0 16 C-1.485 18.475 -1.485 18.475 -3 21 C-3.99 20.67 -4.98 20.34 -6 20 C-6 16.7 -6 13.4 -6 10 C-5.34 9.67 -4.68 9.34 -4 9 C-4.66 8.67 -5.32 8.34 -6 8 C-4.52307692 2.33846154 -4.52307692 2.33846154 -1.875 0.625 C-0.946875 0.315625 -0.946875 0.315625 0 0 Z " fill="#4F6889" transform="translate(61,51)"/>
<path d="M0 0 C1.65 0.33 3.3 0.66 5 1 C4.67 1.66 4.34 2.32 4 3 C4.33 3.66 4.66 4.32 5 5 C6.98 3.68 8.96 2.36 11 1 C11 1.99 11 2.98 11 4 C11.763125 3.773125 12.52625 3.54625 13.3125 3.3125 C16 3 16 3 17.875 4.1875 C19 6 19 6 18.6875 8.1875 C18.460625 8.785625 18.23375 9.38375 18 10 C17.67 9.34 17.34 8.68 17 8 C16.20335937 8.21398438 15.40671875 8.42796875 14.5859375 8.6484375 C6.14119958 10.55929061 6.14119958 10.55929061 2.83203125 8.9375 C1.14025495 7.33011159 -0.04526063 6.13522993 -1 4 C-0.63671875 1.7890625 -0.63671875 1.7890625 0 0 Z " fill="#16355C" transform="translate(119,53)"/>
<path d="M0 0 C0 0.66 0 1.32 0 2 C0.66 2 1.32 2 2 2 C1.39169139 8.44807122 1.39169139 8.44807122 -0.375 10.9375 C-2 12 -2 12 -5 12 C-5.66 10.35 -6.32 8.7 -7 7 C-7.66 7 -8.32 7 -9 7 C-8.40138258 4.64828869 -7.73075648 2.3140622 -7 0 C-4.3333581 -1.33332095 -2.83319697 -0.67102033 0 0 Z " fill="#67809D" transform="translate(148,91)"/>
<path d="M0 0 C2.625 0.8125 2.625 0.8125 5.0625 2.3125 C7.9483524 4.00177946 10.32763737 4.42908574 13.625 4.8125 C13.295 5.8025 12.965 6.7925 12.625 7.8125 C9.625 7.8125 6.625 7.8125 3.625 7.8125 C3.625 8.4725 3.625 9.1325 3.625 9.8125 C-3.125 8.1875 -3.125 8.1875 -5.375 4.8125 C-5.375 3.8225 -5.375 2.8325 -5.375 1.8125 C-2.375 -0.1875 -2.375 -0.1875 0 0 Z " fill="#436081" transform="translate(106.375,131.1875)"/>
<path d="M0 0 C0.66 0 1.32 0 2 0 C2.33 0.66 2.66 1.32 3 2 C4.65 2 6.3 2 8 2 C8 3.32 8 4.64 8 6 C9.4166747 7.7511573 9.4166747 7.7511573 11 9 C6.25 12 6.25 12 4 12 C4 12.66 4 13.32 4 14 C2.68 14.33 1.36 14.66 0 15 C0 13.02 0 11.04 0 9 C-0.66 8.67 -1.32 8.34 -2 8 C-1.34 5.36 -0.68 2.72 0 0 Z " fill="#5B708C" transform="translate(63,37)"/>
<path d="M0 0 C0.33 0.99 0.66 1.98 1 3 C1.66 3.33 2.32 3.66 3 4 C2.34 4.66 1.68 5.32 1 6 C1.3828104 10.0577902 2.15472756 14.01514422 3 18 C2.01 18.33 1.02 18.66 0 19 C-3 13.25 -3 13.25 -3 11 C-4.32 11 -5.64 11 -7 11 C-7.66 12.32 -8.32 13.64 -9 15 C-8.69106068 13.3743193 -8.3777305 11.74947252 -8.0625 10.125 C-7.80146484 8.76761719 -7.80146484 8.76761719 -7.53515625 7.3828125 C-7 5 -7 5 -6 3 C-4.02 3 -2.04 3 0 3 C0 2.01 0 1.02 0 0 Z " fill="#143659" transform="translate(166,148)"/>
<path d="M0 0 C0.99 0.99 1.98 1.98 3 3 C2.34 3 1.68 3 1 3 C1 3.66 1 4.32 1 5 C-0.5 6.625 -0.5 6.625 -2 8 C-1.46890625 7.77183594 -0.9378125 7.54367188 -0.390625 7.30859375 C0.31578125 7.02113281 1.0221875 6.73367187 1.75 6.4375 C2.44609375 6.14746094 3.1421875 5.85742188 3.859375 5.55859375 C6.30012784 4.92168197 7.6403655 5.19751169 10 6 C9.505 6.474375 9.01 6.94875 8.5 7.4375 C6.88457803 8.75923698 6.88457803 8.75923698 7 10 C0.375 10.125 0.375 10.125 -3 9 C-3 9.66 -3 10.32 -3 11 C-1.68 11.33 -0.36 11.66 1 12 C0.67 12.66 0.34 13.32 0 14 C-0.66 14 -1.32 14 -2 14 C-2 13.34 -2 12.68 -2 12 C-3.98 12.33 -5.96 12.66 -8 13 C-8 13.66 -8 14.32 -8 15 C-9.32 14.34 -10.64 13.68 -12 13 C-10.02 12.01 -8.04 11.02 -6 10 C-6.66 9.34 -7.32 8.68 -8 8 C-7.625 5.875 -7.625 5.875 -7 4 C-5.35 4 -3.7 4 -2 4 C-1.34 2.68 -0.68 1.36 0 0 Z " fill="#6C85A4" transform="translate(124,116)"/>
<path d="M0 0 C0.99 0.33 1.98 0.66 3 1 C3.5745952 4.73486879 4 8.21293268 4 12 C4.99 11.67 5.98 11.34 7 11 C6.67 12.65 6.34 14.3 6 16 C5.34 15.67 4.68 15.34 4 15 C3.01 16.485 3.01 16.485 2 18 C-0.475 17.01 -0.475 17.01 -3 16 C-3 15.34 -3 14.68 -3 14 C-1.02 14.495 -1.02 14.495 1 15 C0.360625 14.071875 -0.27875 13.14375 -0.9375 12.1875 C-3 9 -3 9 -4 6 C-3.67 5.34 -3.34 4.68 -3 4 C-2.34 4 -1.68 4 -1 4 C-0.67 2.68 -0.34 1.36 0 0 Z " fill="#637D9C" transform="translate(143,48)"/>
<path d="M0 0 C1.32 0 2.64 0 4 0 C4 0.99 4 1.98 4 3 C2.68 3.33 1.36 3.66 0 4 C0.66 4.33 1.32 4.66 2 5 C1.67 5.99 1.34 6.98 1 8 C-0.32 7.34 -1.64 6.68 -3 6 C-3.33 6.66 -3.66 7.32 -4 8 C-3.34 8.33 -2.68 8.66 -2 9 C-2.33 9.99 -2.66 10.98 -3 12 C-5.0625 12.6875 -5.0625 12.6875 -7 13 C-7.33 12.34 -7.66 11.68 -8 11 C-10.01822917 11.09765625 -12.03645833 11.1953125 -14.0546875 11.29296875 C-14.69664063 11.19628906 -15.33859375 11.09960938 -16 11 C-16.66 10.01 -17.32 9.02 -18 8 C-17.12988281 7.85304687 -17.12988281 7.85304687 -16.2421875 7.703125 C-10.9340253 6.68704115 -7.45682087 5.18344348 -3 2 C-2.01 2 -1.02 2 0 2 C0 1.34 0 0.68 0 0 Z " fill="#557292" transform="translate(98,128)"/>
<path d="M0 0 C2 3 2 3 2.9375 5.5625 C3.87138318 8.30504053 3.87138318 8.30504053 7 10 C7.6875 12.625 7.6875 12.625 8 15 C8.66 15 9.32 15 10 15 C10 15.66 10 16.32 10 17 C9.34 17 8.68 17 8 17 C7.7525 17.763125 7.505 18.52625 7.25 19.3125 C5.89004442 22.2364045 4.68414174 23.30004356 2 25 C3.19899698 21.9168649 4.47700477 18.93720508 6 16 C5.34 16 4.68 16 4 16 C4 15.34 4 14.68 4 14 C1.12579877 16.71604715 1.12579877 16.71604715 -1 20 C-1.99 19.67 -2.98 19.34 -4 19 C-3.34 18.67 -2.68 18.34 -2 18 C-2.33 17.01 -2.66 16.02 -3 15 C-3.66 14.67 -4.32 14.34 -5 14 C-5.33 14.66 -5.66 15.32 -6 16 C-6.33 15.01 -6.66 14.02 -7 13 C-1.555 12.505 -1.555 12.505 4 12 C3.34 10.7625 2.68 9.525 2 8.25 C0.27370354 5.01319413 0 3.86790003 0 0 Z " fill="#6C85A2" transform="translate(73,84)"/>
<path d="M0 0 C1.98 0 3.96 0 6 0 C8 2 8 2 8.265625 3.875 C8.26046875 4.57625 8.2553125 5.2775 8.25 6 C8.25515625 6.70125 8.2603125 7.4025 8.265625 8.125 C8 10 8 10 6 12 C4.02 12 2.04 12 0 12 C0 8.04 0 4.08 0 0 Z " fill="#A7C1DA" transform="translate(77,151)"/>
<path d="M0 0 C2.31 1.98 4.62 3.96 7 6 C6.67 6.99 6.34 7.98 6 9 C7.32 8.34 8.64 7.68 10 7 C9.04663979 8.31611677 8.08714226 9.62778961 7.125 10.9375 C6.59132813 11.66839844 6.05765625 12.39929688 5.5078125 13.15234375 C4 15 4 15 2 16 C2.33 14.68 2.66 13.36 3 12 C-2.94 12.495 -2.94 12.495 -9 13 C-6 10 -6 10 -3 9 C-3.99 8.34 -4.98 7.68 -6 7 C-3.29120665 5.64560332 -0.99066732 5.93498549 2 6 C0.68 4.68 -0.64 3.36 -2 2 C-1.34 1.34 -0.68 0.68 0 0 Z " fill="#6784A3" transform="translate(74,50)"/>
<path d="M0 0 C5 0 5 0 6.875 1.0625 C8.68060316 4.17214989 7.79952488 6.61739473 7 10 C6.34 10.66 5.68 11.32 5 12 C3.35 12 1.7 12 0 12 C0 8.04 0 4.08 0 0 Z " fill="#B5CFE2" transform="translate(109,151)"/>
<path d="M0 0 C5 0 5 0 6.875 1.0625 C8.68060316 4.17214989 7.79952488 6.61739473 7 10 C6.34 10.66 5.68 11.32 5 12 C3.35 12 1.7 12 0 12 C0 8.04 0 4.08 0 0 Z " fill="#B9D0E3" transform="translate(96,151)"/>
<path d="M0 0 C2 3.75 2 3.75 2 6 C0.35 5.67 -1.3 5.34 -3 5 C-2.67 6.32 -2.34 7.64 -2 9 C1.96 9.33 5.92 9.66 10 10 C10.33 9.01 10.66 8.02 11 7 C11.33 8.32 11.66 9.64 12 11 C5.72307692 13.21538462 5.72307692 13.21538462 2.0625 12.125 C1.381875 11.75375 0.70125 11.3825 0 11 C0.7763932 14.0745356 0.7763932 14.0745356 3 16 C-0.99455527 15.38545304 -3.74466336 13.29353263 -7 11 C-6.649375 10.4225 -6.29875 9.845 -5.9375 9.25 C-4.83979496 6.61550791 -5.17758697 5.64999753 -6 3 C-5 2 -5 2 -2.4375 1.9375 C-1.2309375 1.9684375 -1.2309375 1.9684375 0 2 C0 1.34 0 0.68 0 0 Z " fill="#8DA5BF" transform="translate(57,101)"/>
<path d="M0 0 C1.26823485 3.65393537 0.75715321 6.49070026 0.0625 10.25 C-0.13214844 11.32765625 -0.32679688 12.4053125 -0.52734375 13.515625 C-0.68332031 14.33546875 -0.83929688 15.1553125 -1 16 C-2.32 15.67 -3.64 15.34 -5 15 C-5 15.66 -5 16.32 -5 17 C-4.34 17 -3.68 17 -3 17 C-3.33 18.65 -3.66 20.3 -4 22 C-4.66 22 -5.32 22 -6 22 C-6.33 22.66 -6.66 23.32 -7 24 C-7 21 -7 21 -6 18 C-6.66 17.67 -7.32 17.34 -8 17 C-9.19150921 12.63113288 -9.021829 10.04365799 -7 6 C-6.5978125 6.928125 -6.5978125 6.928125 -6.1875 7.875 C-5.04443152 10.2995233 -5.04443152 10.2995233 -2 12 C-2.10699219 11.38511719 -2.21398437 10.77023438 -2.32421875 10.13671875 C-2.44410156 9.32847656 -2.56398437 8.52023438 -2.6875 7.6875 C-2.81511719 6.88699219 -2.94273437 6.08648437 -3.07421875 5.26171875 C-3 3 -3 3 -1.51953125 1.20703125 C-1.01808594 0.80871094 -0.51664063 0.41039062 0 0 Z " fill="#7D95B3" transform="translate(152,61)"/>
<path d="M0 0 C0.59167969 0.15597656 1.18335937 0.31195313 1.79296875 0.47265625 C7.87320033 1.98683598 7.87320033 1.98683598 14 1 C14.125 3.875 14.125 3.875 14 7 C12 9 12 9 10.125 9.046875 C9.42375 8.94890625 8.7225 8.8509375 8 8.75 C6.948125 8.61851563 6.948125 8.61851563 5.875 8.484375 C4 8 4 8 2 6 C3.65 5.34 5.3 4.68 7 4 C4.03 4 1.06 4 -2 4 C-1.34 2.68 -0.68 1.36 0 0 Z " fill="#1E4063" transform="translate(126,92)"/>
<path d="M0 0 C0 0.66 0 1.32 0 2 C1.65 2 3.3 2 5 2 C4.67 2.66 4.34 3.32 4 4 C2.02 4 0.04 4 -2 4 C-2.33 4.99 -2.66 5.98 -3 7 C-6.21284338 8.88579937 -8.24633583 10 -12 10 C-12.33 9.01 -12.66 8.02 -13 7 C-11 5 -11 5 -8.375 4.875 C-7.59125 4.91625 -6.8075 4.9575 -6 5 C-6 3.68 -6 2.36 -6 1 C-3 0 -3 0 0 0 Z " fill="#DBE7F0" transform="translate(93,81)"/>
<path d="M0 0 C0.66 0 1.32 0 2 0 C2 1.32 2 2.64 2 4 C3.175625 4.2165625 3.175625 4.2165625 4.375 4.4375 C7 5 7 5 9 6 C8.67 7.65 8.34 9.3 8 11 C7.01 11.33 6.02 11.66 5 12 C4.01 11.34 3.02 10.68 2 10 C2.99 9.34 3.98 8.68 5 8 C2.03 8.66 -0.94 9.32 -4 10 C-3.67 9.01 -3.34 8.02 -3 7 C-2.34 7 -1.68 7 -1 7 C-1 5.68 -1 4.36 -1 3 C-0.67 2.01 -0.34 1.02 0 0 Z " fill="#3D5573" transform="translate(126,114)"/>
<path d="M0 0 C2.97 0 5.94 0 9 0 C9 3.96 9 7.92 9 12 C8.67 12 8.34 12 8 12 C8 9.69 8 7.38 8 5 C7.34 5 6.68 5 6 5 C6 6.65 6 8.3 6 10 C5.67 9.01 5.34 8.02 5 7 C1.99152582 5.77479736 1.99152582 5.77479736 -1 5 C-0.67 3.35 -0.34 1.7 0 0 Z " fill="#809AB1" transform="translate(66,151)"/>
<path d="M0 0 C0.99 0 1.98 0 3 0 C2.71831703 1.95979427 2.42433283 3.91782378 2.125 5.875 C1.96257812 6.96554688 1.80015625 8.05609375 1.6328125 9.1796875 C1 12 1 12 -1 14 C-1.99 13.67 -2.98 13.34 -4 13 C-4 13.66 -4 14.32 -4 15 C-2.68 15.33 -1.36 15.66 0 16 C0 17.98 0 19.96 0 22 C1.32 22.33 2.64 22.66 4 23 C2.02 23 0.04 23 -2 23 C-2 21.68 -2 20.36 -2 19 C-2.66 19 -3.32 19 -4 19 C-5.34771696 16.78023089 -6.04398726 15.49852224 -5.8125 12.875 C-5 11 -5 11 -2 9 C-0.50256881 7.50256881 -0.66797307 6.01175761 -0.4375 3.9375 C-0.293125 2.638125 -0.14875 1.33875 0 0 Z " fill="#7D96B4" transform="translate(152,74)"/>
<path d="M0 0 C2.75383923 1.37691962 3.51483101 3.36720042 5 6 C5 5.34 5 4.68 5 4 C5.66 4 6.32 4 7 4 C7.66 5.65 8.32 7.3 9 9 C8.01 9.495 8.01 9.495 7 10 C9.64 10.99 12.28 11.98 15 13 C11.77208445 15.1519437 10.71599191 15.20086443 7 15 C7 14.34 7 13.68 7 13 C5.02 13 3.04 13 1 13 C1 12.34 1 11.68 1 11 C1.99 11 2.98 11 4 11 C1.88673474 6.29157376 1.88673474 6.29157376 -2 3 C-2 2.34 -2 1.68 -2 1 C-1.34 0.67 -0.68 0.34 0 0 Z " fill="#839CBA" transform="translate(75,116)"/>
<path d="M0 0 C2 1.5625 2 1.5625 4 4 C4.25 7.75 4.25 7.75 4 11 C3.360625 10.67 2.72125 10.34 2.0625 10 C-0.9079057 8.5598033 -0.61120628 8.87040209 -4 10 C-4.33 9.01 -4.66 8.02 -5 7 C-5.66 7 -6.32 7 -7 7 C-7 6.01 -7 5.02 -7 4 C-5.02 3.67 -3.04 3.34 -1 3 C-0.67 2.01 -0.34 1.02 0 0 Z " fill="#4D6986" transform="translate(146,62)"/>
<path d="M0 0 C0.66 0 1.32 0 2 0 C2.66 2.31 3.32 4.62 4 7 C4.99 4.69 5.98 2.38 7 0 C7.66 0 8.32 0 9 0 C9 3.96 9 7.92 9 12 C8.34 12 7.68 12 7 12 C6.67 11.34 6.34 10.68 6 10 C5.34 10.66 4.68 11.32 4 12 C3.34 10.68 2.68 9.36 2 8 C1.34 8.99 0.68 9.98 0 11 C0 7.37 0 3.74 0 0 Z " fill="#ADC3D8" transform="translate(131,151)"/>
<path d="M0 0 C0.66 0.33 1.32 0.66 2 1 C2.625 3.0625 2.625 3.0625 3 5 C-1.56327794 8.53286034 -5.49633208 8.32374517 -11 8 C-11 7.01 -11 6.02 -11 5 C-10.67 5.66 -10.34 6.32 -10 7 C-5.545 6.505 -5.545 6.505 -1 6 C-1 5.34 -1 4.68 -1 4 C-2.3921875 3.8453125 -2.3921875 3.8453125 -3.8125 3.6875 C-7.03254358 2.9929808 -8.02579865 2.52259061 -10 0 C-6.27762318 -1.24079227 -3.82468076 -0.6953965 0 0 Z " fill="#587292" transform="translate(91,125)"/>
<path d="M0 0 C3.3 0.33 6.6 0.66 10 1 C10 2.32 10 3.64 10 5 C10.99 5 11.98 5 13 5 C12.67 3.68 12.34 2.36 12 1 C14.375 0.8125 14.375 0.8125 17 1 C17.66 1.99 18.32 2.98 19 4 C15.3558226 6.4294516 13.28758728 6.16179575 9 6 C9 5.34 9 4.68 9 4 C6.36 4 3.72 4 1 4 C0.67 2.68 0.34 1.36 0 0 Z " fill="#597290" transform="translate(57,112)"/>
<path d="M0 0 C1.65 0 3.3 0 5 0 C5.33 0.66 5.66 1.32 6 2 C7.65 2 9.3 2 11 2 C11.33 3.65 11.66 5.3 12 7 C11.67 6.01 11.34 5.02 11 4 C10.34 4 9.68 4 9 4 C8.67 5.32 8.34 6.64 8 8 C6.02 8 4.04 8 2 8 C1.34 5.36 0.68 2.72 0 0 Z " fill="#607F9B" transform="translate(127,68)"/>
<path d="M0 0 C5.2584002 0.67415387 10.02638346 2.24265549 15 4 C15 4.66 15 5.32 15 6 C13.68 5.67 12.36 5.34 11 5 C11.33 6.32 11.66 7.64 12 9 C9.57710315 8.58225916 8.29120935 8.30387062 6.5625 6.5 C4.51486377 4.53426922 2.76252651 4.37331439 0 4 C0 2.68 0 1.36 0 0 Z " fill="#113155" transform="translate(122,46)"/>
<path d="M0 0 C1.77131561 0.30975468 3.54203778 0.62290425 5.3125 0.9375 C6.79169922 1.19853516 6.79169922 1.19853516 8.30078125 1.46484375 C11 2 11 2 14 3 C13.67 4.65 13.34 6.3 13 8 C10.36 8 7.72 8 5 8 C5 7.01 5 6.02 5 5 C4.34 4.67 3.68 4.34 3 4 C3 3.34 3 2.68 3 2 C2.01 1.67 1.02 1.34 0 1 C0 0.67 0 0.34 0 0 Z " fill="#587494" transform="translate(128,99)"/>
<path d="M0 0 C-0.33 0.99 -0.66 1.98 -1 3 C-3.97 2.505 -3.97 2.505 -7 2 C-7 5.96 -7 9.92 -7 14 C-1.28136948 12.71860673 -1.28136948 12.71860673 3 9 C2.67 10.98 2.34 12.96 2 15 C-2.06279475 15.85035239 -4.97340604 15.92604802 -9 15 C-8.94014621 12.70759993 -8.85140973 10.41593794 -8.75 8.125 C-8.70359375 6.84882813 -8.6571875 5.57265625 -8.609375 4.2578125 C-8 1 -8 1 -6.09375 -0.46875 C-3.67910955 -1.08141997 -2.32397914 -0.82999255 0 0 Z " fill="#0E2C4F" transform="translate(84,149)"/>
<path d="M0 0 C0.66 0.66 1.32 1.32 2 2 C1.34 2 0.68 2 0 2 C0 2.66 0 3.32 0 4 C0.99 4.33 1.98 4.66 3 5 C1.824375 5.1546875 1.824375 5.1546875 0.625 5.3125 C-2.33045181 5.77595022 -2.33045181 5.77595022 -4 9 C-6.625 9.1875 -6.625 9.1875 -9 9 C-9.33 8.34 -9.66 7.68 -10 7 C-8.35 7 -6.7 7 -5 7 C-5 6.01 -5 5.02 -5 4 C-6.32 4 -7.64 4 -9 4 C-9.33 4.66 -9.66 5.32 -10 6 C-11.32 5.34 -12.64 4.68 -14 4 C-12.35337258 2.35337258 -10.32325947 2.60204901 -8.0625 2.375 C-7.16660156 2.27960938 -6.27070312 2.18421875 -5.34765625 2.0859375 C-3 2 -3 2 -1 3 C-0.67 2.01 -0.34 1.02 0 0 Z " fill="#99AEC9" transform="translate(107,124)"/>
<path d="M0 0 C0.99 0.33 1.98 0.66 3 1 C2.67 2.175625 2.34 3.35125 2 4.5625 C1.0030467 8.5011676 0.83130797 11.95139129 1 16 C-0.32 16 -1.64 16 -3 16 C-3 14.68 -3 13.36 -3 12 C-3.99 11.67 -4.98 11.34 -6 11 C-6 10.34 -6 9.68 -6 9 C-4.68 8.67 -3.36 8.34 -2 8 C-1.34 5.36 -0.68 2.72 0 0 Z " fill="#405D7F" transform="translate(154,78)"/>
<path d="M0 0 C0.66 0 1.32 0 2 0 C2.53293835 1.74635165 3.05090663 3.49727652 3.5625 5.25 C3.85253906 6.22453125 4.14257812 7.1990625 4.44140625 8.203125 C4.99249836 10.96243932 4.93789609 12.3912824 4 15 C3.67 13.68 3.34 12.36 3 11 C1.68 11 0.36 11 -1 11 C-1.66 12.32 -2.32 13.64 -3 15 C-2 10 -1 5 0 0 Z " fill="#BDD3E6" transform="translate(144,148)"/>
<path d="M0 0 C6.39534884 0.69767442 6.39534884 0.69767442 9 2 C8.67 3.65 8.34 5.3 8 7 C5.36 7 2.72 7 0 7 C-0.38133299 5.0085944 -0.71325582 3.00720923 -1 1 C-0.67 0.67 -0.34 0.34 0 0 Z " fill="#5E7995" transform="translate(62,156)"/>
<path d="M0 0 C1.32 0.33 2.64 0.66 4 1 C4.33 3.31 4.66 5.62 5 8 C3.35 8.66 1.7 9.32 0 10 C0 10.99 0 11.98 0 13 C-0.66 13 -1.32 13 -2 13 C-4.09350689 9.5980513 -4.17942163 6.94727588 -4 3 C-3.34 3 -2.68 3 -2 3 C-2 3.66 -2 4.32 -2 5 C-1.34 5.33 -0.68 5.66 0 6 C-0.33 6.33 -0.66 6.66 -1 7 C-0.34 7 0.32 7 1 7 C1.33 5.35 1.66 3.7 2 2 C1.34 2 0.68 2 0 2 C0 1.34 0 0.68 0 0 Z " fill="#4E6989" transform="translate(147,76)"/>
<path d="M0 0 C2.8125 -0.25 2.8125 -0.25 6 0 C7.875 2 7.875 2 9 4 C8.21625 4.61875 7.4325 5.2375 6.625 5.875 C4.03162353 7.89858661 4.03162353 7.89858661 2 10 C0.68373308 6.38026598 0 3.90432869 0 0 Z " fill="#496887" transform="translate(121,50)"/>
<path d="M0 0 C2.31 0 4.62 0 7 0 C7 0.66 7 1.32 7 2 C5.35 2 3.7 2 2 2 C2 2.99 2 3.98 2 5 C3.65 5 5.3 5 7 5 C7 5.33 7 5.66 7 6 C5.35 6 3.7 6 2 6 C2 7.32 2 8.64 2 10 C3.65 10 5.3 10 7 10 C7 10.66 7 11.32 7 12 C4.69 12 2.38 12 0 12 C0 8.04 0 4.08 0 0 Z " fill="#B2C9DA" transform="translate(118,151)"/>
<path d="M0 0 C0.66 0.66 1.32 1.32 2 2 C4.20250992 2.46006346 4.20250992 2.46006346 6.625 2.625 C7.44226562 2.69976562 8.25953125 2.77453125 9.1015625 2.8515625 C9.72804688 2.90054688 10.35453125 2.94953125 11 3 C11.33 3.99 11.66 4.98 12 6 C11.67 6.33 11.34 6.66 11 7 C8.8203125 6.984375 8.8203125 6.984375 6.125 6.75 C5.24070312 6.68296875 4.35640625 6.6159375 3.4453125 6.546875 C0.68147442 5.92876425 -0.31984627 5.24762287 -2 3 C-2 2.34 -2 1.68 -2 1 C-1.34 0.67 -0.68 0.34 0 0 Z " fill="#143358" transform="translate(56,105)"/>
<path d="M0 0 C0.33 0.99 0.66 1.98 1 3 C1.763125 2.773125 2.52625 2.54625 3.3125 2.3125 C6 2 6 2 7.875 3.1875 C9 5 9 5 8.6875 7.1875 C8.460625 7.785625 8.23375 8.38375 8 9 C7.67 8.34 7.34 7.68 7 7 C4.97456444 6.74280183 2.94649776 6.49157878 0.91015625 6.34375 C-1 6 -1 6 -3 4 C-2.01 2.68 -1.02 1.36 0 0 Z " fill="#092D54" transform="translate(129,54)"/>
<path d="M0 0 C0 0.99 0 1.98 0 3 C-4.50353262 4.75747614 -8.17639811 5.19294408 -13 5 C-13 3.68 -13 2.36 -13 1 C-11.58366664 0.83052421 -10.16691467 0.66454493 -8.75 0.5 C-7.56664062 0.36078125 -7.56664062 0.36078125 -6.359375 0.21875 C-4 0 -4 0 0 0 Z " fill="#113357" transform="translate(146,107)"/>
<path d="M0 0 C0.99 0.99 1.98 1.98 3 3 C1.3125 6 1.3125 6 -1 9 C-3.75 9.375 -3.75 9.375 -6 9 C-7.125 5.25 -7.125 5.25 -6 3 C-4.33333333 2.66666667 -2.66666667 2.33333333 -1 2 C-0.67 1.34 -0.34 0.68 0 0 Z " fill="#042B5B" transform="translate(141,74)"/>
<path d="M0 0 C1.32 0.66 2.64 1.32 4 2 C3.37240135 4.92879371 2.41377341 7.36095629 1 10 C-0.98 9.34 -2.96 8.68 -5 8 C-3.35 5.36 -1.7 2.72 0 0 Z " fill="#052B56" transform="translate(81,101)"/>
<path d="M0 0 C0.66 0.33 1.32 0.66 2 1 C2 1.66 2 2.32 2 3 C2.66 3 3.32 3 4 3 C3.39169139 9.44807122 3.39169139 9.44807122 1.625 11.9375 C0 13 0 13 -3 13 C-2.01 8.71 -1.02 4.42 0 0 Z " fill="#2A4262" transform="translate(146,90)"/>
<path d="M0 0 C0.99 0.33 1.98 0.66 3 1 C1.125 6.75 1.125 6.75 0 9 C-1.32 9 -2.64 9 -4 9 C-4.66 6.36 -5.32 3.72 -6 1 C-4.68 1.33 -3.36 1.66 -2 2 C-1.34 1.34 -0.68 0.68 0 0 Z " fill="#123158" transform="translate(119,43)"/>
<path d="M0 0 C0.94875 0.04125 1.8975 0.0825 2.875 0.125 C2.545 1.115 2.215 2.105 1.875 3.125 C0.555 2.795 -0.765 2.465 -2.125 2.125 C-2.455 4.105 -2.785 6.085 -3.125 8.125 C-1.475 8.125 0.175 8.125 1.875 8.125 C1.875 8.455 1.875 8.785 1.875 9.125 C0.225 9.455 -1.425 9.785 -3.125 10.125 C-0.815 10.455 1.495 10.785 3.875 11.125 C0.875 13.125 0.875 13.125 -2.3125 12.75 C-3.7046875 12.440625 -3.7046875 12.440625 -5.125 12.125 C-6.37174659 8.38476024 -5.89179965 5.95899823 -5.125 2.125 C-3.125 0.125 -3.125 0.125 0 0 Z " fill="#7393B4" transform="translate(100.125,108.875)"/>
<path d="M0 0 C0.33 0.66 0.66 1.32 1 2 C0.36729133 3.34977849 -0.30062468 4.68352881 -1 6 C-1 6.66 -1 7.32 -1 8 C0.32 8.33 1.64 8.66 3 9 C-0.30096158 9.8252404 -2.8033 10.37001429 -6 9 C-6.33 8.01 -6.66 7.02 -7 6 C-6.01 5.67 -5.02 5.34 -4 5 C-3.835 4.34 -3.67 3.68 -3.5 3 C-3.335 2.34 -3.17 1.68 -3 1 C-2.01 0.67 -1.02 0.34 0 0 Z " fill="#2F4F70" transform="translate(82,83)"/>
<path d="M0 0 C3.33773709 3.64116773 3.97864902 7.28607242 5 12 C4.34 12 3.68 12 3 12 C2.67 11.01 2.34 10.02 2 9 C-0.01508358 8.26676204 -0.01508358 8.26676204 -2 8 C-2 9.32 -2 10.64 -2 12 C-2.66 12 -3.32 12 -4 12 C-3.52494322 10.18641846 -3.04483958 8.37415821 -2.5625 6.5625 C-2.29566406 5.55316406 -2.02882813 4.54382813 -1.75390625 3.50390625 C-1 1 -1 1 0 0 Z " fill="#BED5E7" transform="translate(90,151)"/>
<path d="M0 0 C0.66 0 1.32 0 2 0 C2.53229326 1.26607607 3.05044544 2.53810412 3.5625 3.8125 C3.85253906 4.52019531 4.14257812 5.22789062 4.44140625 5.95703125 C5 8 5 8 4 11 C3.67 10.01 3.34 9.02 3 8 C1.68 8 0.36 8 -1 8 C-1.66 9.32 -2.32 10.64 -3 12 C-2.69106068 10.3743193 -2.3777305 8.74947252 -2.0625 7.125 C-1.88847656 6.22007812 -1.71445313 5.31515625 -1.53515625 4.3828125 C-1 2 -1 2 0 0 Z " fill="#A5BCD0" transform="translate(160,151)"/>
<path d="M0 0 C1.17755913 2.94389782 1.03348696 3.89953913 0 7 C-0.61875 6.814375 -1.2375 6.62875 -1.875 6.4375 C-4.04160178 5.76313824 -4.04160178 5.76313824 -6 7 C-6 4.69 -6 2.38 -6 0 C-3 -1 -3 -1 0 0 Z " fill="#123358" transform="translate(114,109)"/>
<path d="M0 0 C1.051875 1.2684375 1.051875 1.2684375 2.125 2.5625 C-1.94955639 3.64904837 -5.65807636 3.5625 -9.875 3.5625 C-10.205 2.9025 -10.535 2.2425 -10.875 1.5625 C-9.885 1.2325 -8.895 0.9025 -7.875 0.5625 C-8.205 -0.0975 -8.535 -0.7575 -8.875 -1.4375 C-4.60386331 -2.72877388 -3.51475976 -2.97990501 0 0 Z " fill="#C9D9E6" transform="translate(102.875,89.4375)"/>
<path d="M0 0 C2 2 2 2 2 6 C2.33 6.99 2.66 7.98 3 9 C-0.20395416 9 -2.09399739 8.25664978 -5 7 C-5 5.68 -5 4.36 -5 3 C-3.35 2.67 -1.7 2.34 0 2 C0 1.34 0 0.68 0 0 Z " fill="#103256" transform="translate(111,41)"/>
<path d="M0 0 C1.65 0.99 3.3 1.98 5 3 C5.33 2.34 5.66 1.68 6 1 C6.33 2.32 6.66 3.64 7 5 C5.02 5 3.04 5 1 5 C0.67 6.32 0.34 7.64 0 9 C-0.66 9 -1.32 9 -2 9 C-2.33 7.68 -2.66 6.36 -3 5 C-5.97 4.505 -5.97 4.505 -9 4 C-9 3.67 -9 3.34 -9 3 C-7.88625 2.87625 -6.7725 2.7525 -5.625 2.625 C-1.96896323 2.3534187 -1.96896323 2.3534187 0 0 Z " fill="#0E2E52" transform="translate(65,147)"/>
<path d="M0 0 C0.99 0 1.98 0 3 0 C2.67 1.32 2.34 2.64 2 4 C2.66 4 3.32 4 4 4 C4 4.99 4 5.98 4 7 C5.32 7.33 6.64 7.66 8 8 C7.67 8.66 7.34 9.32 7 10 C6.34 10 5.68 10 5 10 C5 9.34 5 8.68 5 8 C3.02 8.33 1.04 8.66 -1 9 C-1 9.66 -1 10.32 -1 11 C-2.32 10.34 -3.64 9.68 -5 9 C-3.02 8.01 -1.04 7.02 1 6 C0.34 5.34 -0.32 4.68 -1 4 C-0.625 1.875 -0.625 1.875 0 0 Z " fill="#839BBA" transform="translate(117,120)"/>
<path d="M0 0 C3.63 0 7.26 0 11 0 C11 1.98 11 3.96 11 6 C8.36 6 5.72 6 3 6 C2.67 5.01 2.34 4.02 2 3 C4.31 3.33 6.62 3.66 9 4 C9 3.01 9 2.02 9 1 C8.34 1 7.68 1 7 1 C7 1.66 7 2.32 7 3 C6.21625 2.79375 5.4325 2.5875 4.625 2.375 C3.75875 2.25125 2.8925 2.1275 2 2 C1.34 2.66 0.68 3.32 0 4 C0 2.68 0 1.36 0 0 Z " fill="#264061" transform="translate(95,121)"/>
<path d="M0 0 C5.75 1.875 5.75 1.875 8 3 C8 3.66 8 4.32 8 5 C8.66 5.33 9.32 5.66 10 6 C9.34 6.66 8.68 7.32 8 8 C5.19946946 7.78457457 3.47097443 7.34105045 1.1875 5.6875 C0 4 0 4 0 0 Z " fill="#072C55" transform="translate(123,98)"/>
<path d="M0 0 C0.33 0 0.66 0 1 0 C1 2.97 1 5.94 1 9 C-0.98 9.99 -0.98 9.99 -3 11 C-3.99 10.01 -4.98 9.02 -6 8 C-5.02471263 6.66382648 -4.04466681 5.3311249 -3.0625 4 C-2.24458984 2.88625 -2.24458984 2.88625 -1.41015625 1.75 C-0.94480469 1.1725 -0.47945312 0.595 0 0 Z " fill="#2F4765" transform="translate(53,62)"/>
<path d="M0 0 C0.33 0 0.66 0 1 0 C1.04898438 0.71027344 1.09796875 1.42054687 1.1484375 2.15234375 C1.22320312 3.07144531 1.29796875 3.99054688 1.375 4.9375 C1.44460937 5.85402344 1.51421875 6.77054687 1.5859375 7.71484375 C1.72257812 8.46894531 1.85921875 9.22304687 2 10 C2.66 10.33 3.32 10.66 4 11 C4 11.66 4 12.32 4 13 C0.17398693 11.54875366 -1.22329124 9.64225296 -3 6 C-3 5.01 -3 4.02 -3 3 C-2.34 3 -1.68 3 -1 3 C-0.67 2.01 -0.34 1.02 0 0 Z " fill="#304766" transform="translate(53,90)"/>
<path d="M0 0 C1.65 0 3.3 0 5 0 C6.61949011 2.57213134 7.04408751 3.67669159 6.625 6.75 C6.41875 7.4925 6.2125 8.235 6 9 C5.01 8.34 4.02 7.68 3 7 C2.67 7.66 2.34 8.32 2 9 C1.34 8.67 0.68 8.34 0 8 C0 5.36 0 2.72 0 0 Z " fill="#95ADC3" transform="translate(100,40)"/>
<path d="M0 0 C2.475 0.495 2.475 0.495 5 1 C5 2.98 5 4.96 5 7 C3.35 7.33 1.7 7.66 0 8 C0 5.36 0 2.72 0 0 Z " fill="#112E4E" transform="translate(97,153)"/>
<path d="M0 0 C2.475 0.495 2.475 0.495 5 1 C5 2.98 5 4.96 5 7 C3.35 7.33 1.7 7.66 0 8 C0 5.36 0 2.72 0 0 Z " fill="#0E2C51" transform="translate(110,153)"/>
<path d="M0 0 C2.475 0.495 2.475 0.495 5 1 C5 2.98 5 4.96 5 7 C3.35 7.33 1.7 7.66 0 8 C0 5.36 0 2.72 0 0 Z " fill="#0F2E52" transform="translate(79,153)"/>
<path d="M0 0 C1.65 0 3.3 0 5 0 C4.67 0.99 4.34 1.98 4 3 C4.66 3 5.32 3 6 3 C6.66 2.34 7.32 1.68 8 1 C8 2.65 8 4.3 8 6 C8.66 6 9.32 6 10 6 C10 7.32 10 8.64 10 10 C9.34 10 8.68 10 8 10 C8 9.01 8 8.02 8 7 C5.69 6.34 3.38 5.68 1 5 C0.67 3.35 0.34 1.7 0 0 Z " fill="#7893B1" transform="translate(127,113)"/>
<path d="M0 0 C0.66 0.33 1.32 0.66 2 1 C2 1.66 2 2.32 2 3 C2.66 3.33 3.32 3.66 4 4 C3.54625 4.5775 3.0925 5.155 2.625 5.75 C1.15886484 7.7800333 0.05142216 9.73539843 -1 12 C-1.66 12 -2.32 12 -3 12 C-2.814375 11.443125 -2.62875 10.88625 -2.4375 10.3125 C-1.92448835 7.600867 -2.3359276 5.65628961 -3 3 C-2.34 2.67 -1.68 2.34 -1 2 C-0.67 1.34 -0.34 0.68 0 0 Z " fill="#6F8AAA" transform="translate(50,58)"/>
<path d="M0 0 C0.66 0 1.32 0 2 0 C1.71905418 1.8141927 1.42493567 3.62635001 1.125 5.4375 C0.96257813 6.44683594 0.80015625 7.45617188 0.6328125 8.49609375 C0.42398438 9.32238281 0.21515625 10.14867187 0 11 C-0.99 11.495 -0.99 11.495 -2 12 C-2.66 11.34 -3.32 10.68 -4 10 C-4.99 9.67 -5.98 9.34 -7 9 C-6.01 7.68 -5.02 6.36 -4 5 C-3.34 5.33 -2.68 5.66 -2 6 C-1.34 4.02 -0.68 2.04 0 0 Z " fill="#1C3F64" transform="translate(54,49)"/>
<path d="M0 0 C0.99 0 1.98 0 3 0 C3 3.96 3 7.92 3 12 C2.67 11.34 2.34 10.68 2 10 C1.34 10 0.68 10 0 10 C0 10.99 0 11.98 0 13 C-0.66 13 -1.32 13 -2 13 C-1.855625 12.14535156 -1.71125 11.29070312 -1.5625 10.41015625 C-1.376875 9.30542969 -1.19125 8.20070312 -1 7.0625 C-0.814375 5.96035156 -0.62875 4.85820312 -0.4375 3.72265625 C0.02644224 1.29504142 0.02644224 1.29504142 0 0 Z " fill="#244262" transform="translate(44,151)"/>
<path d="M0 0 C5.53846154 -0.36923077 5.53846154 -0.36923077 7.875 1.5 C8.24625 1.995 8.6175 2.49 9 3 C7.02 5.97 7.02 5.97 5 9 C4.34 8.34 3.68 7.68 3 7 C3.33 6.01 3.66 5.02 4 4 C3.01 3.67 2.02 3.34 1 3 C0.67 2.01 0.34 1.02 0 0 Z " fill="#224369" transform="translate(104,116)"/>
<path d="M0 0 C0.66 0 1.32 0 2 0 C2 4.62 2 9.24 2 14 C0.35 14.66 -1.3 15.32 -3 16 C-2.68289062 15.29488281 -2.36578125 14.58976563 -2.0390625 13.86328125 C-0.95461714 10.87494121 -0.6035641 8.34930342 -0.375 5.1875 C-0.26285156 3.72376953 -0.26285156 3.72376953 -0.1484375 2.23046875 C-0.09945313 1.49441406 -0.05046875 0.75835937 0 0 Z " fill="#1C3755" transform="translate(23,150)"/>
<path d="M0 0 C0.99 0.33 1.98 0.66 3 1 C1.30099815 2.01577335 -0.40970451 3.0119898 -2.125 4 C-3.07632813 4.556875 -4.02765625 5.11375 -5.0078125 5.6875 C-8.26515122 7.11630654 -10.4837829 7.25041309 -14 7 C-14 6.01 -14 5.02 -14 4 C-13.40832031 3.96261719 -12.81664063 3.92523438 -12.20703125 3.88671875 C-7.27211276 3.47614641 -4.21810173 2.72935995 0 0 Z " fill="#0E2C51" transform="translate(94,129)"/>
<path d="M0 0 C0.99 0 1.98 0 3 0 C3 3.3 3 6.6 3 10 C2.01 10 1.02 10 0 10 C-1.49106457 7.01787087 -1.11941467 4.28390342 -1 1 C-0.67 0.67 -0.34 0.34 0 0 Z " fill="#092A4C" transform="translate(92,107)"/>
<path d="M0 0 C1.5 1.375 1.5 1.375 3 3 C3 3.66 3 4.32 3 5 C3.99 5.33 4.98 5.66 6 6 C4.5625 8 4.5625 8 2 10 C-1.02824418 10.35442445 -3.96485939 10.23347235 -7 10 C-7 9.67 -7 9.34 -7 9 C-5.35 9 -3.7 9 -2 9 C-1.67 8.34 -1.34 7.68 -1 7 C-1 7.66 -1 8.32 -1 9 C-0.34 9 0.32 9 1 9 C1.33 7.35 1.66 5.7 2 4 C1.34 4 0.68 4 0 4 C-0.33 4.66 -0.66 5.32 -1 6 C-1.625 4.125 -1.625 4.125 -2 2 C-1.34 1.34 -0.68 0.68 0 0 Z " fill="#9DB4CF" transform="translate(140,98)"/>
<path d="M0 0 C0 0.99 0 1.98 0 3 C-6.75 5 -6.75 5 -9 5 C-9 4.34 -9 3.68 -9 3 C-10.32 2.34 -11.64 1.68 -13 1 C-8.60563789 0.14256349 -4.47427924 -0.08948558 0 0 Z " fill="#89A0BC" transform="translate(120,88)"/>
<path d="M0 0 C0.66 0.33 1.32 0.66 2 1 C2.07427838 4.34252724 2.06546953 6.8035914 1 10 C1.39397335 12.63804589 1.39397335 12.63804589 2 15 C1.34 15 0.68 15 0 15 C-1.60355101 11.49223216 -2.22036864 8.85645121 -2 5 C-1.01 5 -0.02 5 1 5 C1 4.34 1 3.68 1 3 C0.34 3 -0.32 3 -1 3 C-0.67 2.01 -0.34 1.02 0 0 Z " fill="#708BAB" transform="translate(46,73)"/>
<path d="M0 0 C-0.33 1.98 -0.66 3.96 -1 6 C0.32 5.67 1.64 5.34 3 5 C3 5.66 3 6.32 3 7 C-0.04386724 7.08226668 -2.07175348 6.97608217 -5 6 C-5.33 4.02 -5.66 2.04 -6 0 C-3 -1 -3 -1 0 0 Z " fill="#92A8C3" transform="translate(64,46)"/>
<path d="M0 0 C1.32 0 2.64 0 4 0 C4 0.99 4 1.98 4 3 C2.68 3.33 1.36 3.66 0 4 C0.66 4.33 1.32 4.66 2 5 C1.67 5.99 1.34 6.98 1 8 C-1.31 7.01 -3.62 6.02 -6 5 C-4.6875 3.5 -4.6875 3.5 -3 2 C-2.01 2 -1.02 2 0 2 C0 1.34 0 0.68 0 0 Z " fill="#4F6886" transform="translate(98,128)"/>
<path d="M0 0 C2.6875 -0.3125 2.6875 -0.3125 5 0 C5.33 1.32 5.66 2.64 6 4 C-0.75 6.125 -0.75 6.125 -3 5 C-1.8125 2.5 -1.8125 2.5 0 0 Z " fill="#5E7796" transform="translate(112,119)"/>
<path d="M0 0 C0.99 0 1.98 0 3 0 C2.67 1.65 2.34 3.3 2 5 C2.99 5 3.98 5 5 5 C4.67 5.99 4.34 6.98 4 8 C2.35 7.67 0.7 7.34 -1 7 C-1.04254356 5.00045254 -1.04080783 2.99958364 -1 1 C-0.67 0.67 -0.34 0.34 0 0 Z " fill="#0E2E53" transform="translate(169,153)"/>
<path d="M0 0 C0.66 0.33 1.32 0.66 2 1 C1.67 2.32 1.34 3.64 1 5 C-3.41062136 6.0257259 -5.92630576 6.03684712 -10 4 C-9.2236068 7.0745356 -9.2236068 7.0745356 -7 9 C-8.32 8.67 -9.64 8.34 -11 8 C-11.5534764 5.92446352 -12 4.15634036 -12 2 C-8.04 2.33 -4.08 2.66 0 3 C0 2.01 0 1.02 0 0 Z " fill="#8CA7C5" transform="translate(67,108)"/>
<path d="M0 0 C4.455 1.98 4.455 1.98 9 4 C9 4.33 9 4.66 9 5 C7.35 5 5.7 5 4 5 C3.67 6.65 3.34 8.3 3 10 C0.70366176 6.55549263 0.45983515 4.06187717 0 0 Z " fill="#87A1BA" transform="translate(120,102)"/>
<path d="M0 0 C-1.32 2.31 -2.64 4.62 -4 7 C-4.99 6.67 -5.98 6.34 -7 6 C-6.34 5.67 -5.68 5.34 -5 5 C-5.33 4.01 -5.66 3.02 -6 2 C-6.66 1.67 -7.32 1.34 -8 1 C-8.33 1.66 -8.66 2.32 -9 3 C-9.33 2.01 -9.66 1.02 -10 0 C-6.33694766 -0.74926071 -3.57644848 -1.2380014 0 0 Z " fill="#8AA3BD" transform="translate(76,97)"/>
<path d="M0 0 C0 0.66 0 1.32 0 2 C1.65 2 3.3 2 5 2 C4.67 2.66 4.34 3.32 4 4 C2.02 4 0.04 4 -2 4 C-2.33 4.66 -2.66 5.32 -3 6 C-3.99 5.34 -4.98 4.68 -6 4 C-6 3.01 -6 2.02 -6 1 C-3 0 -3 0 0 0 Z " fill="#9CA5B2" transform="translate(93,81)"/>
<path d="M0 0 C0.33 0.33 0.66 0.66 1 1 C0.82364548 3.69082872 0.38164079 6.32851446 0 9 C-0.66 8.67 -1.32 8.34 -2 8 C-2.40729228 5.67843403 -2.74438677 3.3431213 -3 1 C-3.99 0.67 -4.98 0.34 -6 0 C-3.49749232 -1.25125384 -2.59701335 -0.83774624 0 0 Z " fill="#103257" transform="translate(136,150)"/>
<path d="M0 0 C0 0.66 0 1.32 0 2 C-0.99 2 -1.98 2 -3 2 C-3 2.99 -3 3.98 -3 5 C-2.01 5 -1.02 5 0 5 C-0.33 5.99 -0.66 6.98 -1 8 C-4 6.1875 -4 6.1875 -7 4 C-7 3.01 -7 2.02 -7 1 C-4 0 -4 0 0 0 Z " fill="#869EB9" transform="translate(139,84)"/>
<path d="M0 0 C0.66 0 1.32 0 2 0 C3.125 6.75 3.125 6.75 2 9 C1.34 9 0.68 9 0 9 C-0.33 9.99 -0.66 10.98 -1 12 C-2.09898702 8.70303895 -1.87124444 7.59505097 -1.0625 4.3125 C-0.86785156 3.50425781 -0.67320312 2.69601563 -0.47265625 1.86328125 C-0.31667969 1.24839844 -0.16070312 0.63351563 0 0 Z " fill="#224165" transform="translate(152,65)"/>
<path d="M0 0 C0.66 0 1.32 0 2 0 C1.67 2.31 1.34 4.62 1 7 C-1.31 6.34 -3.62 5.68 -6 5 C-5.67 3.68 -5.34 2.36 -5 1 C-3.68 1 -2.36 1 -1 1 C-0.67 0.67 -0.34 0.34 0 0 Z " fill="#557091" transform="translate(135,38)"/>
<path d="M0 0 C0.66 0 1.32 0 2 0 C2 3.3 2 6.6 2 10 C3.32 10 4.64 10 6 10 C6 10.66 6 11.32 6 12 C4.33388095 12.042721 2.66617115 12.04063832 1 12 C0 11 0 11 -0.09765625 8.49609375 C-0.08605469 7.48675781 -0.07445312 6.47742188 -0.0625 5.4375 C-0.05347656 4.42558594 -0.04445312 3.41367188 -0.03515625 2.37109375 C-0.02355469 1.58863281 -0.01195312 0.80617187 0 0 Z " fill="#A3B7D1" transform="translate(150,151)"/>
<path d="M0 0 C2.875 -0.1875 2.875 -0.1875 6 0 C6.66 0.99 7.32 1.98 8 3 C7 4 7 4 4.625 4.0625 C3.75875 4.041875 2.8925 4.02125 2 4 C1.01 4 0.02 4 -1 4 C-0.67 2.68 -0.34 1.36 0 0 Z " fill="#4F6C8B" transform="translate(83,119)"/>
<path d="M0 0 C-1.875 3.875 -1.875 3.875 -3 5 C-2.34 5.66 -1.68 6.32 -1 7 C-2.98 7 -4.96 7 -7 7 C-6.67 6.01 -6.34 5.02 -6 4 C-6.66 4 -7.32 4 -8 4 C-8.33 3.01 -8.66 2.02 -9 1 C-2.25 0 -2.25 0 0 0 Z " fill="#92ADC8" transform="translate(70,82)"/>
<path d="M0 0 C1.98 0.495 1.98 0.495 4 1 C4.33 4.96 4.66 8.92 5 13 C3.02 13 1.04 13 -1 13 C-0.505 12.278125 -0.01 11.55625 0.5 10.8125 C2.10456857 7.80393392 2.4396925 6.341663 2 3 C1.34 2.01 0.68 1.02 0 0 Z " fill="#143355" transform="translate(114,151)"/>
<path d="M0 0 C0.66 0 1.32 0 2 0 C2.66 2.31 3.32 4.62 4 7 C4.99 5.02 5.98 3.04 7 1 C8.13643966 4.40931897 7.86747764 5.00335456 6.5625 8.1875 C6.27503906 8.90292969 5.98757812 9.61835938 5.69140625 10.35546875 C5.46324219 10.89816406 5.23507813 11.44085938 5 12 C3 11 3 11 2.1484375 8.49609375 C1.89320312 7.48675781 1.63796875 6.47742188 1.375 5.4375 C1.11460938 4.42558594 0.85421875 3.41367188 0.5859375 2.37109375 C0.39257812 1.58863281 0.19921875 0.80617187 0 0 Z " fill="#B1CBE1" transform="translate(37,151)"/>
<path d="M0 0 C0.33 0.66 0.66 1.32 1 2 C0.34 2 -0.32 2 -1 2 C-1 5.3 -1 8.6 -1 12 C-3.71472902 9.28527098 -4.14258516 6.69347931 -5 3 C-4.67 2.34 -4.34 1.68 -4 1 C-1.9375 0.375 -1.9375 0.375 0 0 Z " fill="#0F2E52" transform="translate(151,149)"/>
<path d="M0 0 C1.65 0 3.3 0 5 0 C4.67 1.32 4.34 2.64 4 4 C5.11375 3.690625 5.11375 3.690625 6.25 3.375 C9.37796068 2.94845991 10.32595741 3.50299325 13 5 C11.39884424 5.2493357 9.79379841 5.47378648 8.1875 5.6875 C7.29417969 5.81511719 6.40085937 5.94273438 5.48046875 6.07421875 C3 6 3 6 1.17578125 4.70703125 C0 3 0 3 0 0 Z " fill="#738EAD" transform="translate(63,119)"/>
<path d="M0 0 C1.2065625 0.0309375 1.2065625 0.0309375 2.4375 0.0625 C1.1175 0.3925 -0.2025 0.7225 -1.5625 1.0625 C-1.5625 2.0525 -1.5625 3.0425 -1.5625 4.0625 C-0.2425 3.7325 1.0775 3.4025 2.4375 3.0625 C2.4375 3.7225 2.4375 4.3825 2.4375 5.0625 C1.4475 5.0625 0.4575 5.0625 -0.5625 5.0625 C-0.5625 6.0525 -0.5625 7.0425 -0.5625 8.0625 C0.4275 8.3925 1.4175 8.7225 2.4375 9.0625 C0.7875 9.0625 -0.8625 9.0625 -2.5625 9.0625 C-3.44140625 2.91015625 -3.44140625 2.91015625 -3.5625 1.0625 C-2.5625 0.0625 -2.5625 0.0625 0 0 Z " fill="#98B3CC" transform="translate(93.5625,40.9375)"/>
<path d="M0 0 C6.875 0.875 6.875 0.875 8 2 C8.99 2 9.98 2 11 2 C11.33 2.66 11.66 3.32 12 4 C7.06729471 5.6442351 4.45975807 4.18615592 0 2 C0 1.34 0 0.68 0 0 Z " fill="#5E7593" transform="translate(126,45)"/>
<path d="M0 0 C2.64 0 5.28 0 8 0 C7 2 6 4 5 6 C4.01 5.34 3.02 4.68 2 4 C1.01 4 0.02 4 -1 4 C-1.99 3.34 -2.98 2.68 -4 2 C-2.68 2 -1.36 2 0 2 C0 1.34 0 0.68 0 0 Z " fill="#384E6A" transform="translate(98,85)"/>
<path d="M0 0 C0.66 0 1.32 0 2 0 C1.67 1.65 1.34 3.3 1 5 C0.34 4.67 -0.32 4.34 -1 4 C-1.99 5.485 -1.99 5.485 -3 7 C-5.475 6.01 -5.475 6.01 -8 5 C-8 4.34 -8 3.68 -8 3 C-6.68 3.33 -5.36 3.66 -4 4 C-4.33 3.01 -4.66 2.02 -5 1 C-3.35 1.33 -1.7 1.66 0 2 C0 1.34 0 0.68 0 0 Z " fill="#839EBD" transform="translate(148,59)"/>
<path d="M0 0 C0.33 0.99 0.66 1.98 1 3 C0.67 3.66 0.34 4.32 0 5 C-0.66 5 -1.32 5 -2 5 C-2.33 5.99 -2.66 6.98 -3 8 C-3.99 8 -4.98 8 -6 8 C-4.52307692 2.33846154 -4.52307692 2.33846154 -1.875 0.625 C-0.946875 0.315625 -0.946875 0.315625 0 0 Z " fill="#465A76" transform="translate(61,51)"/>
<path d="M0 0 C0.99 0 1.98 0 3 0 C3 2.64 3 5.28 3 8 C2.67 7.34 2.34 6.68 2 6 C0.02 6 -1.96 6 -4 6 C-4 5.01 -4 4.02 -4 3 C-2.02 3 -0.04 3 2 3 C2 2.34 2 1.68 2 1 C1.34 0.67 0.68 0.34 0 0 Z " fill="#0E2B4E" transform="translate(52,150)"/>
<path d="M0 0 C0.66 0 1.32 0 2 0 C2.33 2.97 2.66 5.94 3 9 C0.36 7.35 -2.28 5.7 -5 4 C-4.67 3.34 -4.34 2.68 -4 2 C-2 2 -2 2 -0.375 3.5 C0.07875 3.995 0.5325 4.49 1 5 C0.67 3.35 0.34 1.7 0 0 Z " fill="#95AFC7" transform="translate(83,44)"/>
<path d="M0 0 C2 3 2 3 3 6 C1.68 7.32 0.36 8.64 -1 10 C-1 9.34 -1 8.68 -1 8 C-1.66 7.67 -2.32 7.34 -3 7 C-2.690625 6.401875 -2.38125 5.80375 -2.0625 5.1875 C-0.89790296 2.91043228 -0.89790296 2.91043228 0 0 Z " fill="#092C54" transform="translate(100,133)"/>
<path d="M0 0 C0.66 0 1.32 0 2 0 C2.309375 0.78375 2.61875 1.5675 2.9375 2.375 C3.92875038 4.92330128 3.92875038 4.92330128 5 7 C4.34 7 3.68 7 3 7 C2.34 8.32 1.68 9.64 1 11 C0.67 11 0.34 11 0 11 C-1.28571429 3.57142857 -1.28571429 3.57142857 0 0 Z " fill="#384F6D" transform="translate(49,77)"/>
<path d="M0 0 C2 1.5625 2 1.5625 4 4 C4.25 7.75 4.25 7.75 4 11 C2.68 10.34 1.36 9.68 0 9 C0.66 7.35 1.32 5.7 2 4 C1.34 4 0.68 4 0 4 C0 2.68 0 1.36 0 0 Z " fill="#314966" transform="translate(146,62)"/>
<path d="M0 0 C-1 2 -1 2 -2.875 2.75 C-5 3 -5 3 -8 1 C-9.32 1 -10.64 1 -12 1 C-12 0.34 -12 -0.32 -12 -1 C-7.31034294 -2.11658501 -4.46236469 -1.80619523 0 0 Z " fill="#18375D" transform="translate(94,140)"/>
<path d="M0 0 C2.4375 0.6875 2.4375 0.6875 5 2 C5.8125 4.625 5.8125 4.625 6 7 C5.01 7 4.02 7 3 7 C0.8125 4.5 0.8125 4.5 -1 2 C-0.67 1.34 -0.34 0.68 0 0 Z " fill="#4E688A" transform="translate(45,95)"/>
<path d="M0 0 C2 3 2 3 2.9375 5.5625 C3.87138318 8.30504053 3.87138318 8.30504053 7 10 C7.6875 12.625 7.6875 12.625 8 15 C4.32842047 11.6261161 1.87656686 8.64203381 0 4 C0 2.68 0 1.36 0 0 Z " fill="#698BAF" transform="translate(73,84)"/>
<path d="M0 0 C0.33 0.66 0.66 1.32 1 2 C0.34 2 -0.32 2 -1 2 C-0.67 3.32 -0.34 4.64 0 6 C-0.66 6 -1.32 6 -2 6 C-2.33 6.66 -2.66 7.32 -3 8 C-3.99 7.67 -4.98 7.34 -6 7 C-6 4 -6 4 -4.6875 2.375 C-3 1 -3 1 0 0 Z " fill="#062C56" transform="translate(62,81)"/>
<path d="M0 0 C2.64 0.33 5.28 0.66 8 1 C6.25 3.0625 6.25 3.0625 4 5 C1.75 4.75 1.75 4.75 0 4 C0 2.68 0 1.36 0 0 Z " fill="#294365" transform="translate(111,124)"/>
<path d="M0 0 C-0.33 1.65 -0.66 3.3 -1 5 C-3.02045442 4.39816251 -5.02111039 3.72693904 -7 3 C-7.33 2.34 -7.66 1.68 -8 1 C-5.07175348 0.02391783 -3.04386724 -0.08226668 0 0 Z " fill="#2C4565" transform="translate(89,124)"/>
<path d="M0 0 C2.64 0.33 5.28 0.66 8 1 C7.01 1.495 7.01 1.495 6 2 C6 2.66 6 3.32 6 4 C3.36 4.33 0.72 4.66 -2 5 C-1.34 3.35 -0.68 1.7 0 0 Z " fill="#19385E" transform="translate(105,89)"/>
<path d="M0 0 C1.32 0.33 2.64 0.66 4 1 C4.33 3.31 4.66 5.62 5 8 C3.02 8.99 3.02 8.99 1 10 C1.33 7.36 1.66 4.72 2 2 C1.34 2 0.68 2 0 2 C0 1.34 0 0.68 0 0 Z " fill="#334967" transform="translate(147,76)"/>
<path d="M0 0 C-0.33 2.31 -0.66 4.62 -1 7 C-1.99 7 -2.98 7 -4 7 C-4.33 5.35 -4.66 3.7 -5 2 C-1.125 0 -1.125 0 0 0 Z " fill="#12365C" transform="translate(159,153)"/>
<path d="M0 0 C0.66 0.99 1.32 1.98 2 3 C0 5 0 5 -1.875 5.046875 C-2.57625 4.94890625 -3.2775 4.8509375 -4 4.75 C-5.051875 4.61851563 -5.051875 4.61851563 -6.125 4.484375 C-8 4 -8 4 -10 2 C-3.375 1.875 -3.375 1.875 0 3 C0 2.01 0 1.02 0 0 Z " fill="#0C2D52" transform="translate(138,96)"/>
<path d="M0 0 C1.32 1.32 2.64 2.64 4 4 C3.2575 5.3921875 3.2575 5.3921875 2.5 6.8125 C0.78710148 9.86527516 0.78710148 9.86527516 1 13 C0.34 13 -0.32 13 -1 13 C-0.67 8.71 -0.34 4.42 0 0 Z " fill="#7891B0" transform="translate(55,47)"/>
<path d="M0 0 C0.99 0.33 1.98 0.66 3 1 C5.14255793 0.61067144 5.14255793 0.61067144 7 0 C7 0.66 7 1.32 7 2 C5.68 2.33 4.36 2.66 3 3 C3 3.66 3 4.32 3 5 C1.68 5.33 0.36 5.66 -1 6 C-0.67 4.02 -0.34 2.04 0 0 Z " fill="#506684" transform="translate(64,46)"/>
<path d="M0 0 C4.75 0.875 4.75 0.875 7 2 C7 2.66 7 3.32 7 4 C4.39417629 4.93065133 3.35801776 5.14917407 0.75 4.0625 C0.1725 3.711875 -0.405 3.36125 -1 3 C-0.67 2.01 -0.34 1.02 0 0 Z " fill="#1D3B5C" transform="translate(178,159)"/>
<path d="M0 0 C0.99 0.495 0.99 0.495 2 1 C2 2.32 2 3.64 2 5 C3.65 5 5.3 5 7 5 C7 5.66 7 6.32 7 7 C4.69 7 2.38 7 0 7 C0 4.69 0 2.38 0 0 Z " fill="#A0B7D0" transform="translate(118,156)"/>
<path d="M0 0 C4.95 0.99 4.95 0.99 10 2 C9.67 2.99 9.34 3.98 9 5 C7.02 5 5.04 5 3 5 C3 4.34 3 3.68 3 3 C2.01 2.01 1.02 1.02 0 0 Z " fill="#A3BAD4" transform="translate(110,134)"/>
<path d="M0 0 C0.33 0.66 0.66 1.32 1 2 C1.99 1.67 2.98 1.34 4 1 C3.6875 2.875 3.6875 2.875 3 5 C2.01 5.66 1.02 6.32 0 7 C-0.33 6.01 -0.66 5.02 -1 4 C-1.99 3.67 -2.98 3.34 -4 3 C-2.68 2.01 -1.36 1.02 0 0 Z " fill="#2B486A" transform="translate(95,133)"/>
<path d="M0 0 C1.65 0 3.3 0 5 0 C5 1.65 5 3.3 5 5 C3.02 5 1.04 5 -1 5 C-0.67 3.35 -0.34 1.7 0 0 Z " fill="#4B627F" transform="translate(61,102)"/>
<path d="M0 0 C0.99 0.33 1.98 0.66 3 1 C3 1.99 3 2.98 3 4 C2.34 4 1.68 4 1 4 C1 4.66 1 5.32 1 6 C-0.32 5.34 -1.64 4.68 -3 4 C-2.67 3.01 -2.34 2.02 -2 1 C-1.34 0.67 -0.68 0.34 0 0 Z " fill="#062A54" transform="translate(134,65)"/>
<path d="M0 0 C2.97 0 5.94 0 9 0 C8.34 1.65 7.68 3.3 7 5 C6.67 4.34 6.34 3.68 6 3 C4.02111039 2.27306096 2.02045442 1.60183749 0 1 C0 0.67 0 0.34 0 0 Z " fill="#0D2E52" transform="translate(68,62)"/>
<path d="M0 0 C2.31 1.98 4.62 3.96 7 6 C6.01 6.99 5.02 7.98 4 9 C3.38125 8.21625 2.7625 7.4325 2.125 6.625 C0.10141339 4.03162353 0.10141339 4.03162353 -2 2 C-1.34 1.34 -0.68 0.68 0 0 Z " fill="#96AEC4" transform="translate(74,50)"/>
<path d="M0 0 C3 1 3 1 4.1875 2.875 C5 5 5 5 5 8 C4.01 8.33 3.02 8.66 2 9 C0.50178941 5.62902617 0 3.79557881 0 0 Z " fill="#1D3C5D" transform="translate(164,158)"/>
<path d="M0 0 C0.66 0 1.32 0 2 0 C2.74926071 3.66305234 3.2380014 6.42355152 2 10 C1.34 10 0.68 10 0 10 C-0.95024979 6.30458414 -0.95024979 3.69541586 0 0 Z " fill="#738CA4" transform="translate(144,148)"/>
<path d="M0 0 C1.5625 1.8125 1.5625 1.8125 3 4 C2.67 4.99 2.34 5.98 2 7 C1.01 7 0.02 7 -1 7 C-1.625 5.1875 -1.625 5.1875 -2 3 C-1.34 2.01 -0.68 1.02 0 0 Z " fill="#8099AF" transform="translate(90,151)"/>
<path d="M0 0 C0.78375 0.2475 1.5675 0.495 2.375 0.75 C2.705 1.41 3.035 2.07 3.375 2.75 C0.88435112 3.43707555 -1.00386292 3.75 -3.625 3.75 C-4.615 4.245 -4.615 4.245 -5.625 4.75 C-5.625 3.76 -5.625 2.77 -5.625 1.75 C-2.625 -0.25 -2.625 -0.25 0 0 Z " fill="#607B9A" transform="translate(106.625,131.25)"/>
<path d="M0 0 C1.65 0.33 3.3 0.66 5 1 C5 1.99 5 2.98 5 4 C2.03 4 -0.94 4 -4 4 C-2.68 3.34 -1.36 2.68 0 2 C0 1.34 0 0.68 0 0 Z " fill="#527093" transform="translate(116,129)"/>
<path d="M0 0 C1.65 0.33 3.3 0.66 5 1 C4.67 2.65 4.34 4.3 4 6 C3.01 6.33 2.02 6.66 1 7 C0.01 6.34 -0.98 5.68 -2 5 C-1.01 4.34 -0.02 3.68 1 3 C1.33 2.67 1.66 2.34 2 2 C1.34 1.34 0.68 0.68 0 0 Z " fill="#415E7F" transform="translate(130,119)"/>
<path d="M0 0 C3.96 1.98 3.96 1.98 8 4 C7.34 4.66 6.68 5.32 6 6 C5.34 5.67 4.68 5.34 4 5 C3.67 5.66 3.34 6.32 3 7 C3 6.01 3 5.02 3 4 C1.68 3.67 0.36 3.34 -1 3 C-0.67 2.01 -0.34 1.02 0 0 Z " fill="#90A4BD" transform="translate(57,97)"/>
<path d="M0 0 C0.99 0 1.98 0 3 0 C3.66 1.98 4.32 3.96 5 6 C0.25 5.125 0.25 5.125 -2 4 C-2 3.34 -2 2.68 -2 2 C-1.34 2 -0.68 2 0 2 C0 1.34 0 0.68 0 0 Z " fill="#12375E" transform="translate(44,61)"/>
<path d="M0 0 C1.65 0 3.3 0 5 0 C4.67 0.99 4.34 1.98 4 3 C3.34 3 2.68 3 2 3 C1.67 3.66 1.34 4.32 1 5 C-0.32 4.67 -1.64 4.34 -3 4 C-2.67 3.34 -2.34 2.68 -2 2 C-1.34 2 -0.68 2 0 2 C0 1.34 0 0.68 0 0 Z " fill="#728AAB" transform="translate(61,54)"/>
<path d="M0 0 C-0.33 0.66 -0.66 1.32 -1 2 C-3.66666667 2 -6.33333333 2 -9 2 C-9.33 1.34 -9.66 0.68 -10 0 C-5.91847062 -2.09907226 -4.08152938 -2.09907226 0 0 Z " fill="#859BB9" transform="translate(74,45)"/>
<path d="M0 0 C2.25245881 2.68841859 3.88213958 4.64641875 5 8 C3.35 7.67 1.7 7.34 0 7 C0 4.69 0 2.38 0 0 Z " fill="#193555" transform="translate(26,155)"/>
<path d="M0 0 C-0.99 0.495 -0.99 0.495 -2 1 C-1.67 1.66 -1.34 2.32 -1 3 C-3.875 3.1875 -3.875 3.1875 -7 3 C-7.66 2.01 -8.32 1.02 -9 0 C-3.375 -1.125 -3.375 -1.125 0 0 Z " fill="#ABC3DC" transform="translate(89,136)"/>
<path d="M0 0 C1.98 0.66 3.96 1.32 6 2 C6 1.34 6 0.68 6 0 C6.66 0 7.32 0 8 0 C8 0.99 8 1.98 8 3 C6.02 3 4.04 3 2 3 C2 3.66 2 4.32 2 5 C1.01 5 0.02 5 -1 5 C-0.67 3.35 -0.34 1.7 0 0 Z " fill="#768DAC" transform="translate(96,122)"/>
<path d="M0 0 C3.05882701 1.52941351 3.68951234 3.94219546 5 7 C4.67 7.66 4.34 8.32 4 9 C3.38125 8.195625 2.7625 7.39125 2.125 6.5625 C0.25835959 3.96125481 0.25835959 3.96125481 -2 3 C-2 2.34 -2 1.68 -2 1 C-1.34 0.67 -0.68 0.34 0 0 Z " fill="#7A93B1" transform="translate(75,116)"/>
<path d="M0 0 C1.32 0.33 2.64 0.66 4 1 C3.67 2.65 3.34 4.3 3 6 C0.03 5.505 0.03 5.505 -3 5 C-2.67 4.34 -2.34 3.68 -2 3 C-1.34 3 -0.68 3 0 3 C0 2.01 0 1.02 0 0 Z " fill="#3A526E" transform="translate(138,101)"/>
<path d="M0 0 C2 1.25 2 1.25 4 3 C4 4.32 4 5.64 4 7 C2.0625 6.1875 2.0625 6.1875 0 5 C-0.33 4.01 -0.66 3.02 -1 2 C-0.67 1.34 -0.34 0.68 0 0 Z " fill="#405673" transform="translate(140,52)"/>
<path d="M0 0 C0.99 0.33 1.98 0.66 3 1 C3 3.31 3 5.62 3 8 C2.34 8 1.68 8 1 8 C1 6.68 1 5.36 1 4 C0.34 4 -0.32 4 -1 4 C-0.67 2.68 -0.34 1.36 0 0 Z " fill="#274465" transform="translate(98,40)"/>
<path d="M0 0 C1.9451 2.91765 2.45276317 4.62537285 3 8 C1.68 7.67 0.36 7.34 -1 7 C-1.04254356 5.00045254 -1.04080783 2.99958364 -1 1 C-0.67 0.67 -0.34 0.34 0 0 Z " fill="#143357" transform="translate(37,153)"/>
<path d="M0 0 C0.99 0 1.98 0 3 0 C3.66 1.32 4.32 2.64 5 4 C4.34 4.66 3.68 5.32 3 6 C2.01 6 1.02 6 0 6 C-1.125 2.25 -1.125 2.25 0 0 Z " fill="#0C345F" transform="translate(102,112)"/>
<path d="M0 0 C0 0.99 0 1.98 0 3 C-3 5 -3 5 -5 6 C-5.66 5.34 -6.32 4.68 -7 4 C-3.375 0 -3.375 0 0 0 Z " fill="#0F2E51" transform="translate(94,86)"/>
<path d="M0 0 C0.33 0.66 0.66 1.32 1 2 C1.99 2.33 2.98 2.66 4 3 C3.01 3.99 2.02 4.98 1 6 C0.34 5.67 -0.32 5.34 -1 5 C-1 4.34 -1 3.68 -1 3 C-2.32 2.67 -3.64 2.34 -5 2 C-3.35 2 -1.7 2 0 2 C0 1.34 0 0.68 0 0 Z " fill="#18395D" transform="translate(67,51)"/>
<path d="M0 0 C0.99 0.33 1.98 0.66 3 1 C2.34 3.97 1.68 6.94 1 10 C-1.17766075 5.64467851 -1.03039555 4.53374042 0 0 Z " fill="#213E5F" transform="translate(60,40)"/>
<path d="M0 0 C1.98 0.66 3.96 1.32 6 2 C6 2.99 6 3.98 6 5 C4.35 4.67 2.7 4.34 1 4 C0.67 2.68 0.34 1.36 0 0 Z " fill="#193656" transform="translate(65,156)"/>
<path d="M0 0 C0.99 0.66 1.98 1.32 3 2 C2.34 3.98 1.68 5.96 1 8 C-1.13562754 5.86437246 -1.63318342 4.93453261 -2 2 C-1.34 1.34 -0.68 0.68 0 0 Z " fill="#1B3759" transform="translate(41,152)"/>
<path d="M0 0 C0.66 0.33 1.32 0.66 2 1 C1.67 2.98 1.34 4.96 1 7 C0.01 6.67 -0.98 6.34 -2 6 C-1.49396008 3.83125748 -1.00016187 2.00032373 0 0 Z " fill="#052D58" transform="translate(118,106)"/>
<path d="M0 0 C1.65 0 3.3 0 5 0 C4.25 1.9375 4.25 1.9375 3 4 C0.875 4.75 0.875 4.75 -1 5 C-0.67 3.35 -0.34 1.7 0 0 Z " fill="#435A79" transform="translate(144,98)"/>
<path d="M0 0 C4 4.625 4 4.625 4 8 C3.01 7.67 2.02 7.34 1 7 C1 6.34 1 5.68 1 5 C0.34 5 -0.32 5 -1 5 C-0.67 3.35 -0.34 1.7 0 0 Z " fill="#607795" transform="translate(140,93)"/>
<path d="M0 0 C0.93423645 3.01031744 1.04449911 3.86650268 0 7 C-2.475 6.01 -2.475 6.01 -5 5 C-4.34 4.01 -3.68 3.02 -3 2 C-2.34 2 -1.68 2 -1 2 C-0.67 1.34 -0.34 0.68 0 0 Z " fill="#496280" transform="translate(52,66)"/>
<path d="M0 0 C1.32 0.66 2.64 1.32 4 2 C4 1.34 4 0.68 4 0 C4.66 0.33 5.32 0.66 6 1 C4.71034824 2.37562854 3.37310707 3.70766393 2 5 C1.34 5 0.68 5 0 5 C0 4.34 0 3.68 0 3 C-0.66 2.67 -1.32 2.34 -2 2 C-1.34 2 -0.68 2 0 2 C0 1.34 0 0.68 0 0 Z " fill="#3A5B80" transform="translate(84,52)"/>
<path d="M0 0 C1.65 0 3.3 0 5 0 C5 0.99 5 1.98 5 3 C6.65 3.33 8.3 3.66 10 4 C8.375 4.6875 8.375 4.6875 6 5 C2.75 3.5625 2.75 3.5625 0 2 C0 1.34 0 0.68 0 0 Z " fill="#1F3E62" transform="translate(104,48)"/>
<path d="M0 0 C4.75 -0.125 4.75 -0.125 7 1 C6.67 2.32 6.34 3.64 6 5 C6 4.34 6 3.68 6 3 C4.02 3 2.04 3 0 3 C0 2.01 0 1.02 0 0 Z " fill="#0F2D4F" transform="translate(48,158)"/>
<path d="M0 0 C0.33 0 0.66 0 1 0 C1 3.96 1 7.92 1 12 C-2 8 -2 8 -2 6 C-1.34 6 -0.68 6 0 6 C0 4.02 0 2.04 0 0 Z " fill="#29476C" transform="translate(95,151)"/>
<path d="M0 0 C3.73639216 1.24546405 4.18756513 2.63404953 6 6 C4.68 6 3.36 6 2 6 C2 5.01 2 4.02 2 3 C1.01 2.67 0.02 2.34 -1 2 C-0.67 1.34 -0.34 0.68 0 0 Z " fill="#16385E" transform="translate(126,107)"/>
<path d="M0 0 C0.66 0.66 1.32 1.32 2 2 C-0.97 2.66 -3.94 3.32 -7 4 C-7 3.01 -7 2.02 -7 1 C-3.625 0.375 -3.625 0.375 0 0 Z " fill="#BACCDC" transform="translate(133,95)"/>
<path d="M0 0 C1.98 0.99 3.96 1.98 6 3 C6 3.33 6 3.66 6 4 C3.36 4 0.72 4 -2 4 C-1.34 2.68 -0.68 1.36 0 0 Z " fill="#0D2C53" transform="translate(126,92)"/>
<path d="M0 0 C1.32 0.66 2.64 1.32 4 2 C3.01 3.485 3.01 3.485 2 5 C1.01 5 0.02 5 -1 5 C-0.67 3.35 -0.34 1.7 0 0 Z " fill="#3B5777" transform="translate(131,70)"/>
<path d="M0 0 C2 2 2 2 2 5 C2.66 5.33 3.32 5.66 4 6 C1.125 6.125 1.125 6.125 -2 6 C-2.66 5.34 -3.32 4.68 -4 4 C-2.68 4 -1.36 4 0 4 C0 2.68 0 1.36 0 0 Z " fill="#132E4E" transform="translate(102,45)"/>
<path d="M0 0 C2.97 0.495 2.97 0.495 6 1 C6 2.32 6 3.64 6 5 C5.01 4.67 4.02 4.34 3 4 C3 3.34 3 2.68 3 2 C2.01 2.33 1.02 2.66 0 3 C0 2.01 0 1.02 0 0 Z " fill="#092A4E" transform="translate(78,44)"/>
<path d="M0 0 C0.66 0 1.32 0 2 0 C2.33 1.65 2.66 3.3 3 5 C2.01 5.66 1.02 6.32 0 7 C-1.125 2.25 -1.125 2.25 0 0 Z " fill="#7894B4" transform="translate(63,37)"/>
<path d="M0 0 C1.32 0 2.64 0 4 0 C4.33 0.99 4.66 1.98 5 3 C3.02 3.33 1.04 3.66 -1 4 C-0.67 2.68 -0.34 1.36 0 0 Z " fill="#133357" transform="translate(143,159)"/>
<path d="M0 0 C1.65 0 3.3 0 5 0 C5 0.99 5 1.98 5 3 C4.01 3.495 4.01 3.495 3 4 C2.01 3.67 1.02 3.34 0 3 C0 2.01 0 1.02 0 0 Z " fill="#577697" transform="translate(144,110)"/>
<path d="M0 0 C0.66 1.32 1.32 2.64 2 4 C1.34 4.66 0.68 5.32 0 6 C-1.32 5.01 -2.64 4.02 -4 3 C-2.68 2.01 -1.36 1.02 0 0 Z " fill="#597494" transform="translate(54,108)"/>
<path d="M0 0 C0.33 0.99 0.66 1.98 1 3 C0.67 3.66 0.34 4.32 0 5 C-0.66 5 -1.32 5 -2 5 C-2.33 5.99 -2.66 6.98 -3 8 C-3.66 7.34 -4.32 6.68 -5 6 C-3.35 4.02 -1.7 2.04 0 0 Z " fill="#17385B" transform="translate(81,102)"/>
<path d="M0 0 C0.66 0.33 1.32 0.66 2 1 C1.67 1.66 1.34 2.32 1 3 C1.99 3.33 2.98 3.66 4 4 C3.34 4.66 2.68 5.32 2 6 C0.68 5.34 -0.64 4.68 -2 4 C-2 3.01 -2 2.02 -2 1 C-1.34 0.67 -0.68 0.34 0 0 Z " fill="#193A60" transform="translate(72,103)"/>
<path d="M0 0 C1.98 0 3.96 0 6 0 C5.34 1.32 4.68 2.64 4 4 C2.68 3.67 1.36 3.34 0 3 C0 2.01 0 1.02 0 0 Z " fill="#496482" transform="translate(150,97)"/>
<path d="M0 0 C0.66 0 1.32 0 2 0 C2.33 2.64 2.66 5.28 3 8 C2.34 8 1.68 8 1 8 C0.34 5.69 -0.32 3.38 -1 1 C-0.67 0.67 -0.34 0.34 0 0 Z " fill="#445F80" transform="translate(45,80)"/>
<path d="M0 0 C0.66 0.33 1.32 0.66 2 1 C1.375 2.9375 1.375 2.9375 0 5 C-3.125 5.75 -3.125 5.75 -6 6 C-4 4 -2 2 0 0 Z " fill="#D4E4F0" transform="translate(90,77)"/>
<path d="M0 0 C2.1875 1.4375 2.1875 1.4375 4 3 C2.35 3.66 0.7 4.32 -1 5 C-1.66 3.68 -2.32 2.36 -3 1 C-2.01 0.67 -1.02 0.34 0 0 Z " fill="#10345F" transform="translate(80,49)"/>
</svg>
